<svg width="896" height="373" viewBox="0 0 896 373" fill="none" xmlns="http://www.w3.org/2000/svg">
<mask id="path-1-inside-1_38_35" fill="white">
<path d="M0 11C0 4.92486 4.92487 0 11 0H885C891.075 0 896 4.92487 896 11V362C896 368.075 891.075 373 885 373H11C4.92485 373 0 368.075 0 362V11Z"/>
<path d="M448 3H885C889.418 3 893 6.58172 893 11V362C893 366.418 889.418 370 885 370H448V3Z"/>
</mask>
<path d="M0 11C0 4.92486 4.92487 0 11 0H885C891.075 0 896 4.92487 896 11V362C896 368.075 891.075 373 885 373H11C4.92485 373 0 368.075 0 362V11Z" fill="white"/>
<path d="M448 3H885C889.418 3 893 6.58172 893 11V362C893 366.418 889.418 370 885 370H448V3Z" fill="#FFE501"/>
<path d="M448 3V0H445V3H448ZM448 370H445V373H448V370ZM11 3H885V-3H11V3ZM893 11V362H899V11H893ZM885 370H11V376H885V370ZM3 362V11H-3V362H3ZM11 370C6.58171 370 3 366.418 3 362H-3C-3 369.732 3.26799 376 11 376V370ZM893 362C893 366.418 889.418 370 885 370V376C892.732 376 899 369.732 899 362H893ZM885 3C889.418 3 893 6.58172 893 11H899C899 3.26801 892.732 -3 885 -3V3ZM11 -3C3.26802 -3 -3 3.268 -3 11H3C3 6.58172 6.58172 3 11 3V-3ZM448 6H885V0H448V6ZM890 11V362H896V11H890ZM885 367H448V373H885V367ZM451 370V3H445V370H451ZM890 362C890 364.761 887.761 367 885 367V373C891.075 373 896 368.075 896 362H890ZM885 6C887.761 6 890 8.23858 890 11H896C896 4.92487 891.075 0 885 0V6Z" fill="black" mask="url(#path-1-inside-1_38_35)"/>
</svg>
