<svg width="150" height="226" viewBox="0 0 150 226" fill="none" xmlns="http://www.w3.org/2000/svg">
<circle cx="75" cy="75" r="74" stroke="#16002C" stroke-width="2"/>
<path d="M75 113H47C40.9249 113 36 108.075 36 102V48C36 41.9249 40.9249 37 47 37H103C109.075 37 114 41.9249 114 48V101" stroke="#16002C" stroke-width="2"/>
<path d="M89.504 57.296L88.2157 58.8258V58.8258L89.504 57.296ZM89.504 79.824L90.7804 81.3638L90.7863 81.3588L90.7923 81.3538L89.504 79.824ZM64.032 83.856V81.856H62.032V83.856H64.032ZM64.032 98V100H66.032V98H64.032ZM59.296 98H57.296V100H59.296V98ZM59.296 53.2V51.2H57.296V53.2H59.296ZM86.112 76.816L87.3785 78.3639L87.3868 78.3571L87.3951 78.3502L86.112 76.816ZM86.112 60.24L84.8289 61.7742L84.8372 61.7811L84.8455 61.7879L86.112 60.24ZM64.032 57.296V55.296H62.032V57.296H64.032ZM64.032 79.696H62.032V81.696H64.032V79.696ZM76.064 55.2C81.4749 55.2 85.4424 56.4904 88.2157 58.8258L90.7923 55.7662C87.0803 52.6403 82.0878 51.2 76.064 51.2V55.2ZM88.2157 58.8258C90.9464 61.1254 92.368 64.287 92.368 68.56H96.368C96.368 63.2756 94.5469 58.928 90.7923 55.7662L88.2157 58.8258ZM92.368 68.56C92.368 72.833 90.9464 75.9946 88.2157 78.2942L90.7923 81.3538C94.5469 78.192 96.368 73.8444 96.368 68.56H92.368ZM88.2276 78.2842C85.4539 80.5835 81.4817 81.856 76.064 81.856V85.856C82.081 85.856 87.0688 84.4405 90.7804 81.3638L88.2276 78.2842ZM76.064 81.856H64.032V85.856H76.064V81.856ZM62.032 83.856V98H66.032V83.856H62.032ZM64.032 96H59.296V100H64.032V96ZM61.296 98V53.2H57.296V98H61.296ZM59.296 55.2H76.064V51.2H59.296V55.2ZM75.936 81.696C80.6275 81.696 84.5414 80.6851 87.3785 78.3639L84.8455 75.2681C82.9892 76.7869 80.1192 77.696 75.936 77.696V81.696ZM87.3951 78.3502C90.2703 75.9454 91.632 72.5896 91.632 68.56H87.632C87.632 71.6131 86.647 73.7612 84.8289 75.2818L87.3951 78.3502ZM91.632 68.56C91.632 64.4638 90.2817 61.0674 87.3785 58.6921L84.8455 61.7879C86.6357 63.2526 87.632 65.4029 87.632 68.56H91.632ZM87.3951 58.7058C84.557 56.3321 80.6362 55.296 75.936 55.296V59.296C80.1105 59.296 82.9737 60.2225 84.8289 61.7742L87.3951 58.7058ZM75.936 55.296H64.032V59.296H75.936V55.296ZM62.032 57.296V79.696H66.032V57.296H62.032ZM64.032 81.696H75.936V77.696H64.032V81.696Z" fill="#16002C"/>
<path d="M111.141 108.293C111.111 108.355 111.137 108.43 111.199 108.46C111.261 108.491 111.336 108.465 111.366 108.403L111.141 108.293ZM111.402 108.044L111.514 108.099C111.544 108.038 111.521 107.966 111.462 107.934L111.402 108.044ZM106.457 112.533L106.341 112.581C106.354 112.612 106.379 112.636 106.41 112.649C106.441 112.661 106.475 112.661 106.506 112.648L106.457 112.533ZM106.805 112.519C106.868 112.492 106.898 112.418 106.87 112.355C106.843 112.291 106.769 112.262 106.706 112.289L106.805 112.519ZM109.975 110.881L110.063 110.792L109.975 110.704L109.886 110.792L109.975 110.881ZM109.525 111.328L109.437 111.24L109.348 111.328L109.437 111.417L109.525 111.328ZM109.775 111.44L109.813 111.56L109.932 111.523L109.895 111.403L109.775 111.44ZM109.587 110.835L109.706 110.798L109.669 110.679L109.55 110.716L109.587 110.835ZM109.418 111.08L109.299 111.044L109.263 111.164L109.382 111.2L109.418 111.08ZM110.025 111.263L109.989 111.383L110.109 111.419L110.145 111.299L110.025 111.263ZM109.716 107.964V108.089H109.716L109.716 107.964ZM106.525 111.154L106.65 111.154V111.154H106.525ZM109.716 112.761L109.715 112.636H109.715L109.716 112.761ZM108.107 111.154L108.232 111.154V111.154H108.107ZM87.9185 110.881L88.0069 110.792L87.9187 110.704L87.8303 110.792L87.9185 110.881ZM87.4692 111.328L87.381 111.24L87.2922 111.328L87.3808 111.417L87.4692 111.328ZM87.7192 111.44L87.7565 111.56L87.8757 111.523L87.8385 111.403L87.7192 111.44ZM87.5308 110.835L87.6501 110.798L87.613 110.679L87.4936 110.716L87.5308 110.835ZM87.3623 111.08L87.2426 111.044L87.2065 111.164L87.3262 111.2L87.3623 111.08ZM87.9692 111.263L87.9331 111.383L88.0528 111.419L88.0889 111.299L87.9692 111.263ZM87.625 107.964V108.089H87.625L87.625 107.964ZM84.4348 111.154L84.5598 111.154V111.154H84.4348ZM87.625 112.761L87.6251 112.636H87.625V112.761ZM86.0199 111.154L86.1449 111.154V111.154H86.0199ZM90.921 110.265C90.939 110.331 91.0076 110.371 91.0742 110.353C91.1409 110.335 91.1803 110.266 91.1623 110.2L90.921 110.265ZM84.0887 111.071L83.9638 111.068C83.9628 111.108 83.9809 111.146 84.0124 111.17C84.044 111.194 84.0852 111.202 84.1234 111.191L84.0887 111.071ZM84.4749 111.09C84.5412 111.07 84.5794 111.001 84.5603 110.935C84.5411 110.868 84.4719 110.83 84.4055 110.849L84.4749 111.09ZM106.063 92.7031L106.185 92.6752L106.157 92.5526L106.035 92.5815L106.063 92.7031ZM110.217 110.819L110.339 110.792L110.339 110.791L110.217 110.819ZM109.783 111.509L109.81 111.631L109.811 111.631L109.783 111.509ZM109.092 111.075L108.97 111.102L108.971 111.102L109.092 111.075ZM105.027 92.9477L104.998 92.826L104.878 92.8544L104.905 92.9751L105.027 92.9477ZM109.418 110.872L109.543 110.877L109.543 110.876L109.418 110.872ZM109.621 111.093L109.628 110.968L109.627 110.968L109.621 111.093ZM104.245 87.7629L104.211 87.6426L104.096 87.6749L104.123 87.7909L104.245 87.7629ZM104.83 87.5981L104.952 87.5701L104.922 87.4421L104.796 87.4777L104.83 87.5981ZM106.688 86.6796L106.564 86.6876L106.571 86.8046H106.688V86.6796ZM106.985 86.4024L106.969 86.5263L106.977 86.5274H106.985V86.4024ZM107.697 86.4024H107.822V86.2774H107.697V86.4024ZM107.697 86.6796V86.8046H107.822V86.6796H107.697ZM103.862 88.6234V88.7484H103.911L103.947 88.7155L103.862 88.6234ZM103.85 88.6234V88.4984H103.809L103.777 88.522L103.85 88.6234ZM103.618 88.6977L103.618 88.5727L103.615 88.5727L103.618 88.6977ZM103.386 87.9731L103.456 88.0764L103.463 88.0717L103.469 88.0661L103.386 87.9731ZM104.629 87.8952V88.0202H104.678L104.714 87.9864L104.629 87.8952ZM104.614 87.8952V87.7702H104.574L104.541 87.7937L104.614 87.8952ZM104.15 87.2502L104.223 87.3517L104.23 87.3472L104.235 87.3418L104.15 87.2502ZM105.196 87.3589V87.4839H105.245L105.281 87.4503L105.196 87.3589ZM105.183 87.3589V87.2339H105.143L105.111 87.257L105.183 87.3589ZM104.949 87.4332L104.95 87.3082L104.947 87.3082L104.949 87.4332ZM104.717 86.7086L104.788 86.8119L104.795 86.8069L104.802 86.8009L104.717 86.7086ZM94.3387 114.417V114.542H94.4848L94.4622 114.398L94.3387 114.417ZM93.9166 114.417L93.7934 114.438L93.8111 114.542H93.9166V114.417ZM93.596 112.533L93.7192 112.512L93.7098 112.457L93.6623 112.427L93.596 112.533ZM87.3986 110.667L87.3923 110.792H87.3986V110.667ZM102.563 110.667H102.688V110.542H102.563V110.667ZM102.563 112.096V112.221H102.563L102.563 112.096ZM87.3986 112.096V111.971L87.3923 111.971L87.3986 112.096ZM86.647 111.382H86.522H86.647ZM102.795 112.096L102.795 111.971H102.795L102.795 112.096ZM104.547 111.388L104.634 111.478L104.636 111.476L104.547 111.388ZM104.873 110.988L104.77 110.917L104.769 110.919L104.873 110.988ZM104.076 109.984L103.973 109.914L103.971 109.916L104.076 109.984ZM103.75 110.384L103.662 110.295L103.656 110.301L103.651 110.308L103.75 110.384ZM102.469 110.228L102.477 110.103H102.469V110.228ZM103.315 109.995L103.386 110.098L103.389 110.095L103.315 109.995ZM104.455 108.714L104.526 108.611L104.427 108.543L104.355 108.639L104.455 108.714ZM108.258 106.949C108.296 106.892 108.28 106.814 108.223 106.776C108.165 106.738 108.088 106.754 108.05 106.812L108.258 106.949ZM106.81 107.966C106.744 107.985 106.706 108.055 106.726 108.121C106.746 108.187 106.816 108.225 106.882 108.205L106.81 107.966ZM108.309 107.097C108.333 107.033 108.301 106.96 108.236 106.936C108.172 106.911 108.1 106.944 108.075 107.008L108.309 107.097ZM106.578 108.317C106.511 108.333 106.469 108.4 106.485 108.467C106.501 108.534 106.568 108.576 106.635 108.56L106.578 108.317ZM111.366 108.403L111.514 108.099L111.29 107.989L111.141 108.293L111.366 108.403ZM111.462 107.934C110.794 107.573 110.031 107.428 109.277 107.519L109.307 107.767C110.009 107.682 110.721 107.817 111.343 108.154L111.462 107.934ZM109.277 107.519C108.524 107.61 107.817 107.934 107.255 108.444L107.423 108.629C107.947 108.153 108.605 107.852 109.307 107.767L109.277 107.519ZM107.255 108.444C106.693 108.954 106.303 109.626 106.14 110.367L106.384 110.421C106.536 109.73 106.899 109.104 107.423 108.629L107.255 108.444ZM106.14 110.367C105.976 111.108 106.046 111.882 106.341 112.581L106.572 112.484C106.297 111.833 106.231 111.112 106.384 110.421L106.14 110.367ZM106.506 112.648L106.805 112.519L106.706 112.289L106.407 112.418L106.506 112.648ZM111.164 111.894L110.063 110.792L109.886 110.969L110.988 112.071L111.164 111.894ZM109.886 110.792L109.437 111.24L109.614 111.417L110.063 110.969L109.886 110.792ZM109.437 111.417L110.538 112.518L110.715 112.341L109.614 111.24L109.437 111.417ZM108.327 112.024L109.813 111.56L109.738 111.321L108.253 111.785L108.327 112.024ZM109.895 111.403L109.706 110.798L109.468 110.873L109.656 111.478L109.895 111.403ZM109.55 110.716L108.064 111.18L108.139 111.418L109.624 110.955L109.55 110.716ZM109.748 109.553L109.299 111.044L109.538 111.116L109.987 109.625L109.748 109.553ZM109.382 111.2L109.989 111.383L110.061 111.143L109.455 110.96L109.382 111.2ZM110.145 111.299L110.596 109.808L110.357 109.736L109.906 111.227L110.145 111.299ZM109.716 108.089C110.322 108.089 110.916 108.268 111.42 108.605L111.559 108.397C111.013 108.033 110.372 107.839 109.716 107.839L109.716 108.089ZM111.42 108.605C111.925 108.942 112.318 109.421 112.551 109.982L112.782 109.886C112.53 109.28 112.105 108.762 111.559 108.397L111.42 108.605ZM112.551 109.982C112.783 110.542 112.844 111.159 112.726 111.754L112.971 111.803C113.099 111.159 113.033 110.492 112.782 109.886L112.551 109.982ZM112.726 111.754C112.607 112.349 112.315 112.896 111.886 113.325L112.063 113.501C112.527 113.037 112.843 112.446 112.971 111.803L112.726 111.754ZM111.886 113.325C111.457 113.754 110.91 114.046 110.315 114.164L110.364 114.409C111.008 114.281 111.599 113.966 112.063 113.501L111.886 113.325ZM110.315 114.164C109.72 114.282 109.103 114.222 108.543 113.989L108.447 114.22C109.053 114.471 109.72 114.537 110.364 114.409L110.315 114.164ZM108.543 113.989C107.982 113.757 107.503 113.364 107.167 112.859L106.959 112.998C107.323 113.543 107.841 113.969 108.447 114.22L108.543 113.989ZM107.167 112.859C106.83 112.354 106.65 111.761 106.65 111.154L106.4 111.154C106.4 111.81 106.594 112.452 106.959 112.998L107.167 112.859ZM106.65 111.154C106.65 110.752 106.73 110.353 106.884 109.981L106.653 109.886C106.486 110.288 106.4 110.719 106.4 111.154H106.65ZM106.884 109.981C107.038 109.609 107.264 109.271 107.548 108.987L107.371 108.81C107.064 109.118 106.819 109.483 106.653 109.886L106.884 109.981ZM107.548 108.987C107.833 108.702 108.171 108.476 108.543 108.322L108.447 108.091C108.045 108.258 107.679 108.502 107.371 108.81L107.548 108.987ZM108.543 108.322C108.914 108.168 109.313 108.089 109.716 108.089V107.839C109.28 107.839 108.849 107.925 108.447 108.091L108.543 108.322ZM109.716 112.886C110.058 112.886 110.393 112.784 110.677 112.593L110.538 112.386C110.295 112.549 110.008 112.636 109.715 112.636L109.716 112.886ZM110.677 112.593C110.962 112.403 111.184 112.132 111.314 111.816L111.083 111.72C110.971 111.991 110.782 112.222 110.538 112.386L110.677 112.593ZM111.314 111.816C111.445 111.499 111.479 111.151 111.412 110.815L111.167 110.864C111.224 111.151 111.195 111.449 111.083 111.72L111.314 111.816ZM111.412 110.815C111.345 110.479 111.18 110.171 110.938 109.929L110.761 110.106C110.968 110.313 111.11 110.577 111.167 110.864L111.412 110.815ZM110.938 109.929C110.695 109.687 110.387 109.522 110.051 109.455L110.002 109.701C110.29 109.758 110.554 109.899 110.761 110.106L110.938 109.929ZM110.051 109.455C109.715 109.389 109.367 109.423 109.051 109.554L109.146 109.785C109.417 109.673 109.715 109.644 110.002 109.701L110.051 109.455ZM109.051 109.554C108.734 109.685 108.464 109.907 108.274 110.192L108.482 110.331C108.644 110.087 108.876 109.897 109.146 109.785L109.051 109.554ZM108.274 110.192C108.083 110.477 107.982 110.812 107.982 111.154H108.232C108.232 110.861 108.319 110.575 108.482 110.331L108.274 110.192ZM107.982 111.154C107.982 111.382 108.026 111.607 108.113 111.818L108.344 111.722C108.27 111.542 108.232 111.349 108.232 111.154L107.982 111.154ZM108.113 111.818C108.2 112.028 108.328 112.219 108.489 112.38L108.666 112.203C108.528 112.066 108.419 111.902 108.344 111.722L108.113 111.818ZM108.489 112.38C108.65 112.541 108.842 112.668 109.052 112.755L109.147 112.524C108.967 112.45 108.804 112.341 108.666 112.203L108.489 112.38ZM109.052 112.755C109.263 112.842 109.488 112.887 109.716 112.886L109.715 112.636C109.521 112.637 109.328 112.599 109.147 112.524L109.052 112.755ZM107.601 111.154C107.601 112.322 108.548 113.268 109.716 113.268V113.018C108.686 113.018 107.851 112.184 107.851 111.154H107.601ZM109.716 113.268C110.883 113.268 111.83 112.322 111.83 111.154H111.58C111.58 112.184 110.745 113.018 109.716 113.018V113.268ZM111.83 111.154C111.83 109.987 110.883 109.04 109.716 109.04V109.29C110.745 109.29 111.58 110.125 111.58 111.154H111.83ZM109.716 109.04C108.548 109.04 107.601 109.987 107.601 111.154H107.851C107.851 110.125 108.686 109.29 109.716 109.29V109.04ZM89.1083 111.894L88.0069 110.792L87.8301 110.969L88.9315 112.071L89.1083 111.894ZM87.8303 110.792L87.381 111.24L87.5574 111.417L88.0067 110.969L87.8303 110.792ZM87.3808 111.417L88.4823 112.518L88.659 112.341L87.5576 111.24L87.3808 111.417ZM86.2709 112.024L87.7565 111.56L87.682 111.321L86.1964 111.785L86.2709 112.024ZM87.8385 111.403L87.6501 110.798L87.4114 110.873L87.5999 111.478L87.8385 111.403ZM87.4936 110.716L86.0063 111.18L86.0807 111.418L87.568 110.955L87.4936 110.716ZM87.6919 109.553L87.2426 111.044L87.482 111.116L87.9312 109.625L87.6919 109.553ZM87.3262 111.2L87.9331 111.383L88.0053 111.143L87.3984 110.96L87.3262 111.2ZM88.0889 111.299L88.5381 109.808L88.2988 109.736L87.8495 111.227L88.0889 111.299ZM87.625 108.089C88.2318 108.089 88.825 108.268 89.3296 108.605L89.4684 108.397C88.9227 108.033 88.2811 107.839 87.6249 107.839L87.625 108.089ZM89.3296 108.605C89.8343 108.942 90.2277 109.421 90.46 109.982L90.691 109.886C90.4397 109.28 90.0142 108.762 89.4684 108.397L89.3296 108.605ZM90.46 109.982C90.6924 110.542 90.7532 111.159 90.635 111.754L90.8802 111.803C91.0081 111.159 90.9422 110.492 90.691 109.886L90.46 109.982ZM90.635 111.754C90.5167 112.349 90.2245 112.896 89.7955 113.325L89.9723 113.501C90.4363 113.037 90.7522 112.446 90.8802 111.803L90.635 111.754ZM89.7955 113.325C89.3665 113.754 88.8198 114.046 88.2247 114.164L88.2734 114.409C88.9171 114.281 89.5083 113.966 89.9723 113.501L89.7955 113.325ZM88.2247 114.164C87.6296 114.282 87.0128 114.222 86.4523 113.989L86.3565 114.22C86.9627 114.471 87.6298 114.537 88.2734 114.409L88.2247 114.164ZM86.4523 113.989C85.8918 113.757 85.4128 113.364 85.0759 112.859L84.868 112.998C85.2323 113.543 85.7504 113.969 86.3565 114.22L86.4523 113.989ZM85.0759 112.859C84.739 112.354 84.5594 111.761 84.5598 111.154L84.3098 111.154C84.3094 111.81 84.5036 112.452 84.868 112.998L85.0759 112.859ZM84.5598 111.154C84.5598 110.752 84.639 110.353 84.7931 109.981L84.5621 109.886C84.3955 110.288 84.3098 110.719 84.3098 111.154H84.5598ZM84.7931 109.981C84.9471 109.609 85.1729 109.271 85.4575 108.987L85.2808 108.81C84.9729 109.118 84.7287 109.483 84.5621 109.886L84.7931 109.981ZM85.4575 108.987C85.7422 108.702 86.0801 108.476 86.452 108.322L86.3563 108.091C85.9541 108.258 85.5886 108.502 85.2808 108.81L85.4575 108.987ZM86.452 108.322C86.8239 108.168 87.2224 108.089 87.625 108.089V107.839C87.1896 107.839 86.7585 107.925 86.3563 108.091L86.452 108.322ZM87.6248 112.886C87.9674 112.886 88.3025 112.785 88.5875 112.595L88.4489 112.387C88.2049 112.55 87.9183 112.636 87.6251 112.636L87.6248 112.886ZM88.5875 112.595C88.8726 112.405 89.0949 112.135 89.2263 111.818L88.9954 111.722C88.883 111.993 88.6928 112.225 88.4489 112.387L88.5875 112.595ZM89.2263 111.818C89.3577 111.502 89.3922 111.154 89.3256 110.818L89.0804 110.866C89.1374 111.154 89.1078 111.452 88.9954 111.722L89.2263 111.818ZM89.3256 110.818C89.259 110.481 89.0942 110.173 88.8521 109.93L88.6752 110.107C88.8824 110.314 89.0234 110.579 89.0804 110.866L89.3256 110.818ZM88.8521 109.93C88.61 109.688 88.3014 109.523 87.9654 109.456L87.9165 109.701C88.204 109.758 88.468 109.9 88.6752 110.107L88.8521 109.93ZM87.9654 109.456C87.6294 109.389 87.281 109.423 86.9645 109.554L87.0601 109.785C87.331 109.673 87.629 109.644 87.9165 109.701L87.9654 109.456ZM86.9645 109.554C86.6479 109.685 86.3773 109.907 86.1869 110.192L86.3948 110.331C86.5577 110.087 86.7892 109.897 87.0601 109.785L86.9645 109.554ZM86.1869 110.192C85.9965 110.477 85.8949 110.812 85.8949 111.154H86.1449C86.1449 110.861 86.2318 110.574 86.3948 110.331L86.1869 110.192ZM85.8949 111.154C85.8946 111.381 85.9392 111.607 86.026 111.817L86.2571 111.721C86.1828 111.541 86.1447 111.349 86.1449 111.154L85.8949 111.154ZM86.026 111.817C86.1129 112.027 86.2403 112.218 86.4009 112.379L86.5778 112.202C86.4403 112.064 86.3314 111.901 86.2571 111.721L86.026 111.817ZM86.4009 112.379C86.5616 112.54 86.7524 112.667 86.9624 112.754L87.0582 112.523C86.8785 112.449 86.7153 112.34 86.5778 112.202L86.4009 112.379ZM86.9624 112.754C87.1725 112.841 87.3976 112.886 87.625 112.886V112.636C87.4305 112.636 87.2379 112.598 87.0582 112.523L86.9624 112.754ZM85.5108 111.154C85.5108 112.322 86.4574 113.268 87.625 113.268V113.018C86.5954 113.018 85.7608 112.184 85.7608 111.154H85.5108ZM87.625 113.268C88.7926 113.268 89.7391 112.322 89.7391 111.154H89.4891C89.4891 112.184 88.6545 113.018 87.625 113.018V113.268ZM89.7391 111.154C89.7391 109.987 88.7926 109.04 87.625 109.04V109.29C88.6545 109.29 89.4891 110.125 89.4891 111.154H89.7391ZM87.625 109.04C86.4574 109.04 85.5108 109.987 85.5108 111.154H85.7608C85.7608 110.125 86.5954 109.29 87.625 109.29V109.04ZM91.1623 110.2C90.9328 109.349 90.4047 108.61 89.6746 108.118L89.5348 108.325C90.215 108.784 90.7071 109.472 90.921 110.265L91.1623 110.2ZM89.6746 108.118C88.9446 107.625 88.0615 107.412 87.1871 107.517L87.217 107.766C88.0317 107.667 88.8546 107.866 89.5348 108.325L89.6746 108.118ZM87.1871 107.517C86.3127 107.623 85.5056 108.04 84.9137 108.692L85.0988 108.86C85.6503 108.252 86.4023 107.864 87.217 107.766L87.1871 107.517ZM84.9137 108.692C84.3217 109.344 83.9845 110.188 83.9638 111.068L84.2137 111.074C84.233 110.253 84.5472 109.467 85.0988 108.86L84.9137 108.692ZM84.1234 111.191L84.4749 111.09L84.4055 110.849L84.0541 110.951L84.1234 111.191ZM105.942 92.7311L110.096 110.847L110.339 110.791L106.185 92.6752L105.942 92.7311ZM110.095 110.847C110.122 110.963 110.101 111.086 110.037 111.187L110.248 111.321C110.347 111.163 110.38 110.973 110.339 110.792L110.095 110.847ZM110.037 111.187C109.973 111.289 109.871 111.361 109.755 111.387L109.811 111.631C109.992 111.59 110.149 111.478 110.248 111.321L110.037 111.187ZM109.755 111.387C109.638 111.414 109.516 111.393 109.414 111.329L109.281 111.54C109.438 111.639 109.629 111.672 109.81 111.631L109.755 111.387ZM109.414 111.329C109.313 111.265 109.241 111.163 109.214 111.047L108.971 111.102C109.012 111.284 109.124 111.441 109.281 111.54L109.414 111.329ZM109.214 111.047L105.149 92.9203L104.905 92.9751L108.97 111.102L109.214 111.047ZM105.056 93.0694L106.092 92.8248L106.035 92.5815L104.998 92.826L105.056 93.0694ZM109.543 110.876C109.544 110.858 109.55 110.841 109.56 110.827L109.358 110.681C109.318 110.735 109.296 110.8 109.294 110.867L109.543 110.876ZM109.56 110.827C109.57 110.813 109.585 110.802 109.601 110.796L109.515 110.561C109.452 110.585 109.397 110.626 109.358 110.681L109.56 110.827ZM109.601 110.796C109.618 110.79 109.636 110.789 109.653 110.793L109.712 110.55C109.646 110.534 109.578 110.538 109.515 110.561L109.601 110.796ZM109.653 110.793C109.67 110.797 109.686 110.806 109.698 110.819L109.882 110.65C109.836 110.601 109.777 110.566 109.712 110.55L109.653 110.793ZM109.698 110.819C109.709 110.832 109.717 110.848 109.72 110.866L109.967 110.828C109.957 110.761 109.927 110.7 109.882 110.65L109.698 110.819ZM109.72 110.866C109.723 110.883 109.72 110.901 109.712 110.917L109.939 111.023C109.967 110.962 109.977 110.894 109.967 110.828L109.72 110.866ZM109.712 110.917C109.705 110.933 109.693 110.946 109.678 110.955L109.806 111.17C109.864 111.135 109.91 111.084 109.939 111.023L109.712 110.917ZM109.678 110.955C109.663 110.964 109.645 110.969 109.628 110.968L109.615 111.217C109.682 111.221 109.749 111.204 109.806 111.17L109.678 110.955ZM109.627 110.968C109.615 110.967 109.604 110.965 109.594 110.96L109.488 111.186C109.528 111.205 109.572 111.216 109.616 111.218L109.627 110.968ZM109.594 110.96C109.583 110.955 109.574 110.948 109.566 110.94L109.382 111.109C109.412 111.141 109.448 111.168 109.488 111.186L109.594 110.96ZM109.566 110.94C109.558 110.931 109.552 110.921 109.549 110.911L109.314 110.996C109.329 111.038 109.352 111.076 109.382 111.109L109.566 110.94ZM109.549 110.911C109.545 110.9 109.543 110.888 109.543 110.877L109.294 110.866C109.292 110.91 109.298 110.955 109.314 110.996L109.549 110.911ZM105.537 92.8346L104.366 87.735L104.123 87.7909L105.293 92.8905L105.537 92.8346ZM104.278 87.8832L104.864 87.7184L104.796 87.4777L104.211 87.6426L104.278 87.8832ZM104.708 87.626L105.878 92.7257L106.122 92.6697L104.952 87.5701L104.708 87.626ZM106.188 87.0655C106.064 87.077 106.064 87.077 106.064 87.077C106.064 87.0771 106.064 87.0771 106.064 87.0771C106.064 87.0772 106.064 87.0773 106.064 87.0774C106.064 87.0777 106.064 87.0782 106.064 87.0789C106.064 87.0802 106.064 87.0822 106.065 87.0849C106.065 87.0903 106.066 87.0984 106.067 87.109C106.068 87.1304 106.071 87.1622 106.074 87.2033C106.08 87.2854 106.088 87.4049 106.095 87.5537C106.109 87.8512 106.121 88.265 106.111 88.7301C106.09 89.6649 105.981 90.7888 105.637 91.5942L105.867 91.6925C106.231 90.8403 106.34 89.6753 106.361 88.7356C106.371 88.2633 106.359 87.8435 106.345 87.5417C106.337 87.3907 106.329 87.2691 106.323 87.1851C106.32 87.1431 106.318 87.1105 106.316 87.0883C106.315 87.0772 106.314 87.0687 106.314 87.0629C106.313 87.06 106.313 87.0578 106.313 87.0563C106.313 87.0555 106.313 87.055 106.313 87.0546C106.313 87.0544 106.313 87.0542 106.313 87.0541C106.313 87.054 106.313 87.054 106.313 87.0539C106.313 87.0539 106.313 87.0539 106.188 87.0655ZM105.571 87.0021C105.467 87.0713 105.467 87.0713 105.467 87.0713C105.467 87.0713 105.467 87.0713 105.467 87.0713C105.467 87.0713 105.467 87.0714 105.467 87.0715C105.467 87.0716 105.467 87.0718 105.467 87.0721C105.468 87.0728 105.468 87.0737 105.469 87.0751C105.471 87.0777 105.473 87.0817 105.477 87.087C105.484 87.0976 105.494 87.1135 105.507 87.134C105.533 87.1751 105.571 87.235 105.616 87.3098C105.706 87.4594 105.826 87.6678 105.946 87.9033C106.066 88.1391 106.184 88.4002 106.272 88.6552C106.36 88.9119 106.414 89.1544 106.411 89.3556L106.661 89.3587C106.664 89.116 106.6 88.8423 106.508 88.5741C106.416 88.3044 106.292 88.0321 106.169 87.7901C106.046 87.5478 105.923 87.3339 105.83 87.1806C105.784 87.1039 105.745 87.0423 105.718 86.9997C105.704 86.9783 105.694 86.9618 105.686 86.9505C105.683 86.9448 105.68 86.9405 105.678 86.9375C105.677 86.936 105.676 86.9349 105.676 86.9341C105.675 86.9337 105.675 86.9334 105.675 86.9332C105.675 86.9331 105.675 86.933 105.675 86.9329C105.675 86.9329 105.675 86.9329 105.675 86.9328C105.675 86.9328 105.675 86.9328 105.571 87.0021ZM106.411 89.3556C106.406 89.7534 106.19 90.0788 105.96 90.3115C105.847 90.4269 105.733 90.5163 105.648 90.5769C105.605 90.607 105.57 90.6298 105.546 90.6449C105.534 90.6524 105.524 90.658 105.518 90.6616C105.515 90.6634 105.513 90.6647 105.511 90.6655C105.511 90.6659 105.51 90.6662 105.51 90.6663C105.51 90.6664 105.51 90.6664 105.51 90.6664C105.51 90.6664 105.51 90.6664 105.51 90.6664C105.51 90.6664 105.51 90.6664 105.51 90.6664C105.51 90.6664 105.51 90.6664 105.571 90.7756C105.631 90.8849 105.631 90.8848 105.631 90.8848C105.632 90.8848 105.632 90.8848 105.632 90.8847C105.632 90.8847 105.632 90.8846 105.632 90.8846C105.632 90.8845 105.632 90.8843 105.633 90.8841C105.633 90.8838 105.634 90.8832 105.635 90.8826C105.638 90.8813 105.641 90.8795 105.645 90.8772C105.653 90.8726 105.664 90.8659 105.678 90.8572C105.706 90.8398 105.745 90.8142 105.792 90.7807C105.886 90.714 106.012 90.6153 106.138 90.487C106.389 90.2324 106.655 89.8485 106.661 89.3587L106.411 89.3556ZM106.924 86.5546H105.649V86.8046H106.924V86.5546ZM105.649 86.5546C105.518 86.5546 105.413 86.66 105.413 86.7901H105.663C105.663 86.7981 105.657 86.8046 105.649 86.8046V86.5546ZM105.413 86.7901V86.955H105.663V86.7901H105.413ZM105.413 86.955C105.413 87.085 105.518 87.1905 105.649 87.1905V86.9405C105.657 86.9405 105.663 86.9469 105.663 86.955H105.413ZM105.649 87.1905H106.924V86.9405H105.649V87.1905ZM106.924 87.1905C107.054 87.1905 107.159 87.085 107.159 86.955H106.909C106.909 86.9469 106.916 86.9405 106.924 86.9405V87.1905ZM107.159 86.955V86.7901H106.909V86.955H107.159ZM107.159 86.7901C107.159 86.66 107.054 86.5546 106.924 86.5546V86.8046C106.916 86.8046 106.909 86.7981 106.909 86.7901H107.159ZM106.813 86.6716C106.812 86.6513 106.815 86.6309 106.823 86.6119L106.59 86.5197C106.569 86.573 106.56 86.6303 106.564 86.6876L106.813 86.6716ZM106.823 86.6119C106.83 86.593 106.842 86.576 106.857 86.5621L106.686 86.3793C106.644 86.4184 106.611 86.4664 106.59 86.5197L106.823 86.6119ZM106.857 86.5621C106.872 86.5482 106.889 86.5378 106.909 86.5316L106.833 86.2934C106.778 86.3108 106.728 86.3402 106.686 86.3793L106.857 86.5621ZM106.909 86.5316C106.928 86.5254 106.949 86.5236 106.969 86.5263L107.002 86.2785C106.945 86.2709 106.887 86.276 106.833 86.2934L106.909 86.5316ZM106.985 86.5274H107.697V86.2774H106.985V86.5274ZM107.572 86.4024V86.6796H107.822V86.4024H107.572ZM107.697 86.5546H106.688V86.8046H107.697V86.5546ZM104.37 87.9878L103.778 88.5313L103.947 88.7155L104.539 88.1721L104.37 87.9878ZM103.862 88.4984H103.85V88.7484H103.862V88.4984ZM103.777 88.522C103.73 88.5552 103.675 88.573 103.618 88.5727L103.617 88.8227C103.727 88.8232 103.834 88.789 103.923 88.7248L103.777 88.522ZM103.615 88.5727C103.556 88.574 103.499 88.5563 103.451 88.5223L103.306 88.7258C103.398 88.7912 103.508 88.8251 103.62 88.8227L103.615 88.5727ZM103.451 88.5223C103.404 88.4883 103.368 88.4397 103.35 88.3839L103.112 88.4601C103.146 88.5672 103.214 88.6605 103.306 88.7258L103.451 88.5223ZM103.35 88.3839C103.332 88.3281 103.333 88.268 103.352 88.2125L103.116 88.1311C103.079 88.2375 103.078 88.3529 103.112 88.4601L103.35 88.3839ZM103.352 88.2125C103.371 88.1571 103.408 88.1094 103.456 88.0764L103.316 87.8697C103.223 87.933 103.152 88.0247 103.116 88.1311L103.352 88.2125ZM103.469 88.0661L104.004 87.586L103.837 87.4L103.302 87.8801L103.469 88.0661ZM103.683 87.7629C103.683 88.0511 103.917 88.2847 104.205 88.2847V88.0347C104.055 88.0347 103.933 87.913 103.933 87.7629H103.683ZM104.205 88.2847C104.493 88.2847 104.726 88.0511 104.726 87.7629H104.476C104.476 87.913 104.355 88.0347 104.205 88.0347V88.2847ZM104.726 87.7629C104.726 87.4748 104.493 87.2412 104.205 87.2412V87.4912C104.355 87.4912 104.476 87.6128 104.476 87.7629H104.726ZM104.205 87.2412C103.917 87.2412 103.683 87.4748 103.683 87.7629H103.933C103.933 87.6128 104.055 87.4912 104.205 87.4912V87.2412ZM105.134 87.2514L104.543 87.8039L104.714 87.9864L105.305 87.4339L105.134 87.2514ZM104.629 87.7702H104.614V88.0202H104.629V87.7702ZM104.541 87.7937C104.483 87.8358 104.41 87.853 104.338 87.8413L104.298 88.0881C104.435 88.1104 104.575 88.0775 104.687 87.9967L104.541 87.7937ZM104.338 87.8413C104.267 87.8297 104.203 87.7902 104.161 87.7316L103.958 87.8776C104.039 87.99 104.161 88.0657 104.298 88.0881L104.338 87.8413ZM104.161 87.7316C104.119 87.673 104.102 87.6001 104.114 87.5288L103.867 87.4885C103.845 87.6252 103.877 87.7651 103.958 87.8776L104.161 87.7316ZM104.114 87.5288C104.125 87.4576 104.165 87.3939 104.223 87.3517L104.077 87.1488C103.965 87.2296 103.889 87.3518 103.867 87.4885L104.114 87.5288ZM104.235 87.3418L104.77 86.8455L104.6 86.6623L104.065 87.1587L104.235 87.3418ZM104.447 87.0238C104.447 87.3119 104.681 87.5455 104.969 87.5455V87.2955C104.819 87.2955 104.697 87.1739 104.697 87.0238H104.447ZM104.969 87.5455C105.257 87.5455 105.491 87.3119 105.491 87.0238H105.241C105.241 87.1739 105.119 87.2955 104.969 87.2955V87.5455ZM105.491 87.0238C105.491 86.7356 105.257 86.5021 104.969 86.5021V86.7521C105.119 86.7521 105.241 86.8737 105.241 87.0238H105.491ZM104.969 86.5021C104.681 86.5021 104.447 86.7356 104.447 87.0238H104.697C104.697 86.8737 104.819 86.7521 104.969 86.7521V86.5021ZM105.703 86.715L105.11 87.2675L105.281 87.4503L105.873 86.8978L105.703 86.715ZM105.196 87.2339H105.183V87.4839H105.196V87.2339ZM105.111 87.257C105.064 87.2904 105.007 87.3083 104.95 87.3082L104.949 87.5582C105.059 87.5584 105.166 87.5244 105.255 87.4608L105.111 87.257ZM104.947 87.3082C104.888 87.3095 104.831 87.2918 104.783 87.2578L104.638 87.4613C104.729 87.5267 104.84 87.5606 104.952 87.5582L104.947 87.3082ZM104.783 87.2578C104.735 87.2238 104.7 87.1752 104.682 87.1194L104.444 87.1956C104.478 87.3028 104.546 87.396 104.638 87.4613L104.783 87.2578ZM104.682 87.1194C104.664 87.0636 104.665 87.0035 104.684 86.9481L104.447 86.8666C104.411 86.973 104.409 87.0884 104.444 87.1956L104.682 87.1194ZM104.684 86.9481C104.703 86.8926 104.739 86.8449 104.788 86.8119L104.647 86.6052C104.554 86.6685 104.484 86.7602 104.447 86.8666L104.684 86.9481ZM104.802 86.8009L105.338 86.3118L105.169 86.1271L104.633 86.6162L104.802 86.8009ZM105.016 86.4876C105.016 86.7757 105.25 87.0093 105.538 87.0093V86.7593C105.388 86.7593 105.266 86.6376 105.266 86.4876H105.016ZM105.538 87.0093C105.826 87.0093 106.06 86.7757 106.06 86.4876H105.81C105.81 86.6376 105.688 86.7593 105.538 86.7593V87.0093ZM106.06 86.4876C106.06 86.1994 105.826 85.9658 105.538 85.9658V86.2158C105.688 86.2158 105.81 86.3375 105.81 86.4876H106.06ZM105.538 85.9658C105.25 85.9658 105.016 86.1994 105.016 86.4876H105.266C105.266 86.3375 105.388 86.2158 105.538 86.2158V85.9658ZM93.8529 112.116L94.2152 114.436L94.4622 114.398L94.0999 112.077L93.8529 112.116ZM94.3387 114.292H93.9166V114.542H94.3387V114.292ZM94.0399 114.396L93.7192 112.512L93.4728 112.554L93.7934 114.438L94.0399 114.396ZM93.596 112.533C93.6623 112.427 93.6623 112.427 93.6623 112.427C93.6623 112.427 93.6623 112.427 93.6623 112.427C93.6623 112.427 93.6623 112.427 93.6623 112.427C93.6623 112.427 93.6623 112.427 93.6622 112.427C93.6621 112.427 93.6619 112.427 93.6616 112.426C93.661 112.426 93.66 112.425 93.6587 112.425C93.6561 112.423 93.652 112.42 93.6468 112.417C93.6363 112.41 93.6212 112.4 93.6029 112.387C93.566 112.362 93.5173 112.326 93.4687 112.286C93.4195 112.245 93.3736 112.202 93.3404 112.161C93.3239 112.141 93.3124 112.123 93.3051 112.109C93.3015 112.102 93.2994 112.097 93.2981 112.093C93.2969 112.089 93.2968 112.087 93.2968 112.087L93.0474 112.105C93.0534 112.19 93.1026 112.265 93.1469 112.319C93.1944 112.377 93.2537 112.432 93.3089 112.478C93.3647 112.524 93.4196 112.564 93.4602 112.593C93.4806 112.607 93.4977 112.618 93.5098 112.626C93.5158 112.63 93.5206 112.633 93.524 112.635C93.5257 112.636 93.5271 112.637 93.528 112.638C93.5285 112.638 93.5289 112.638 93.5291 112.638C93.5293 112.639 93.5294 112.639 93.5295 112.639C93.5295 112.639 93.5296 112.639 93.5296 112.639C93.5296 112.639 93.5297 112.639 93.5297 112.639C93.5297 112.639 93.5297 112.639 93.596 112.533ZM87.3986 110.792H102.563V110.542H87.3986V110.792ZM102.438 110.667V112.096H102.688V110.667H102.438ZM102.563 111.971H87.3986V112.221H102.563V111.971ZM87.3923 111.971C87.3123 111.975 87.2324 111.963 87.1573 111.935L87.0704 112.17C87.1773 112.209 87.2911 112.227 87.4049 112.221L87.3923 111.971ZM87.1573 111.935C87.0822 111.908 87.0136 111.865 86.9556 111.81L86.7833 111.991C86.8659 112.069 86.9636 112.13 87.0704 112.17L87.1573 111.935ZM86.9556 111.81C86.8976 111.754 86.8514 111.688 86.8198 111.614L86.5901 111.713C86.635 111.818 86.7008 111.912 86.7833 111.991L86.9556 111.81ZM86.8198 111.614C86.7883 111.541 86.772 111.462 86.772 111.382H86.522C86.522 111.496 86.5452 111.608 86.5901 111.713L86.8198 111.614ZM86.772 111.382C86.772 111.302 86.7883 111.222 86.8198 111.149L86.5901 111.05C86.5452 111.155 86.522 111.268 86.522 111.382H86.772ZM86.8198 111.149C86.8514 111.075 86.8976 111.009 86.9556 110.954L86.7833 110.772C86.7008 110.851 86.635 110.945 86.5901 111.05L86.8198 111.149ZM86.9556 110.954C87.0136 110.898 87.0822 110.856 87.1573 110.828L87.0704 110.593C86.9636 110.633 86.8659 110.694 86.7833 110.772L86.9556 110.954ZM87.1573 110.828C87.2324 110.8 87.3123 110.788 87.3923 110.792L87.4049 110.542C87.2911 110.536 87.1773 110.554 87.0704 110.593L87.1573 110.828ZM102.563 112.221L102.795 112.221L102.795 111.971L102.563 111.971L102.563 112.221ZM102.795 112.221C103.481 112.222 104.141 111.955 104.634 111.478L104.46 111.298C104.014 111.73 103.417 111.972 102.795 111.971L102.795 112.221ZM104.636 111.476C104.763 111.348 104.878 111.207 104.978 111.056L104.769 110.919C104.678 111.056 104.574 111.183 104.459 111.3L104.636 111.476ZM104.977 111.058L108.136 106.411L107.929 106.271L104.77 110.917L104.977 111.058ZM107.529 104.669L103.973 109.914L104.18 110.054L107.736 104.81L107.529 104.669ZM103.971 109.916C103.882 110.053 103.779 110.18 103.662 110.295L103.838 110.473C103.967 110.346 104.082 110.204 104.181 110.052L103.971 109.916ZM103.651 110.308C103.522 110.474 103.358 110.609 103.169 110.702L103.28 110.926C103.502 110.816 103.697 110.657 103.849 110.461L103.651 110.308ZM103.169 110.702C102.98 110.795 102.773 110.844 102.563 110.844L102.564 111.094C102.812 111.093 103.057 111.036 103.28 110.926L103.169 110.702ZM90.6938 110.353H102.469V110.103H90.6938V110.353ZM102.461 110.353C102.789 110.375 103.115 110.285 103.386 110.098L103.244 109.892C103.02 110.047 102.75 110.122 102.477 110.104L102.461 110.353ZM103.389 110.095C103.596 109.944 103.89 109.611 104.125 109.328C104.245 109.185 104.352 109.05 104.429 108.951C104.468 108.902 104.499 108.862 104.521 108.834C104.531 108.82 104.54 108.809 104.546 108.801C104.548 108.797 104.551 108.794 104.552 108.792C104.553 108.791 104.553 108.791 104.554 108.79C104.554 108.79 104.554 108.79 104.554 108.79C104.554 108.79 104.554 108.79 104.554 108.789C104.554 108.789 104.554 108.789 104.554 108.789C104.554 108.789 104.554 108.789 104.455 108.714C104.355 108.639 104.355 108.639 104.355 108.639C104.355 108.639 104.355 108.639 104.355 108.639C104.355 108.639 104.355 108.639 104.355 108.639C104.355 108.639 104.355 108.639 104.355 108.639C104.354 108.64 104.354 108.64 104.353 108.641C104.352 108.643 104.349 108.646 104.347 108.649C104.341 108.657 104.333 108.667 104.322 108.681C104.301 108.709 104.27 108.749 104.232 108.797C104.156 108.895 104.05 109.027 103.933 109.168C103.694 109.456 103.419 109.763 103.241 109.894L103.389 110.095ZM104.384 108.817L104.717 109.047L104.859 108.841L104.526 108.611L104.384 108.817ZM108.154 106.881C108.05 106.812 108.05 106.812 108.05 106.812C108.05 106.812 108.05 106.812 108.05 106.812C108.05 106.812 108.05 106.812 108.05 106.812C108.049 106.812 108.049 106.812 108.049 106.812C108.049 106.813 108.049 106.813 108.048 106.814C108.047 106.816 108.045 106.819 108.043 106.822C108.038 106.829 108.031 106.84 108.021 106.853C108.003 106.88 107.975 106.92 107.939 106.968C107.868 107.063 107.767 107.193 107.647 107.328C107.401 107.604 107.094 107.881 106.81 107.966L106.882 108.205C107.239 108.098 107.586 107.772 107.834 107.494C107.96 107.352 108.066 107.216 108.14 107.116C108.177 107.066 108.207 107.025 108.227 106.996C108.237 106.981 108.245 106.97 108.25 106.962C108.253 106.958 108.255 106.955 108.256 106.953C108.257 106.952 108.257 106.951 108.258 106.95C108.258 106.95 108.258 106.95 108.258 106.95C108.258 106.95 108.258 106.95 108.258 106.95C108.258 106.949 108.258 106.949 108.258 106.949C108.258 106.949 108.258 106.949 108.154 106.881ZM108.075 107.008C107.952 107.332 107.751 107.621 107.49 107.849L107.655 108.038C107.946 107.782 108.171 107.459 108.309 107.097L108.075 107.008ZM107.49 107.849C107.229 108.078 106.916 108.238 106.578 108.317L106.635 108.56C107.013 108.472 107.363 108.293 107.655 108.038L107.49 107.849Z" fill="#16002C"/>
<path d="M58.156 184.288C56.924 184.288 55.86 184.072 54.964 183.64C54.084 183.208 53.388 182.616 52.876 181.864C52.38 181.096 52.092 180.232 52.012 179.272H55.012C55.156 179.96 55.508 180.536 56.068 181C56.628 181.448 57.324 181.672 58.156 181.672C59.052 181.672 59.78 181.344 60.34 180.688C60.916 180.032 61.204 179.216 61.204 178.24C61.204 177.232 60.916 176.432 60.34 175.84C59.78 175.248 59.068 174.952 58.204 174.952C57.484 174.952 56.86 175.128 56.332 175.48C55.804 175.832 55.428 176.272 55.204 176.8H52.252L53.692 167.2H63.004V169.888H55.996L55.228 173.776C55.58 173.392 56.06 173.08 56.668 172.84C57.276 172.584 57.956 172.456 58.708 172.456C59.908 172.456 60.908 172.728 61.708 173.272C62.508 173.8 63.116 174.504 63.532 175.384C63.948 176.248 64.156 177.192 64.156 178.216C64.156 179.384 63.9 180.424 63.388 181.336C62.892 182.248 62.188 182.968 61.276 183.496C60.38 184.024 59.34 184.288 58.156 184.288ZM73.6388 184.288C72.0868 184.288 70.7588 183.928 69.6548 183.208C68.5508 182.472 67.6948 181.456 67.0868 180.16C66.4948 178.848 66.1988 177.328 66.1988 175.6C66.1988 173.888 66.4948 172.376 67.0868 171.064C67.6948 169.752 68.5508 168.736 69.6548 168.016C70.7588 167.28 72.0868 166.912 73.6388 166.912C75.1908 166.912 76.5188 167.28 77.6228 168.016C78.7268 168.736 79.5748 169.752 80.1668 171.064C80.7748 172.376 81.0788 173.888 81.0788 175.6C81.0788 177.328 80.7748 178.848 80.1668 180.16C79.5748 181.456 78.7268 182.472 77.6228 183.208C76.5188 183.928 75.1908 184.288 73.6388 184.288ZM73.6388 181.528C74.9028 181.528 75.9348 181 76.7348 179.944C77.5348 178.888 77.9348 177.44 77.9348 175.6C77.9348 173.76 77.5348 172.312 76.7348 171.256C75.9348 170.2 74.9028 169.672 73.6388 169.672C72.3588 169.672 71.3188 170.2 70.5188 171.256C69.7348 172.312 69.3428 173.76 69.3428 175.6C69.3428 177.44 69.7348 178.888 70.5188 179.944C71.3188 181 72.3588 181.528 73.6388 181.528ZM90.4139 184.288C88.8619 184.288 87.5339 183.928 86.4299 183.208C85.3259 182.472 84.4699 181.456 83.8619 180.16C83.2699 178.848 82.9739 177.328 82.9739 175.6C82.9739 173.888 83.2699 172.376 83.8619 171.064C84.4699 169.752 85.3259 168.736 86.4299 168.016C87.5339 167.28 88.8619 166.912 90.4139 166.912C91.9659 166.912 93.2939 167.28 94.3979 168.016C95.5019 168.736 96.3499 169.752 96.9419 171.064C97.5499 172.376 97.8539 173.888 97.8539 175.6C97.8539 177.328 97.5499 178.848 96.9419 180.16C96.3499 181.456 95.5019 182.472 94.3979 183.208C93.2939 183.928 91.9659 184.288 90.4139 184.288ZM90.4139 181.528C91.6779 181.528 92.7099 181 93.5099 179.944C94.3099 178.888 94.7099 177.44 94.7099 175.6C94.7099 173.76 94.3099 172.312 93.5099 171.256C92.7099 170.2 91.6779 169.672 90.4139 169.672C89.1339 169.672 88.0939 170.2 87.2939 171.256C86.5099 172.312 86.1179 173.76 86.1179 175.6C86.1179 177.44 86.5099 178.888 87.2939 179.944C88.0939 181 89.1339 181.528 90.4139 181.528Z" fill="#16002C"/>
<path d="M23.252 219.192C22.4947 219.192 21.812 219.021 21.204 218.68C20.6067 218.328 20.132 217.843 19.78 217.224C19.4387 216.595 19.268 215.864 19.268 215.032C19.268 214.2 19.4387 213.475 19.78 212.856C20.132 212.227 20.6067 211.741 21.204 211.4C21.812 211.048 22.4947 210.872 23.252 210.872C24.1907 210.872 24.98 211.117 25.62 211.608C26.2707 212.099 26.6813 212.755 26.852 213.576H25.476C25.3693 213.085 25.108 212.707 24.692 212.44C24.276 212.163 23.7907 212.024 23.236 212.024C22.788 212.024 22.3667 212.136 21.972 212.36C21.5773 212.584 21.2573 212.92 21.012 213.368C20.7667 213.816 20.644 214.371 20.644 215.032C20.644 215.693 20.7667 216.248 21.012 216.696C21.2573 217.144 21.5773 217.485 21.972 217.72C22.3667 217.944 22.788 218.056 23.236 218.056C23.7907 218.056 24.276 217.923 24.692 217.656C25.108 217.379 25.3693 216.989 25.476 216.488H26.852C26.692 217.288 26.2867 217.939 25.636 218.44C24.9853 218.941 24.1907 219.192 23.252 219.192ZM29.369 209.304C29.1023 209.304 28.8783 209.219 28.697 209.048C28.5263 208.867 28.441 208.643 28.441 208.376C28.441 208.12 28.5263 207.907 28.697 207.736C28.8783 207.565 29.1023 207.48 29.369 207.48C29.625 207.48 29.8437 207.565 30.025 207.736C30.2063 207.907 30.297 208.12 30.297 208.376C30.297 208.643 30.2063 208.867 30.025 209.048C29.8437 209.219 29.625 209.304 29.369 209.304ZM28.697 219V211.064H30.041V219H28.697ZM35.8051 219.192C35.0158 219.192 34.3225 219.011 33.7251 218.648C33.1385 218.285 32.6798 217.789 32.3491 217.16C32.0291 216.531 31.8691 215.816 31.8691 215.016C31.8691 214.216 32.0345 213.507 32.3651 212.888C32.6958 212.259 33.1545 211.768 33.7411 211.416C34.3278 211.053 35.0211 210.872 35.8211 210.872C36.4718 210.872 37.0478 211.005 37.5491 211.272C38.0505 211.539 38.4398 211.912 38.7171 212.392V207.48H40.0611V219H38.8451L38.7171 217.688C38.4611 218.072 38.0931 218.419 37.6131 218.728C37.1331 219.037 36.5305 219.192 35.8051 219.192ZM35.9491 218.024C36.4825 218.024 36.9518 217.901 37.3571 217.656C37.7731 217.4 38.0931 217.048 38.3171 216.6C38.5518 216.152 38.6691 215.629 38.6691 215.032C38.6691 214.435 38.5518 213.912 38.3171 213.464C38.0931 213.016 37.7731 212.669 37.3571 212.424C36.9518 212.168 36.4825 212.04 35.9491 212.04C35.4265 212.04 34.9571 212.168 34.5411 212.424C34.1358 212.669 33.8158 213.016 33.5811 213.464C33.3571 213.912 33.2451 214.435 33.2451 215.032C33.2451 215.629 33.3571 216.152 33.5811 216.6C33.8158 217.048 34.1358 217.4 34.5411 217.656C34.9571 217.901 35.4265 218.024 35.9491 218.024ZM44.716 219.192C44.0547 219.192 43.5053 219.08 43.068 218.856C42.6307 218.632 42.3053 218.333 42.092 217.96C41.8787 217.587 41.772 217.181 41.772 216.744C41.772 215.933 42.0813 215.309 42.7 214.872C43.3187 214.435 44.1613 214.216 45.228 214.216H47.372V214.12C47.372 213.427 47.1907 212.904 46.828 212.552C46.4653 212.189 45.98 212.008 45.372 212.008C44.8493 212.008 44.396 212.141 44.012 212.408C43.6387 212.664 43.404 213.043 43.308 213.544H41.932C41.9853 212.968 42.1773 212.483 42.508 212.088C42.8493 211.693 43.2707 211.395 43.772 211.192C44.2733 210.979 44.8067 210.872 45.372 210.872C46.4813 210.872 47.3133 211.171 47.868 211.768C48.4333 212.355 48.716 213.139 48.716 214.12V219H47.516L47.436 217.576C47.212 218.024 46.8813 218.408 46.444 218.728C46.0173 219.037 45.4413 219.192 44.716 219.192ZM44.924 218.056C45.436 218.056 45.8733 217.923 46.236 217.656C46.6093 217.389 46.892 217.043 47.084 216.616C47.276 216.189 47.372 215.741 47.372 215.272V215.256H45.34C44.5507 215.256 43.9907 215.395 43.66 215.672C43.34 215.939 43.18 216.275 43.18 216.68C43.18 217.096 43.3293 217.432 43.628 217.688C43.9373 217.933 44.3693 218.056 44.924 218.056ZM54.1562 219.192C53.3669 219.192 52.6736 219.011 52.0762 218.648C51.4896 218.285 51.0309 217.789 50.7002 217.16C50.3802 216.531 50.2202 215.816 50.2202 215.016C50.2202 214.216 50.3856 213.507 50.7162 212.888C51.0469 212.259 51.5056 211.768 52.0922 211.416C52.6789 211.053 53.3722 210.872 54.1722 210.872C54.8229 210.872 55.3989 211.005 55.9002 211.272C56.4016 211.539 56.7909 211.912 57.0682 212.392V207.48H58.4122V219H57.1962L57.0682 217.688C56.8122 218.072 56.4442 218.419 55.9642 218.728C55.4842 219.037 54.8816 219.192 54.1562 219.192ZM54.3002 218.024C54.8336 218.024 55.3029 217.901 55.7083 217.656C56.1242 217.4 56.4442 217.048 56.6683 216.6C56.9029 216.152 57.0202 215.629 57.0202 215.032C57.0202 214.435 56.9029 213.912 56.6683 213.464C56.4442 213.016 56.1242 212.669 55.7083 212.424C55.3029 212.168 54.8336 212.04 54.3002 212.04C53.7776 212.04 53.3082 212.168 52.8922 212.424C52.4869 212.669 52.1669 213.016 51.9322 213.464C51.7082 213.912 51.5962 214.435 51.5962 215.032C51.5962 215.629 51.7082 216.152 51.9322 216.6C52.1669 217.048 52.4869 217.4 52.8922 217.656C53.3082 217.901 53.7776 218.024 54.3002 218.024ZM63.9951 219.192C63.2378 219.192 62.5658 219.021 61.9791 218.68C61.3925 218.328 60.9285 217.843 60.5871 217.224C60.2565 216.605 60.0911 215.875 60.0911 215.032C60.0911 214.2 60.2565 213.475 60.5871 212.856C60.9178 212.227 61.3765 211.741 61.9631 211.4C62.5605 211.048 63.2485 210.872 64.0271 210.872C64.7951 210.872 65.4565 211.048 66.0111 211.4C66.5765 211.741 67.0085 212.195 67.3071 212.76C67.6058 213.325 67.7551 213.933 67.7551 214.584C67.7551 214.701 67.7498 214.819 67.7391 214.936C67.7391 215.053 67.7391 215.187 67.7391 215.336H61.4191C61.4511 215.944 61.5898 216.451 61.8351 216.856C62.0911 217.251 62.4058 217.549 62.7791 217.752C63.1631 217.955 63.5685 218.056 63.9951 218.056C64.5498 218.056 65.0138 217.928 65.3871 217.672C65.7605 217.416 66.0325 217.069 66.2031 216.632H67.5311C67.3178 217.368 66.9071 217.981 66.2991 218.472C65.7018 218.952 64.9338 219.192 63.9951 219.192ZM63.9951 212.008C63.3551 212.008 62.7845 212.205 62.2831 212.6C61.7925 212.984 61.5098 213.549 61.4351 214.296H66.4271C66.3951 213.581 66.1498 213.021 65.6911 212.616C65.2325 212.211 64.6671 212.008 63.9951 212.008ZM72.4005 219.192C71.4512 219.192 70.6618 218.952 70.0325 218.472C69.4032 217.992 69.0352 217.341 68.9285 216.52H70.3045C70.3898 216.936 70.6085 217.299 70.9605 217.608C71.3232 217.907 71.8085 218.056 72.4165 218.056C72.9818 218.056 73.3978 217.939 73.6645 217.704C73.9312 217.459 74.0645 217.171 74.0645 216.84C74.0645 216.36 73.8885 216.04 73.5365 215.88C73.1952 215.72 72.7098 215.576 72.0805 215.448C71.6538 215.363 71.2272 215.24 70.8005 215.08C70.3738 214.92 70.0165 214.696 69.7285 214.408C69.4405 214.109 69.2965 213.72 69.2965 213.24C69.2965 212.547 69.5525 211.981 70.0645 211.544C70.5872 211.096 71.2912 210.872 72.1765 210.872C73.0192 210.872 73.7072 211.085 74.2405 211.512C74.7845 211.928 75.0992 212.525 75.1845 213.304H73.8565C73.8032 212.899 73.6272 212.584 73.3285 212.36C73.0405 212.125 72.6512 212.008 72.1605 212.008C71.6805 212.008 71.3072 212.109 71.0405 212.312C70.7845 212.515 70.6565 212.781 70.6565 213.112C70.6565 213.432 70.8218 213.683 71.1525 213.864C71.4938 214.045 71.9525 214.2 72.5285 214.328C73.0192 214.435 73.4832 214.568 73.9205 214.728C74.3685 214.877 74.7312 215.107 75.0085 215.416C75.2965 215.715 75.4405 216.152 75.4405 216.728C75.4512 217.443 75.1792 218.035 74.6245 218.504C74.0805 218.963 73.3392 219.192 72.4005 219.192ZM81.6749 219V212.2H80.4749V211.064H81.6749V209.688C81.6749 208.92 81.8669 208.36 82.2509 208.008C82.6349 207.656 83.1949 207.48 83.9309 207.48H84.7309V208.632H84.1389C83.7335 208.632 83.4455 208.717 83.2749 208.888C83.1042 209.048 83.0189 209.325 83.0189 209.72V211.064H87.9469V219H86.6029V212.2H83.0189V219H81.6749ZM87.2909 209.544C87.0349 209.544 86.8162 209.459 86.6349 209.288C86.4535 209.107 86.3629 208.883 86.3629 208.616C86.3629 208.36 86.4535 208.147 86.6349 207.976C86.8162 207.805 87.0349 207.72 87.2909 207.72C87.5575 207.72 87.7762 207.805 87.9469 207.976C88.1282 208.147 88.2189 208.36 88.2189 208.616C88.2189 208.883 88.1282 209.107 87.9469 209.288C87.7762 209.459 87.5575 209.544 87.2909 209.544ZM90.145 219V207.48H91.489V219H90.145ZM94.3319 209.304C94.0652 209.304 93.8412 209.219 93.6599 209.048C93.4892 208.867 93.4039 208.643 93.4039 208.376C93.4039 208.12 93.4892 207.907 93.6599 207.736C93.8412 207.565 94.0652 207.48 94.3319 207.48C94.5879 207.48 94.8065 207.565 94.9879 207.736C95.1692 207.907 95.2599 208.12 95.2599 208.376C95.2599 208.643 95.1692 208.867 94.9879 209.048C94.8065 209.219 94.5879 209.304 94.3319 209.304ZM93.6599 219V211.064H95.0039V219H93.6599ZM99.808 219.192C99.1467 219.192 98.5973 219.08 98.16 218.856C97.7227 218.632 97.3973 218.333 97.184 217.96C96.9707 217.587 96.864 217.181 96.864 216.744C96.864 215.933 97.1733 215.309 97.792 214.872C98.4107 214.435 99.2533 214.216 100.32 214.216H102.464V214.12C102.464 213.427 102.283 212.904 101.92 212.552C101.557 212.189 101.072 212.008 100.464 212.008C99.9413 212.008 99.488 212.141 99.104 212.408C98.7307 212.664 98.496 213.043 98.4 213.544H97.024C97.0773 212.968 97.2693 212.483 97.6 212.088C97.9413 211.693 98.3627 211.395 98.864 211.192C99.3653 210.979 99.8987 210.872 100.464 210.872C101.573 210.872 102.405 211.171 102.96 211.768C103.525 212.355 103.808 213.139 103.808 214.12V219H102.608L102.528 217.576C102.304 218.024 101.973 218.408 101.536 218.728C101.109 219.037 100.533 219.192 99.808 219.192ZM100.016 218.056C100.528 218.056 100.965 217.923 101.328 217.656C101.701 217.389 101.984 217.043 102.176 216.616C102.368 216.189 102.464 215.741 102.464 215.272V215.256H100.432C99.6427 215.256 99.0827 215.395 98.752 215.672C98.432 215.939 98.272 216.275 98.272 216.68C98.272 217.096 98.4213 217.432 98.72 217.688C99.0293 217.933 99.4613 218.056 100.016 218.056ZM109.248 219.192C108.459 219.192 107.766 219.011 107.168 218.648C106.582 218.285 106.123 217.789 105.792 217.16C105.472 216.531 105.312 215.816 105.312 215.016C105.312 214.216 105.478 213.507 105.808 212.888C106.139 212.259 106.598 211.768 107.184 211.416C107.771 211.053 108.464 210.872 109.264 210.872C109.915 210.872 110.491 211.005 110.992 211.272C111.494 211.539 111.883 211.912 112.16 212.392V207.48H113.504V219H112.288L112.16 217.688C111.904 218.072 111.536 218.419 111.056 218.728C110.576 219.037 109.974 219.192 109.248 219.192ZM109.392 218.024C109.926 218.024 110.395 217.901 110.8 217.656C111.216 217.4 111.536 217.048 111.76 216.6C111.995 216.152 112.112 215.629 112.112 215.032C112.112 214.435 111.995 213.912 111.76 213.464C111.536 213.016 111.216 212.669 110.8 212.424C110.395 212.168 109.926 212.04 109.392 212.04C108.87 212.04 108.4 212.168 107.984 212.424C107.579 212.669 107.259 213.016 107.024 213.464C106.8 213.912 106.688 214.435 106.688 215.032C106.688 215.629 106.8 216.152 107.024 216.6C107.259 217.048 107.579 217.4 107.984 217.656C108.4 217.901 108.87 218.024 109.392 218.024ZM118.159 219.192C117.498 219.192 116.948 219.08 116.511 218.856C116.074 218.632 115.748 218.333 115.535 217.96C115.322 217.587 115.215 217.181 115.215 216.744C115.215 215.933 115.524 215.309 116.143 214.872C116.762 214.435 117.604 214.216 118.671 214.216H120.815V214.12C120.815 213.427 120.634 212.904 120.271 212.552C119.908 212.189 119.423 212.008 118.815 212.008C118.292 212.008 117.839 212.141 117.455 212.408C117.082 212.664 116.847 213.043 116.751 213.544H115.375C115.428 212.968 115.62 212.483 115.951 212.088C116.292 211.693 116.714 211.395 117.215 211.192C117.716 210.979 118.25 210.872 118.815 210.872C119.924 210.872 120.756 211.171 121.311 211.768C121.876 212.355 122.159 213.139 122.159 214.12V219H120.959L120.879 217.576C120.655 218.024 120.324 218.408 119.887 218.728C119.46 219.037 118.884 219.192 118.159 219.192ZM118.367 218.056C118.879 218.056 119.316 217.923 119.679 217.656C120.052 217.389 120.335 217.043 120.527 216.616C120.719 216.189 120.815 215.741 120.815 215.272V215.256H118.783C117.994 215.256 117.434 215.395 117.103 215.672C116.783 215.939 116.623 216.275 116.623 216.68C116.623 217.096 116.772 217.432 117.071 217.688C117.38 217.933 117.812 218.056 118.367 218.056ZM127.039 219.192C126.09 219.192 125.301 218.952 124.671 218.472C124.042 217.992 123.674 217.341 123.567 216.52H124.943C125.029 216.936 125.247 217.299 125.599 217.608C125.962 217.907 126.447 218.056 127.055 218.056C127.621 218.056 128.037 217.939 128.303 217.704C128.57 217.459 128.703 217.171 128.703 216.84C128.703 216.36 128.527 216.04 128.175 215.88C127.834 215.72 127.349 215.576 126.719 215.448C126.293 215.363 125.866 215.24 125.439 215.08C125.013 214.92 124.655 214.696 124.367 214.408C124.079 214.109 123.935 213.72 123.935 213.24C123.935 212.547 124.191 211.981 124.703 211.544C125.226 211.096 125.93 210.872 126.815 210.872C127.658 210.872 128.346 211.085 128.879 211.512C129.423 211.928 129.738 212.525 129.823 213.304H128.495C128.442 212.899 128.266 212.584 127.967 212.36C127.679 212.125 127.29 212.008 126.799 212.008C126.319 212.008 125.946 212.109 125.679 212.312C125.423 212.515 125.295 212.781 125.295 213.112C125.295 213.432 125.461 213.683 125.791 213.864C126.133 214.045 126.591 214.2 127.167 214.328C127.658 214.435 128.122 214.568 128.559 214.728C129.007 214.877 129.37 215.107 129.647 215.416C129.935 215.715 130.079 216.152 130.079 216.728C130.09 217.443 129.818 218.035 129.263 218.504C128.719 218.963 127.978 219.192 127.039 219.192Z" fill="#16002C"/>
</svg>
