<svg width="17" height="14" viewBox="0 0 17 14" fill="none" xmlns="http://www.w3.org/2000/svg">
<path d="M16 1.16237C15.3471 1.62293 14.6242 1.97518 13.8591 2.20556C13.4485 1.7334 12.9027 1.39875 12.2957 1.24687C11.6887 1.09498 11.0497 1.13319 10.4651 1.35632C9.88045 1.57945 9.37848 1.97674 9.02703 2.49445C8.67558 3.01217 8.49161 3.62533 8.5 4.25101V4.93283C7.3018 4.9639 6.11451 4.69816 5.04387 4.15927C3.97323 3.62038 3.05249 2.82508 2.36364 1.84419C2.36364 1.84419 -0.363636 7.98056 5.77273 10.7078C4.36854 11.661 2.69579 12.1389 1 12.0715C7.13636 15.4806 14.6364 12.0715 14.6364 4.23056C14.6357 4.04064 14.6175 3.85119 14.5818 3.66465C15.2777 2.97839 15.7687 2.11195 16 1.16237Z" stroke="white" stroke-linecap="round" stroke-linejoin="round"/>
</svg>
