<svg width="17" height="16" viewBox="0 0 17 16" fill="none" xmlns="http://www.w3.org/2000/svg">
<path d="M11.5 5.6477C12.6935 5.6477 13.8381 6.12181 14.682 6.96572C15.5259 7.80964 16 8.95423 16 10.1477V15.3977H13V10.1477C13 9.74988 12.842 9.36835 12.5607 9.08704C12.2794 8.80574 11.8978 8.6477 11.5 8.6477C11.1022 8.6477 10.7206 8.80574 10.4393 9.08704C10.158 9.36835 10 9.74988 10 10.1477V15.3977H7V10.1477C7 8.95423 7.47411 7.80964 8.31802 6.96572C9.16193 6.12181 10.3065 5.6477 11.5 5.6477Z" stroke="white" stroke-linecap="round" stroke-linejoin="round"/>
<path d="M4 6.3977H1V15.3977H4V6.3977Z" stroke="white" stroke-linecap="round" stroke-linejoin="round"/>
<path d="M2.5 4.1477C3.32843 4.1477 4 3.47613 4 2.6477C4 1.81928 3.32843 1.14771 2.5 1.14771C1.67157 1.14771 1 1.81928 1 2.6477C1 3.47613 1.67157 4.1477 2.5 4.1477Z" stroke="white" stroke-linecap="round" stroke-linejoin="round"/>
</svg>
