<svg width="16" height="16" viewBox="0 0 16 16" fill="none" xmlns="http://www.w3.org/2000/svg">
<path d="M11.85 4.42271H11.857M4.5 1.27271H11.5C13.433 1.27271 15 2.83971 15 4.77271V11.7727C15 13.7057 13.433 15.2727 11.5 15.2727H4.5C2.567 15.2727 1 13.7057 1 11.7727V4.77271C1 2.83971 2.567 1.27271 4.5 1.27271ZM10.8 7.8317C10.8864 8.41428 10.7869 9.00926 10.5156 9.53202C10.2444 10.0548 9.8152 10.4787 9.28914 10.7435C8.76307 11.0083 8.16691 11.1004 7.58545 11.0069C7.00399 10.9133 6.46683 10.6388 6.05039 10.2223C5.63394 9.80587 5.35941 9.26872 5.26585 8.68725C5.17228 8.10579 5.26445 7.50963 5.52923 6.98357C5.79401 6.4575 6.21793 6.02832 6.74069 5.75707C7.26345 5.48582 7.85843 5.38632 8.441 5.47271C9.03525 5.56082 9.5854 5.83773 10.0102 6.26252C10.435 6.68731 10.7119 7.23746 10.8 7.8317Z" stroke="white" stroke-linecap="round" stroke-linejoin="round"/>
</svg>
