<svg width="256" height="39" viewBox="0 0 256 39" fill="none" xmlns="http://www.w3.org/2000/svg">
<circle cx="12" cy="19.5" r="10.5" fill="#FE6713" stroke="black" stroke-width="3"/>
<path d="M42.176 31.512C40.32 31.512 38.5067 31.3093 36.736 30.904C34.9867 30.4773 33.5467 29.912 32.416 29.208L34.848 23.704C35.9147 24.3227 37.1093 24.824 38.432 25.208C39.7547 25.5707 41.024 25.752 42.24 25.752C43.2853 25.752 44.032 25.656 44.48 25.464C44.928 25.2507 45.152 24.9413 45.152 24.536C45.152 24.0667 44.8533 23.7147 44.256 23.48C43.68 23.2453 42.72 22.9893 41.376 22.712C39.648 22.3493 38.208 21.9653 37.056 21.56C35.904 21.1333 34.9013 20.4507 34.048 19.512C33.1947 18.552 32.768 17.2613 32.768 15.64C32.768 14.232 33.1627 12.952 33.952 11.8C34.7413 10.648 35.9147 9.74133 37.472 9.08C39.0507 8.41867 40.96 8.088 43.2 8.088C44.736 8.088 46.24 8.25867 47.712 8.6C49.2053 8.92 50.5173 9.4 51.648 10.04L49.376 15.512C47.1787 14.4027 45.0987 13.848 43.136 13.848C41.1947 13.848 40.224 14.3173 40.224 15.256C40.224 15.704 40.512 16.0453 41.088 16.28C41.664 16.4933 42.6133 16.728 43.936 16.984C45.6427 17.304 47.0827 17.6773 48.256 18.104C49.4293 18.5093 50.4427 19.1813 51.296 20.12C52.1707 21.0587 52.608 22.3387 52.608 23.96C52.608 25.368 52.2133 26.648 51.424 27.8C50.6347 28.9307 49.4507 29.8373 47.872 30.52C46.3147 31.1813 44.416 31.512 42.176 31.512ZM64.0393 31.32C62.0553 31.32 60.2739 30.936 58.6953 30.168C57.1379 29.4 55.9113 28.3227 55.0153 26.936C54.1406 25.5493 53.7033 23.9813 53.7033 22.232C53.7033 20.4827 54.1406 18.9253 55.0153 17.56C55.9113 16.1733 57.1379 15.096 58.6953 14.328C60.2739 13.56 62.0553 13.176 64.0393 13.176C66.1726 13.176 67.9966 13.6347 69.5113 14.552C71.0259 15.4693 72.0713 16.7387 72.6473 18.36L67.0473 21.112C66.3646 19.576 65.3513 18.808 64.0073 18.808C63.1539 18.808 62.4393 19.1067 61.8633 19.704C61.3086 20.3013 61.0312 21.144 61.0312 22.232C61.0312 23.3413 61.3086 24.1947 61.8633 24.792C62.4393 25.3893 63.1539 25.688 64.0073 25.688C65.3513 25.688 66.3646 24.92 67.0473 23.384L72.6473 26.136C72.0713 27.7573 71.0259 29.0267 69.5113 29.944C67.9966 30.8613 66.1726 31.32 64.0393 31.32ZM83.4105 31.32C81.4692 31.32 79.7198 30.936 78.1625 30.168C76.6265 29.3787 75.4212 28.3013 74.5465 26.936C73.6718 25.5493 73.2345 23.9813 73.2345 22.232C73.2345 20.4827 73.6718 18.9253 74.5465 17.56C75.4212 16.1733 76.6265 15.096 78.1625 14.328C79.7198 13.56 81.4692 13.176 83.4105 13.176C85.3732 13.176 87.1225 13.56 88.6585 14.328C90.2158 15.096 91.4212 16.1733 92.2745 17.56C93.1492 18.9253 93.5865 20.4827 93.5865 22.232C93.5865 23.9813 93.1492 25.5493 92.2745 26.936C91.4212 28.3013 90.2158 29.3787 88.6585 30.168C87.1225 30.936 85.3732 31.32 83.4105 31.32ZM83.4105 25.688C84.2425 25.688 84.9252 25.3893 85.4585 24.792C85.9918 24.1733 86.2585 23.32 86.2585 22.232C86.2585 21.144 85.9918 20.3013 85.4585 19.704C84.9252 19.1067 84.2425 18.808 83.4105 18.808C82.5785 18.808 81.8958 19.1067 81.3625 19.704C80.8292 20.3013 80.5625 21.144 80.5625 22.232C80.5625 23.32 80.8292 24.1733 81.3625 24.792C81.8958 25.3893 82.5785 25.688 83.4105 25.688ZM105.098 31.32C103.157 31.32 101.407 30.936 99.85 30.168C98.314 29.3787 97.1087 28.3013 96.234 26.936C95.3593 25.5493 94.922 23.9813 94.922 22.232C94.922 20.4827 95.3593 18.9253 96.234 17.56C97.1087 16.1733 98.314 15.096 99.85 14.328C101.407 13.56 103.157 13.176 105.098 13.176C107.061 13.176 108.81 13.56 110.346 14.328C111.903 15.096 113.109 16.1733 113.962 17.56C114.837 18.9253 115.274 20.4827 115.274 22.232C115.274 23.9813 114.837 25.5493 113.962 26.936C113.109 28.3013 111.903 29.3787 110.346 30.168C108.81 30.936 107.061 31.32 105.098 31.32ZM105.098 25.688C105.93 25.688 106.613 25.3893 107.146 24.792C107.679 24.1733 107.946 23.32 107.946 22.232C107.946 21.144 107.679 20.3013 107.146 19.704C106.613 19.1067 105.93 18.808 105.098 18.808C104.266 18.808 103.583 19.1067 103.05 19.704C102.517 20.3013 102.25 21.144 102.25 22.232C102.25 23.32 102.517 24.1733 103.05 24.792C103.583 25.3893 104.266 25.688 105.098 25.688ZM130.434 30.392C129.346 31.0107 127.863 31.32 125.986 31.32C123.532 31.32 121.644 30.7333 120.322 29.56C118.999 28.3653 118.338 26.584 118.338 24.216V19.736H115.938V14.456H118.338V9.56H125.57V14.456H129.154V19.736H125.57V24.152C125.57 24.6853 125.708 25.1013 125.986 25.4C126.263 25.6987 126.626 25.848 127.074 25.848C127.692 25.848 128.236 25.688 128.706 25.368L130.434 30.392Z" fill="black"/>
</svg>
