<svg width="152" height="128" viewBox="0 0 152 128" fill="none" xmlns="http://www.w3.org/2000/svg">
<path d="M30.0447 30.2674L29.8629 30.3265L29.7448 30.3947L28.8358 31.0627L27.7133 30.7991L26.4999 30.8718L25.2865 30.5174L24.982 30.6173L24.8184 31.1127L24.6275 31.8444L23.8867 32.0489L23.4323 32.1443L23.046 32.367L22.2961 32.7261L21.5145 32.3852L21.1827 32.1943L20.8191 32.2352L19.6148 32.1762L18.6604 31.4717L18.206 31.14L17.6333 31.3036L17.2789 31.4263L16.9062 31.3899L15.5837 31.2036L14.4703 31.9217L13.8658 32.2171H13.2251L12.9296 31.8262L13.066 31.29L13.116 31.1263L13.0342 31.0036L12.6115 30.84L12.5206 30.4356L12.8842 29.7993L13.4477 29.3176L13.7477 29.1903L14.0158 28.9995L14.1567 28.4132L13.6613 28.0633L13.1614 27.8769L13.0387 27.3861L12.8342 26.8998L12.3797 26.9407L10.1665 27.5315L7.8942 27.7042L7.40793 27.8906L7.01709 28.2269L6.23996 29.1358L5.17197 29.7039L4.38575 29.6312V28.854L4.50845 28.1587L4.44483 27.4634L4.36757 27.1634L4.43119 26.9089L5.26741 25.8728L6.17633 24.9229L6.38993 24.8457L6.58989 24.7775L6.96255 24.5684L7.07617 24.214L6.78531 24.0322L6.38993 24.1185L5.76277 24.1867L5.38557 23.7322L5.58553 23.1596L6.15815 22.9278L6.84439 22.6279L7.2625 22.0053L6.72623 21.9553L6.22632 22.0825L5.64461 22.0144L5.24014 21.6372V21.0009L5.64915 20.5464L6.10362 20.1465L6.18542 19.5784L6.29449 19.233L6.58535 19.0013L6.84439 18.665L6.66715 18.256L6.34448 18.1378L6.09907 18.4059L6.03545 18.4786L5.97637 18.5059L5.09925 18.5877C3.62679 20.601 3.32685 18.9785 3.52227 17.4788L4.39484 16.3927L4.71751 16.22L4.68569 15.8791L4.23123 15.5428L3.69042 15.6791L3.36321 16.02L2.90874 15.9155L2.6906 15.4383L2.98146 15.0111L3.10416 14.7657L2.92238 14.543L2.69969 14.2521L2.59971 13.8977L2.73605 13.5704L2.59971 13.2932L2.14525 13.2569L1.69078 13.4977L1.46355 13.7613L1.1727 13.8159L1 13.475L1.06817 13.0569L1.13179 12.757L1.27722 12.5297L1.60444 12.0253L1.34994 11.4754V11.1891L1.509 10.98L2.41792 10.4256L3.2814 9.89384L3.07235 9.78022L2.87239 9.82112H2.58608L2.40429 9.60753V9.32122L2.59516 9.12125L2.77695 8.98946L2.9451 8.94401L4.33576 8.86221L5.63552 8.27141L5.481 7.65788L6.08089 7.38975L6.81712 7.0898L7.19433 6.33539L7.50336 7.08071L8.05781 7.53518L8.83948 7.60335L9.63025 7.50791L10.7028 7.36248L11.689 6.88529L12.3298 6.65352L12.6433 7.50791L13.2569 6.64897L14.0567 6.9671L14.7021 6.76713L15.2383 6.31267L15.152 6.18542L15.0247 6.14452L14.7748 6.18997H14.543L14.1158 6.12634L13.8022 5.89456L13.9522 5.6128L14.2067 5.34921L13.9658 5.24923L13.7022 5.32194L13.5386 5.35375L13.4068 5.2765L13.3478 4.92656L13.5159 4.6766L13.6613 4.14943L14.0385 3.86312L14.4476 3.81767L14.7657 3.60407L15.561 3.10416L16.3881 2.69969L17.238 2.10889L18.0696 1.43174L18.874 1.10907L19.3285 1.81349L19.4603 2.00891L19.6784 1.96346L20.1056 1.70896L20.5328 1.45446L20.9327 1.07726L21.3327 1L21.8417 1.39538L21.9507 2.08162L21.978 2.34975L22.0916 2.69515L22.4597 2.16797L23.0369 1.89984L23.6186 2.10889L24.0731 2.52245L24.3321 2.71787L24.6275 2.88148L25.3092 3.3723L25.6592 4.07671L26.1136 4.93565L27.0862 5.09471L29.3585 5.02654L31.599 5.13561L33.5623 5.4401L35.5301 5.55826L38.0342 5.48555L40.5519 5.59007L41.1109 5.53099L41.6063 5.23105L42.6106 4.64025L43.4923 5.41738C45.1329 6.87166 48.5686 6.74896 50.8137 7.61243C55.3539 9.34065 60.3234 9.5935 65.0156 8.33503C65.1506 8.30185 65.2912 8.29785 65.4278 8.32332C65.5645 8.34879 65.6942 8.40312 65.8082 8.4827C65.9222 8.56229 66.0179 8.66528 66.0889 8.7848C66.1599 8.90432 66.2046 9.03762 66.22 9.17579C66.22 9.17579 66.22 9.21214 66.22 9.23032C66.6151 8.75415 67.1279 8.38957 67.7075 8.17273C68.287 7.9559 68.9132 7.89435 69.5239 7.99418C70.0965 8.09417 70.551 9.06672 69.9784 9.05763C71.8105 9.35979 73.5921 9.9134 75.2729 10.7028C75.8864 8.98946 78.3359 8.90765 80.0129 9.61662C83.385 11.0391 85.1029 11.6753 88.5159 10.6301L88.7568 10.3438L88.9204 10.0302L89.4703 9.69387L89.9975 10.0256L90.3838 10.4801L90.7019 10.9346L91.3063 11.6208L92.188 11.8298H92.6788L93.0605 11.5799L93.6559 11.1709L94.3921 11.2436L94.8057 11.7571L94.7739 12.3888L94.6693 13.3296L94.2649 14.1931L94.1013 14.693L94.4194 15.1111L94.842 15.1383L95.042 14.7566L95.1965 14.5612L95.3556 14.3658L95.5374 14.1431H95.8146L96.0509 14.3703V14.6975L96.0873 15.4565L96.7871 15.7473L98.3187 16.1154L99.7866 16.6744L100.477 16.7471L101.155 16.5517L102.123 16.4926L102.622 17.3107L102.872 17.8242L103.263 18.2469L104.813 19.0422L106.494 19.2376L107.331 19.1103L108.19 19.1194L109.253 19.5739L109.967 20.3965L110.766 21.1145L111.771 20.81L112.566 20.4646L113.38 20.1511L113.834 20.1238L114.175 20.3056L114.834 20.7237L115.397 20.2056L115.57 20.1011L115.761 20.1874L116.52 20.5555L117.361 20.4374L117.938 20.3919H118.52L118.974 20.2829V19.8284L118.706 18.9558L118.997 18.2151L119.906 17.9878L120.892 18.256L122.164 18.7422L123.528 18.9104L124.055 18.974L124.441 19.233L125.309 19.8284L126.327 19.6784L127.354 19.7966L128.004 20.5374L128.386 21.5008L128.44 22.5824L128.577 23.405L129.181 24.0731L129.849 24.1276L130.445 23.7595L131.953 23.3414L133.44 23.7368L134.053 23.7777L134.544 23.4868L134.93 23.2823L135.285 23.3323V23.6822L134.93 23.8958L134.807 24.4412L135.144 24.8957L135.676 25.2456L136.275 24.9775L136.657 24.523L137.162 24.1458L138.916 23.9458L140.411 24.7275L141.693 25.182H142.988L143.201 25.0956L143.351 24.9047L144.26 23.7368L145.624 23.1369L146.887 22.6824L148.219 23.1823L148.673 23.2778H149.205L149.341 24.2958L150.4 24.7502L150.968 25.0365L151 25.6728L150.546 26.309H149.791L149.264 26.0818L148.755 26.259L148.587 26.8771L148.882 27.4725L149.364 28.1769L149.959 28.8177L150.455 30.481L149.846 32.108L148.705 33.3305L147.532 34.503L147.078 34.8393L146.583 35.1438L145.874 35.5301L145.324 36.1572L145.015 36.5345L144.56 36.748L142.288 37.7251L140.238 39.0885L138.875 40.2111L137.966 41.7381L137.275 42.5879L136.203 42.9651L133.212 43.7922L130.263 44.7466L128.695 45.2011L127.277 45.9327L126.123 46.5508L124.896 46.9144L123.532 47.6324L122.496 48.764L121.823 49.6912L121.115 50.6001L120.883 51.1863L121.451 51.509L121.846 51.6181L122.073 51.9453L122.214 52.1407L122.414 52.2861L122.769 52.2498L122.991 52.4316L122.819 52.886L122.387 53.1405L121.255 53.595L120.065 53.8949L119.61 54.0358L119.247 54.4903L118.279 56.5081L117.161 58.4259L116.252 60.0075L115.007 61.3845L114.552 61.8389L114.334 62.4161L113.916 63.4023L113.102 64.084L112.889 64.2249L112.743 64.4112L111.494 66.4427L110.267 68.4832V68.5195V68.5604L109.462 70.5919L108.435 72.5234L108.271 73.296L108.39 74.0594L108.889 75.4592L109.453 76.8226L109.735 77.9087L109.935 78.9995L111.157 81.0764L113.193 82.3625L114.52 83.1396L115.547 84.2758V84.5803L115.311 84.8257L114.498 85.4119L114.043 86.3209L113.839 86.5072L113.48 86.4527H112.598L112.28 87.2707L112.062 87.757L111.607 87.9751L110.394 88.3932L109.171 88.784L108.485 89.1476L108.117 89.752L107.749 90.5792L106.99 91.0336L106.29 91.7017L106.354 92.6606L106.326 93.1878L105.976 93.4514L104.858 94.4103L104.658 95.8373L104.527 96.6326L104.104 97.3234L103.768 97.7779L103.627 98.3596L103.581 99.164L102.963 99.7957L102.572 100.346L102.377 101.168L102.727 101.754L103.386 102.209L103.84 102.368L104.081 102.768L103.759 103.168L103.227 103.254L102.35 103.454L101.495 103.768L101.073 103.84L100.655 103.613L100.396 103.413L100.073 103.336L97.2416 103.622L94.6057 104.677L94.4876 104.736L94.4012 104.813L92.9742 106.176L91.4472 107.276L90.1429 108.517L89.5566 110.23L89.4975 110.685L89.1885 111.107L88.8204 111.616L88.6613 112.207L88.425 113.302L87.5615 114.011L87.4434 114.116L87.3798 114.275L86.7844 115.479L85.8391 116.434L85.012 117.015L84.1531 116.438L83.6486 115.829L83.0214 115.375L82.3579 115.152L81.6899 115.32L81.3763 115.416L81.0673 115.347H79.7584L78.8995 116.374L78.0178 117.411L76.9635 117.615L76.1454 117.352L75.3865 116.97L74.8184 116.715L74.2276 116.661H72.8642H71.5008L70.1011 116.711L68.7377 117.106L67.3243 117.238L65.9609 116.752L65.6792 116.574L65.3701 116.506H63.8022L62.2889 116.374H60.4028L58.5395 116.647L57.1762 116.797L55.8128 116.647L55.2719 116.729L54.8175 117.102L53.5132 118.492L52.0407 119.715L51.0545 120.051L49.9775 119.824L49.3912 119.633L48.8549 119.683L46.7917 120.465L44.683 121.242L44.5694 121.31L44.4921 121.396L43.465 122.855L42.4061 124.291L42.1334 124.714L41.5972 124.741L40.9973 124.827L40.8473 125.409L40.9836 126.282L40.5746 126.977L39.4385 127.241L38.3296 126.927L37.248 126.373L36.1981 125.805L35.7846 125.527L35.4301 125.187L34.6302 124.418L33.5623 124.119L33.2169 124.055L32.9942 123.841L31.908 122.023L30.7809 120.228L30.5219 119.615L30.2765 119.001L30.1356 118.274L30.8264 117.951L31.1445 117.802L30.9764 117.47L30.3583 117.015L29.5993 116.802L28.6904 116.474L28.2678 115.188L28.5268 114.534L29.1994 114.279L29.4266 114.189L29.6493 114.111L28.1223 112.021L26.3863 110.103L25.341 109.294L24.2094 108.617L23.2051 108.094L22.237 107.526L21.1918 106.981L19.992 106.799H18.4923L16.9971 106.617L16.5426 106.908L16.1336 106.822L15.7337 105.835L15.6746 104.749L15.7428 103L15.1111 101.368L15.0429 101.086L15.1702 100.836L15.7201 99.9275L16.0564 98.914L16.6063 97.9687L17.497 97.287L18.5877 95.9555L19.1331 94.3558L19.433 93.8604L19.942 93.8967L20.3965 93.9695L20.7419 93.6241L21.1418 93.4105L21.5963 93.6059L22.3734 93.7104L22.8278 93.1151L22.9369 92.8197L23.1869 92.6288L23.4686 92.3561V91.938L23.1732 91.0609L22.2643 91.2563L21.5644 91.329L21.11 90.8246L20.2011 88.784L19.0285 86.8935L18.9422 86.08L19.2739 85.3438L19.6784 84.4848L19.7511 83.4941L19.9556 82.7942L20.5783 82.2489L21.619 81.3808L22.7779 80.6582L22.9506 80.5219V80.3401L22.8733 79.3085L23.5595 78.5541L23.9504 77.8542L23.8186 77.0589L23.3641 76.6044L22.737 76.559L22.0962 76.5817L21.8417 75.9864L21.7008 75.6455L21.3917 75.4456L20.9373 75.032L20.7691 74.4548L20.601 73.4959L20.0193 72.7051L19.8193 72.2507L19.942 71.7599L20.0102 71.1191L19.5103 70.751L19.1149 70.4737V69.9829L19.074 69.5285L18.7695 69.1921L18.206 68.5059L17.8151 67.747L17.7288 67.5606L17.7788 67.3698L17.9787 67.2516L18.206 67.2925L19.5103 67.5879L20.8737 67.4561H21.7553L22.6642 67.6197L23.964 67.5243L24.5048 66.3563L24.7275 65.7428L25.0547 65.1747L25.9273 63.3568L25.7955 61.3209L25.5637 60.8664L25.1411 60.5392L24.732 59.9666L24.6275 59.2394L24.7639 58.8122L25.2183 58.5395L25.4819 58.4123L25.7591 58.3396L26.5454 58.0305L27.1362 57.3852L27.4679 56.5399L27.3634 55.681L27.2952 55.022L27.6406 54.4539L27.9633 53.9995L27.786 53.4541L27.6224 53.136L27.6497 52.8315L27.8769 51.6908L27.6724 50.5455L27.5952 49.7775L27.8769 49.0322L27.9269 48.7913L27.8042 48.5732L27.3043 47.4007L26.8408 46.2054L26.768 45.8828L27.1362 45.7782L28.3223 45.6692L28.8177 44.5375L29.154 44.1649L29.5221 43.8967L30.7037 42.856L32.1898 42.347L32.5897 42.1425L32.9442 41.8517L33.6123 41.1245L34.403 40.5201L34.6484 40.2747L34.7984 39.9111L35.1983 39.0022L35.8482 38.266L36.1618 37.6797L35.8937 37.0298L34.6712 36.03L33.0851 35.9891L32.1761 35.5574V34.3121L32.417 32.9215L32.3125 31.5581L32.1943 31.2809H31.8398L31.4763 31.3536L31.1127 31.3899L30.1129 31.2672L30.0447 30.2674Z" stroke="black" stroke-miterlimit="10"/>
<path d="M48.9554 22.7472C48.9554 26.6506 43.9368 29.9963 43.9368 29.9963C43.9368 29.9963 38.9182 26.6506 38.9182 22.7472C38.9182 21.4162 39.447 20.1397 40.3881 19.1985C41.3293 18.2574 42.6058 17.7286 43.9368 17.7286C45.2678 17.7286 46.5443 18.2574 47.4855 19.1985C48.4266 20.1397 48.9554 21.4162 48.9554 22.7472Z" fill="#F4B708"/>
<path d="M43.9368 24.4201C44.8607 24.4201 45.6097 23.6711 45.6097 22.7472C45.6097 21.8233 44.8607 21.0744 43.9368 21.0744C43.0129 21.0744 42.2639 21.8233 42.2639 22.7472C42.2639 23.6711 43.0129 24.4201 43.9368 24.4201Z" fill="#F4B708"/>
<path d="M48.9554 22.7472C48.9554 26.6506 43.9368 29.9963 43.9368 29.9963C43.9368 29.9963 38.9182 26.6506 38.9182 22.7472C38.9182 21.4162 39.447 20.1397 40.3881 19.1985C41.3293 18.2574 42.6058 17.7286 43.9368 17.7286C45.2678 17.7286 46.5443 18.2574 47.4855 19.1985C48.4266 20.1397 48.9554 21.4162 48.9554 22.7472Z" stroke="black" stroke-linecap="round" stroke-linejoin="round"/>
<path d="M43.9368 24.4201C44.8607 24.4201 45.6097 23.6711 45.6097 22.7472C45.6097 21.8233 44.8607 21.0744 43.9368 21.0744C43.0129 21.0744 42.2639 21.8233 42.2639 22.7472C42.2639 23.6711 43.0129 24.4201 43.9368 24.4201Z" stroke="black" stroke-linecap="round" stroke-linejoin="round"/>
<path d="M91.3346 62.8959C91.3346 66.7993 86.316 70.145 86.316 70.145C86.316 70.145 81.2974 66.7993 81.2974 62.8959C81.2974 61.5649 81.8261 60.2884 82.7673 59.3472C83.7085 58.4061 84.985 57.8773 86.316 57.8773C87.647 57.8773 88.9235 58.4061 89.8647 59.3472C90.8058 60.2884 91.3346 61.5649 91.3346 62.8959Z" fill="#F4B708"/>
<path d="M86.316 64.5688C87.2399 64.5688 87.9889 63.8198 87.9889 62.8959C87.9889 61.972 87.2399 61.223 86.316 61.223C85.3921 61.223 84.6431 61.972 84.6431 62.8959C84.6431 63.8198 85.3921 64.5688 86.316 64.5688Z" fill="#F4B708"/>
<path d="M91.3346 62.8959C91.3346 66.7993 86.316 70.145 86.316 70.145C86.316 70.145 81.2974 66.7993 81.2974 62.8959C81.2974 61.5649 81.8261 60.2884 82.7673 59.3472C83.7085 58.4061 84.985 57.8773 86.316 57.8773C87.647 57.8773 88.9235 58.4061 89.8647 59.3472C90.8058 60.2884 91.3346 61.5649 91.3346 62.8959Z" stroke="black" stroke-linecap="round" stroke-linejoin="round"/>
<path d="M86.316 64.5688C87.2399 64.5688 87.9889 63.8198 87.9889 62.8959C87.9889 61.972 87.2399 61.223 86.316 61.223C85.3921 61.223 84.6431 61.972 84.6431 62.8959C84.6431 63.8198 85.3921 64.5688 86.316 64.5688Z" stroke="black" stroke-linecap="round" stroke-linejoin="round"/>
<path d="M38.9182 95.7956C38.9182 99.6989 33.8996 103.045 33.8996 103.045C33.8996 103.045 28.881 99.6989 28.881 95.7956C28.881 94.4646 29.4098 93.1881 30.351 92.2469C31.2921 91.3057 32.5686 90.777 33.8996 90.777C35.2306 90.777 36.5071 91.3057 37.4483 92.2469C38.3895 93.1881 38.9182 94.4646 38.9182 95.7956Z" fill="#F4B708"/>
<path d="M33.8996 97.4684C34.8235 97.4684 35.5725 96.7195 35.5725 95.7956C35.5725 94.8717 34.8235 94.1227 33.8996 94.1227C32.9757 94.1227 32.2268 94.8717 32.2268 95.7956C32.2268 96.7195 32.9757 97.4684 33.8996 97.4684Z" fill="#F4B708"/>
<path d="M38.9182 95.7956C38.9182 99.6989 33.8996 103.045 33.8996 103.045C33.8996 103.045 28.881 99.6989 28.881 95.7956C28.881 94.4646 29.4098 93.1881 30.351 92.2469C31.2921 91.3057 32.5686 90.777 33.8996 90.777C35.2306 90.777 36.5071 91.3057 37.4483 92.2469C38.3895 93.1881 38.9182 94.4646 38.9182 95.7956Z" stroke="black" stroke-linecap="round" stroke-linejoin="round"/>
<path d="M33.8996 97.4684C34.8235 97.4684 35.5725 96.7195 35.5725 95.7956C35.5725 94.8717 34.8235 94.1227 33.8996 94.1227C32.9757 94.1227 32.2268 94.8717 32.2268 95.7956C32.2268 96.7195 32.9757 97.4684 33.8996 97.4684Z" stroke="black" stroke-linecap="round" stroke-linejoin="round"/>
<path d="M58.9926 108.063C58.9926 111.967 53.974 115.312 53.974 115.312C53.974 115.312 48.9554 111.967 48.9554 108.063C48.9554 106.732 49.4841 105.456 50.4253 104.515C51.3665 103.573 52.643 103.045 53.974 103.045C55.305 103.045 56.5815 103.573 57.5227 104.515C58.4638 105.456 58.9926 106.732 58.9926 108.063Z" fill="#F4B708"/>
<path d="M53.974 109.736C54.8979 109.736 55.6468 108.987 55.6468 108.063C55.6468 107.139 54.8979 106.39 53.974 106.39C53.0501 106.39 52.3011 107.139 52.3011 108.063C52.3011 108.987 53.0501 109.736 53.974 109.736Z" fill="#F4B708"/>
<path d="M58.9926 108.063C58.9926 111.967 53.974 115.312 53.974 115.312C53.974 115.312 48.9554 111.967 48.9554 108.063C48.9554 106.732 49.4841 105.456 50.4253 104.515C51.3665 103.573 52.643 103.045 53.974 103.045C55.305 103.045 56.5815 103.573 57.5227 104.515C58.4638 105.456 58.9926 106.732 58.9926 108.063Z" stroke="black" stroke-linecap="round" stroke-linejoin="round"/>
<path d="M53.974 109.736C54.8979 109.736 55.6468 108.987 55.6468 108.063C55.6468 107.139 54.8979 106.39 53.974 106.39C53.0501 106.39 52.3011 107.139 52.3011 108.063C52.3011 108.987 53.0501 109.736 53.974 109.736Z" stroke="black" stroke-linecap="round" stroke-linejoin="round"/>
<path d="M48.9554 108.063C48.9554 111.967 43.9368 115.312 43.9368 115.312C43.9368 115.312 38.9182 111.967 38.9182 108.063C38.9182 106.732 39.447 105.456 40.3881 104.515C41.3293 103.573 42.6058 103.045 43.9368 103.045C45.2678 103.045 46.5443 103.573 47.4855 104.515C48.4266 105.456 48.9554 106.732 48.9554 108.063Z" fill="#F4B708"/>
<path d="M43.9368 109.736C44.8607 109.736 45.6097 108.987 45.6097 108.063C45.6097 107.139 44.8607 106.39 43.9368 106.39C43.0129 106.39 42.2639 107.139 42.2639 108.063C42.2639 108.987 43.0129 109.736 43.9368 109.736Z" fill="#F4B708"/>
<path d="M48.9554 108.063C48.9554 111.967 43.9368 115.312 43.9368 115.312C43.9368 115.312 38.9182 111.967 38.9182 108.063C38.9182 106.732 39.447 105.456 40.3881 104.515C41.3293 103.573 42.6058 103.045 43.9368 103.045C45.2678 103.045 46.5443 103.573 47.4855 104.515C48.4266 105.456 48.9554 106.732 48.9554 108.063Z" stroke="black" stroke-linecap="round" stroke-linejoin="round"/>
<path d="M43.9368 109.736C44.8607 109.736 45.6097 108.987 45.6097 108.063C45.6097 107.139 44.8607 106.39 43.9368 106.39C43.0129 106.39 42.2639 107.139 42.2639 108.063C42.2639 108.987 43.0129 109.736 43.9368 109.736Z" stroke="black" stroke-linecap="round" stroke-linejoin="round"/>
<path d="M58.9926 93.5651C58.9926 97.4684 53.974 100.814 53.974 100.814C53.974 100.814 48.9554 97.4684 48.9554 93.5651C48.9554 92.2341 49.4841 90.9576 50.4253 90.0164C51.3665 89.0753 52.643 88.5465 53.974 88.5465C55.305 88.5465 56.5815 89.0753 57.5227 90.0164C58.4638 90.9576 58.9926 92.2341 58.9926 93.5651Z" fill="#F4B708"/>
<path d="M53.974 95.238C54.8979 95.238 55.6468 94.489 55.6468 93.5651C55.6468 92.6412 54.8979 91.8922 53.974 91.8922C53.0501 91.8922 52.3011 92.6412 52.3011 93.5651C52.3011 94.489 53.0501 95.238 53.974 95.238Z" fill="#F4B708"/>
<path d="M58.9926 93.5651C58.9926 97.4684 53.974 100.814 53.974 100.814C53.974 100.814 48.9554 97.4684 48.9554 93.5651C48.9554 92.2341 49.4841 90.9576 50.4253 90.0164C51.3665 89.0753 52.643 88.5465 53.974 88.5465C55.305 88.5465 56.5815 89.0753 57.5227 90.0164C58.4638 90.9576 58.9926 92.2341 58.9926 93.5651Z" stroke="black" stroke-linecap="round" stroke-linejoin="round"/>
<path d="M53.974 95.238C54.8979 95.238 55.6468 94.489 55.6468 93.5651C55.6468 92.6412 54.8979 91.8922 53.974 91.8922C53.0501 91.8922 52.3011 92.6412 52.3011 93.5651C52.3011 94.489 53.0501 95.238 53.974 95.238Z" stroke="black" stroke-linecap="round" stroke-linejoin="round"/>
<path d="M58.9926 58.435C58.9926 62.3383 53.974 65.684 53.974 65.684C53.974 65.684 48.9554 62.3383 48.9554 58.435C48.9554 57.104 49.4841 55.8275 50.4253 54.8863C51.3665 53.9451 52.643 53.4164 53.974 53.4164C55.305 53.4164 56.5815 53.9451 57.5227 54.8863C58.4638 55.8275 58.9926 57.104 58.9926 58.435Z" fill="#F4B708"/>
<path d="M53.974 60.1078C54.8979 60.1078 55.6468 59.3589 55.6468 58.435C55.6468 57.5111 54.8979 56.7621 53.974 56.7621C53.0501 56.7621 52.3011 57.5111 52.3011 58.435C52.3011 59.3589 53.0501 60.1078 53.974 60.1078Z" fill="#F4B708"/>
<path d="M58.9926 58.435C58.9926 62.3383 53.974 65.684 53.974 65.684C53.974 65.684 48.9554 62.3383 48.9554 58.435C48.9554 57.104 49.4841 55.8275 50.4253 54.8863C51.3665 53.9451 52.643 53.4164 53.974 53.4164C55.305 53.4164 56.5815 53.9451 57.5227 54.8863C58.4638 55.8275 58.9926 57.104 58.9926 58.435Z" stroke="black" stroke-linecap="round" stroke-linejoin="round"/>
<path d="M53.974 60.1078C54.8979 60.1078 55.6468 59.3589 55.6468 58.435C55.6468 57.5111 54.8979 56.7621 53.974 56.7621C53.0501 56.7621 52.3011 57.5111 52.3011 58.435C52.3011 59.3589 53.0501 60.1078 53.974 60.1078Z" stroke="black" stroke-linecap="round" stroke-linejoin="round"/>
<path d="M38.9182 64.5688C38.9182 68.4721 33.8996 71.8178 33.8996 71.8178C33.8996 71.8178 28.881 68.4721 28.881 64.5688C28.881 63.2377 29.4098 61.9612 30.351 61.0201C31.2921 60.0789 32.5686 59.5502 33.8996 59.5502C35.2306 59.5502 36.5071 60.0789 37.4483 61.0201C38.3895 61.9612 38.9182 63.2377 38.9182 64.5688Z" fill="#F4B708"/>
<path d="M33.8996 66.2416C34.8235 66.2416 35.5725 65.4927 35.5725 64.5688C35.5725 63.6449 34.8235 62.8959 33.8996 62.8959C32.9757 62.8959 32.2268 63.6449 32.2268 64.5688C32.2268 65.4927 32.9757 66.2416 33.8996 66.2416Z" fill="#F4B708"/>
<path d="M38.9182 64.5688C38.9182 68.4721 33.8996 71.8178 33.8996 71.8178C33.8996 71.8178 28.881 68.4721 28.881 64.5688C28.881 63.2377 29.4098 61.9612 30.351 61.0201C31.2921 60.0789 32.5686 59.5502 33.8996 59.5502C35.2306 59.5502 36.5071 60.0789 37.4483 61.0201C38.3895 61.9612 38.9182 63.2377 38.9182 64.5688Z" stroke="black" stroke-linecap="round" stroke-linejoin="round"/>
<path d="M33.8996 66.2416C34.8235 66.2416 35.5725 65.4927 35.5725 64.5688C35.5725 63.6449 34.8235 62.8959 33.8996 62.8959C32.9757 62.8959 32.2268 63.6449 32.2268 64.5688C32.2268 65.4927 32.9757 66.2416 33.8996 66.2416Z" stroke="black" stroke-linecap="round" stroke-linejoin="round"/>
<path d="M91.3346 94.6803C91.3346 98.5837 86.316 101.929 86.316 101.929C86.316 101.929 81.2974 98.5837 81.2974 94.6803C81.2974 93.3493 81.8261 92.0728 82.7673 91.1317C83.7085 90.1905 84.985 89.6617 86.316 89.6617C87.647 89.6617 88.9235 90.1905 89.8647 91.1317C90.8058 92.0728 91.3346 93.3493 91.3346 94.6803Z" fill="#F4B708"/>
<path d="M86.316 96.3532C87.2399 96.3532 87.9889 95.6042 87.9889 94.6803C87.9889 93.7564 87.2399 93.0075 86.316 93.0075C85.3921 93.0075 84.6431 93.7564 84.6431 94.6803C84.6431 95.6042 85.3921 96.3532 86.316 96.3532Z" fill="#F4B708"/>
<path d="M91.3346 94.6803C91.3346 98.5837 86.316 101.929 86.316 101.929C86.316 101.929 81.2974 98.5837 81.2974 94.6803C81.2974 93.3493 81.8261 92.0728 82.7673 91.1317C83.7085 90.1905 84.985 89.6617 86.316 89.6617C87.647 89.6617 88.9235 90.1905 89.8647 91.1317C90.8058 92.0728 91.3346 93.3493 91.3346 94.6803Z" stroke="black" stroke-linecap="round" stroke-linejoin="round"/>
<path d="M86.316 96.3532C87.2399 96.3532 87.9889 95.6042 87.9889 94.6803C87.9889 93.7564 87.2399 93.0075 86.316 93.0075C85.3921 93.0075 84.6431 93.7564 84.6431 94.6803C84.6431 95.6042 85.3921 96.3532 86.316 96.3532Z" stroke="black" stroke-linecap="round" stroke-linejoin="round"/>
<path d="M116.985 34.4572C116.985 38.3606 111.967 41.7063 111.967 41.7063C111.967 41.7063 106.948 38.3606 106.948 34.4572C106.948 33.1262 107.477 31.8497 108.418 30.9086C109.359 29.9674 110.636 29.4387 111.967 29.4387C113.298 29.4387 114.574 29.9674 115.515 30.9086C116.456 31.8497 116.985 33.1262 116.985 34.4572Z" fill="#F4B708"/>
<path d="M111.967 36.1301C112.89 36.1301 113.639 35.3811 113.639 34.4572C113.639 33.5334 112.89 32.7844 111.967 32.7844C111.043 32.7844 110.294 33.5334 110.294 34.4572C110.294 35.3811 111.043 36.1301 111.967 36.1301Z" fill="#F4B708"/>
<path d="M116.985 34.4572C116.985 38.3606 111.967 41.7063 111.967 41.7063C111.967 41.7063 106.948 38.3606 106.948 34.4572C106.948 33.1262 107.477 31.8497 108.418 30.9086C109.359 29.9674 110.636 29.4387 111.967 29.4387C113.298 29.4387 114.574 29.9674 115.515 30.9086C116.456 31.8497 116.985 33.1262 116.985 34.4572Z" stroke="black" stroke-linecap="round" stroke-linejoin="round"/>
<path d="M111.967 36.1301C112.89 36.1301 113.639 35.3811 113.639 34.4572C113.639 33.5334 112.89 32.7844 111.967 32.7844C111.043 32.7844 110.294 33.5334 110.294 34.4572C110.294 35.3811 111.043 36.1301 111.967 36.1301Z" stroke="black" stroke-linecap="round" stroke-linejoin="round"/>
<path d="M133.156 33.8996C133.156 37.803 128.138 41.1487 128.138 41.1487C128.138 41.1487 123.119 37.803 123.119 33.8996C123.119 32.5686 123.648 31.2921 124.589 30.351C125.53 29.4098 126.807 28.881 128.138 28.881C129.469 28.881 130.745 29.4098 131.686 30.351C132.627 31.2921 133.156 32.5686 133.156 33.8996Z" fill="#F4B708"/>
<path d="M128.138 35.5725C129.061 35.5725 129.81 34.8235 129.81 33.8996C129.81 32.9757 129.061 32.2268 128.138 32.2268C127.214 32.2268 126.465 32.9757 126.465 33.8996C126.465 34.8235 127.214 35.5725 128.138 35.5725Z" fill="#F4B708"/>
<path d="M133.156 33.8996C133.156 37.803 128.138 41.1487 128.138 41.1487C128.138 41.1487 123.119 37.803 123.119 33.8996C123.119 32.5686 123.648 31.2921 124.589 30.351C125.53 29.4098 126.807 28.881 128.138 28.881C129.469 28.881 130.745 29.4098 131.686 30.351C132.627 31.2921 133.156 32.5686 133.156 33.8996Z" stroke="black" stroke-linecap="round" stroke-linejoin="round"/>
<path d="M128.138 35.5725C129.061 35.5725 129.81 34.8235 129.81 33.8996C129.81 32.9757 129.061 32.2268 128.138 32.2268C127.214 32.2268 126.465 32.9757 126.465 33.8996C126.465 34.8235 127.214 35.5725 128.138 35.5725Z" stroke="black" stroke-linecap="round" stroke-linejoin="round"/>
<path d="M108.063 40.0335C108.063 43.9368 103.045 47.2826 103.045 47.2826C103.045 47.2826 98.026 43.9368 98.026 40.0335C98.026 38.7025 98.5548 37.426 99.4959 36.4848C100.437 35.5436 101.714 35.0149 103.045 35.0149C104.376 35.0149 105.652 35.5436 106.593 36.4848C107.534 37.426 108.063 38.7025 108.063 40.0335Z" fill="#F4B708"/>
<path d="M103.045 41.7063C103.969 41.7063 104.717 40.9574 104.717 40.0335C104.717 39.1096 103.969 38.3606 103.045 38.3606C102.121 38.3606 101.372 39.1096 101.372 40.0335C101.372 40.9574 102.121 41.7063 103.045 41.7063Z" fill="#F4B708"/>
<path d="M108.063 40.0335C108.063 43.9368 103.045 47.2826 103.045 47.2826C103.045 47.2826 98.026 43.9368 98.026 40.0335C98.026 38.7025 98.5548 37.426 99.4959 36.4848C100.437 35.5436 101.714 35.0149 103.045 35.0149C104.376 35.0149 105.652 35.5436 106.593 36.4848C107.534 37.426 108.063 38.7025 108.063 40.0335Z" stroke="black" stroke-linecap="round" stroke-linejoin="round"/>
<path d="M103.045 41.7063C103.969 41.7063 104.717 40.9574 104.717 40.0335C104.717 39.1096 103.969 38.3606 103.045 38.3606C102.121 38.3606 101.372 39.1096 101.372 40.0335C101.372 40.9574 102.121 41.7063 103.045 41.7063Z" stroke="black" stroke-linecap="round" stroke-linejoin="round"/>
<path d="M77.9743 28.4144C77.9743 32.3177 72.9558 35.6635 72.9558 35.6635C72.9558 35.6635 67.9372 32.3177 67.9372 28.4144C67.9372 27.0834 68.4659 25.8069 69.4071 24.8657C70.3482 23.9246 71.6247 23.3958 72.9558 23.3958C74.2868 23.3958 75.5633 23.9246 76.5044 24.8657C77.4456 25.8069 77.9743 27.0834 77.9743 28.4144Z" fill="#F4B708"/>
<path d="M72.9558 30.0873C73.8796 30.0873 74.6286 29.3383 74.6286 28.4144C74.6286 27.4905 73.8796 26.7415 72.9558 26.7415C72.0319 26.7415 71.2829 27.4905 71.2829 28.4144C71.2829 29.3383 72.0319 30.0873 72.9558 30.0873Z" fill="#F4B708"/>
<path d="M77.9743 28.4144C77.9743 32.3177 72.9558 35.6635 72.9558 35.6635C72.9558 35.6635 67.9372 32.3177 67.9372 28.4144C67.9372 27.0834 68.4659 25.8069 69.4071 24.8657C70.3482 23.9246 71.6247 23.3958 72.9558 23.3958C74.2868 23.3958 75.5633 23.9246 76.5044 24.8657C77.4456 25.8069 77.9743 27.0834 77.9743 28.4144Z" stroke="black" stroke-linecap="round" stroke-linejoin="round"/>
<path d="M72.9558 30.0873C73.8796 30.0873 74.6286 29.3383 74.6286 28.4144C74.6286 27.4905 73.8796 26.7415 72.9558 26.7415C72.0319 26.7415 71.2829 27.4905 71.2829 28.4144C71.2829 29.3383 72.0319 30.0873 72.9558 30.0873Z" stroke="black" stroke-linecap="round" stroke-linejoin="round"/>
<path d="M94.1227 48.3978C94.1227 52.3011 89.1041 55.6469 89.1041 55.6469C89.1041 55.6469 84.0855 52.3011 84.0855 48.3978C84.0855 47.0668 84.6142 45.7903 85.5554 44.8491C86.4966 43.908 87.7731 43.3792 89.1041 43.3792C90.4351 43.3792 91.7116 43.908 92.6528 44.8491C93.5939 45.7903 94.1227 47.0668 94.1227 48.3978Z" fill="#F4B708"/>
<path d="M89.1041 50.0707C90.028 50.0707 90.777 49.3217 90.777 48.3978C90.777 47.4739 90.028 46.7249 89.1041 46.7249C88.1802 46.7249 87.4312 47.4739 87.4312 48.3978C87.4312 49.3217 88.1802 50.0707 89.1041 50.0707Z" fill="#F4B708"/>
<path d="M94.1227 48.3978C94.1227 52.3011 89.1041 55.6469 89.1041 55.6469C89.1041 55.6469 84.0855 52.3011 84.0855 48.3978C84.0855 47.0668 84.6142 45.7903 85.5554 44.8491C86.4966 43.908 87.7731 43.3792 89.1041 43.3792C90.4351 43.3792 91.7116 43.908 92.6528 44.8491C93.5939 45.7903 94.1227 47.0668 94.1227 48.3978Z" stroke="black" stroke-linecap="round" stroke-linejoin="round"/>
<path d="M89.1041 50.0707C90.028 50.0707 90.777 49.3217 90.777 48.3978C90.777 47.4739 90.028 46.7249 89.1041 46.7249C88.1802 46.7249 87.4312 47.4739 87.4312 48.3978C87.4312 49.3217 88.1802 50.0707 89.1041 50.0707Z" stroke="black" stroke-linecap="round" stroke-linejoin="round"/>
<path d="M81.2974 52.3011C81.2974 56.2045 76.2788 59.5502 76.2788 59.5502C76.2788 59.5502 71.2602 56.2045 71.2602 52.3011C71.2602 50.9701 71.789 49.6936 72.7301 48.7524C73.6713 47.8113 74.9478 47.2825 76.2788 47.2825C77.6098 47.2825 78.8863 47.8113 79.8275 48.7524C80.7687 49.6936 81.2974 50.9701 81.2974 52.3011Z" fill="#F4B708"/>
<path d="M76.2788 53.974C77.2027 53.974 77.9517 53.225 77.9517 52.3011C77.9517 51.3772 77.2027 50.6283 76.2788 50.6283C75.3549 50.6283 74.6059 51.3772 74.6059 52.3011C74.6059 53.225 75.3549 53.974 76.2788 53.974Z" fill="#F4B708"/>
<path d="M81.2974 52.3011C81.2974 56.2045 76.2788 59.5502 76.2788 59.5502C76.2788 59.5502 71.2602 56.2045 71.2602 52.3011C71.2602 50.9701 71.789 49.6936 72.7301 48.7524C73.6713 47.8113 74.9478 47.2825 76.2788 47.2825C77.6098 47.2825 78.8863 47.8113 79.8275 48.7524C80.7687 49.6936 81.2974 50.9701 81.2974 52.3011Z" stroke="black" stroke-linecap="round" stroke-linejoin="round"/>
<path d="M76.2788 53.974C77.2027 53.974 77.9517 53.225 77.9517 52.3011C77.9517 51.3772 77.2027 50.6283 76.2788 50.6283C75.3549 50.6283 74.6059 51.3772 74.6059 52.3011C74.6059 53.225 75.3549 53.974 76.2788 53.974Z" stroke="black" stroke-linecap="round" stroke-linejoin="round"/>
<path d="M77.9517 62.8959C77.9517 66.7993 72.9331 70.145 72.9331 70.145C72.9331 70.145 67.9145 66.7993 67.9145 62.8959C67.9145 61.5649 68.4432 60.2884 69.3844 59.3472C70.3256 58.4061 71.6021 57.8773 72.9331 57.8773C74.2641 57.8773 75.5406 58.4061 76.4818 59.3472C77.4229 60.2884 77.9517 61.5649 77.9517 62.8959Z" fill="#F4B708"/>
<path d="M72.9331 64.5688C73.857 64.5688 74.6059 63.8198 74.6059 62.8959C74.6059 61.972 73.857 61.223 72.9331 61.223C72.0092 61.223 71.2602 61.972 71.2602 62.8959C71.2602 63.8198 72.0092 64.5688 72.9331 64.5688Z" fill="#F4B708"/>
<path d="M77.9517 62.8959C77.9517 66.7993 72.9331 70.145 72.9331 70.145C72.9331 70.145 67.9145 66.7993 67.9145 62.8959C67.9145 61.5649 68.4432 60.2884 69.3844 59.3472C70.3256 58.4061 71.6021 57.8773 72.9331 57.8773C74.2641 57.8773 75.5406 58.4061 76.4818 59.3472C77.4229 60.2884 77.9517 61.5649 77.9517 62.8959Z" stroke="black" stroke-linecap="round" stroke-linejoin="round"/>
<path d="M72.9331 64.5688C73.857 64.5688 74.6059 63.8198 74.6059 62.8959C74.6059 61.972 73.857 61.223 72.9331 61.223C72.0092 61.223 71.2602 61.972 71.2602 62.8959C71.2602 63.8198 72.0092 64.5688 72.9331 64.5688Z" stroke="black" stroke-linecap="round" stroke-linejoin="round"/>
</svg>
