<svg width="255" height="299" viewBox="0 0 255 299" fill="none" xmlns="http://www.w3.org/2000/svg">
<path d="M1.5 8C1.5 4.41015 4.41015 1.5 8 1.5H247C250.59 1.5 253.5 4.41015 253.5 8V290.005C253.5 293.595 250.59 296.505 247 296.505H8C4.41015 296.505 1.5 293.595 1.5 290.005V8Z" fill="white" stroke="black" stroke-width="3"/>
<path d="M0 8C0 3.58172 3.58172 0 8 0H247C251.418 0 255 3.58172 255 8V21.8052H0V8Z" fill="black"/>
<circle cx="13.9311" cy="10.9026" r="2.5285" stroke="white"/>
<circle cx="26.6508" cy="10.9026" r="2.5285" stroke="white"/>
<circle cx="39.3705" cy="10.9026" r="2.5285" stroke="white"/>
<rect x="24.5166" y="43.899" width="206.572" height="25.4679" rx="6.5" fill="white" stroke="black" stroke-width="3"/>
<path d="M72.028 59.8789L70.5479 54.2789H71.6439L72.652 58.7349L73.836 54.2789H74.964L76.116 58.7349L77.124 54.2789H78.228L76.708 59.8789H75.492L74.38 55.7269L73.236 59.8789H72.028ZM80.0181 59.8789L78.5381 54.2789H79.6341L80.6421 58.7349L81.8261 54.2789H82.9541L84.1061 58.7349L85.1141 54.2789H86.2181L84.6981 59.8789H83.4821L82.3701 55.7269L81.2261 59.8789H80.0181ZM88.0082 59.8789L86.5282 54.2789H87.6242L88.6322 58.7349L89.8162 54.2789H90.9442L92.0962 58.7349L93.1042 54.2789H94.2082L92.6882 59.8789H91.4722L90.3602 55.7269L89.2162 59.8789H88.0082ZM94.7158 59.9349C94.5292 59.9349 94.3745 59.8762 94.2518 59.7589C94.1345 59.6416 94.0758 59.5002 94.0758 59.3349C94.0758 59.1642 94.1345 59.0202 94.2518 58.9029C94.3745 58.7856 94.5292 58.7269 94.7158 58.7269C94.9025 58.7269 95.0545 58.7856 95.1718 58.9029C95.2945 59.0202 95.3558 59.1642 95.3558 59.3349C95.3558 59.5002 95.2945 59.6416 95.1718 59.7589C95.0545 59.8762 94.9025 59.9349 94.7158 59.9349ZM96.1337 59.8789V54.2789H97.3497L99.1337 57.8309L100.894 54.2789H102.11V59.8789H101.086V56.0149L99.5257 59.0789H98.7177L97.1577 56.0149V59.8789H96.1337ZM104.556 59.8789V57.8869L102.676 54.2789H103.836L105.076 56.8629L106.308 54.2789H107.452L105.58 57.8869V59.8789H104.556ZM108.02 59.8789V54.2789H109.932C110.588 54.2789 111.127 54.3962 111.548 54.6309C111.975 54.8602 112.29 55.1856 112.492 55.6069C112.7 56.0229 112.804 56.5136 112.804 57.0789C112.804 57.6442 112.7 58.1376 112.492 58.5589C112.29 58.9749 111.975 59.3002 111.548 59.5349C111.127 59.7642 110.588 59.8789 109.932 59.8789H108.02ZM109.044 58.9989H109.884C110.354 58.9989 110.724 58.9242 110.996 58.7749C111.268 58.6202 111.463 58.4016 111.58 58.1189C111.698 57.8309 111.756 57.4842 111.756 57.0789C111.756 56.6789 111.698 56.3349 111.58 56.0469C111.463 55.7589 111.268 55.5376 110.996 55.3829C110.724 55.2282 110.354 55.1509 109.884 55.1509H109.044V58.9989ZM116.244 59.9749C115.684 59.9749 115.193 59.8522 114.772 59.6069C114.356 59.3616 114.028 59.0229 113.788 58.5909C113.553 58.1536 113.436 57.6496 113.436 57.0789C113.436 56.5082 113.553 56.0069 113.788 55.5749C114.028 55.1376 114.356 54.7962 114.772 54.5509C115.193 54.3056 115.684 54.1829 116.244 54.1829C116.798 54.1829 117.286 54.3056 117.708 54.5509C118.129 54.7962 118.457 55.1376 118.692 55.5749C118.926 56.0069 119.044 56.5082 119.044 57.0789C119.044 57.6496 118.926 58.1536 118.692 58.5909C118.457 59.0229 118.129 59.3616 117.708 59.6069C117.286 59.8522 116.798 59.9749 116.244 59.9749ZM116.244 59.0549C116.777 59.0549 117.201 58.8789 117.516 58.5269C117.836 58.1749 117.996 57.6922 117.996 57.0789C117.996 56.4656 117.836 55.9829 117.516 55.6309C117.201 55.2789 116.777 55.1029 116.244 55.1029C115.71 55.1029 115.284 55.2789 114.964 55.6309C114.644 55.9829 114.484 56.4656 114.484 57.0789C114.484 57.6922 114.644 58.1749 114.964 58.5269C115.284 58.8789 115.71 59.0549 116.244 59.0549ZM119.86 59.8789V54.2789H121.076L122.86 57.8309L124.62 54.2789H125.836V59.8789H124.812V56.0149L123.252 59.0789H122.444L120.884 56.0149V59.8789H119.86ZM126.474 59.8789L128.522 54.2789H129.674L131.722 59.8789H130.634L130.186 58.5829H128.002L127.546 59.8789H126.474ZM128.282 57.7829H129.906L129.09 55.4549L128.282 57.7829ZM132.356 59.8789V54.2789H133.38V59.8789H132.356ZM134.377 59.8789V54.2789H135.401L138.033 58.2229V54.2789H139.057V59.8789H138.033L135.401 55.9429V59.8789H134.377ZM140.471 59.9349C140.284 59.9349 140.129 59.8762 140.007 59.7589C139.889 59.6416 139.831 59.5002 139.831 59.3349C139.831 59.1642 139.889 59.0202 140.007 58.9029C140.129 58.7856 140.284 58.7269 140.471 58.7269C140.657 58.7269 140.809 58.7856 140.927 58.9029C141.049 59.0202 141.111 59.1642 141.111 59.3349C141.111 59.5002 141.049 59.6416 140.927 59.7589C140.809 59.8762 140.657 59.9349 140.471 59.9349ZM144.182 59.9749C143.617 59.9749 143.132 59.8549 142.726 59.6149C142.321 59.3696 142.009 59.0309 141.79 58.5989C141.572 58.1616 141.462 57.6576 141.462 57.0869C141.462 56.5162 141.572 56.0122 141.79 55.5749C142.009 55.1376 142.321 54.7962 142.726 54.5509C143.132 54.3056 143.617 54.1829 144.182 54.1829C144.854 54.1829 145.404 54.3509 145.83 54.6869C146.262 55.0176 146.532 55.4842 146.638 56.0869H145.51C145.441 55.7829 145.292 55.5456 145.062 55.3749C144.838 55.1989 144.54 55.1109 144.166 55.1109C143.649 55.1109 143.244 55.2869 142.95 55.6389C142.657 55.9909 142.51 56.4736 142.51 57.0869C142.51 57.7002 142.657 58.1829 142.95 58.5349C143.244 58.8816 143.649 59.0549 144.166 59.0549C144.54 59.0549 144.838 58.9749 145.062 58.8149C145.292 58.6496 145.441 58.4229 145.51 58.1349H146.638C146.532 58.7109 146.262 59.1616 145.83 59.4869C145.404 59.8122 144.854 59.9749 144.182 59.9749ZM150.081 59.9749C149.521 59.9749 149.03 59.8522 148.609 59.6069C148.193 59.3616 147.865 59.0229 147.625 58.5909C147.39 58.1536 147.273 57.6496 147.273 57.0789C147.273 56.5082 147.39 56.0069 147.625 55.5749C147.865 55.1376 148.193 54.7962 148.609 54.5509C149.03 54.3056 149.521 54.1829 150.081 54.1829C150.635 54.1829 151.123 54.3056 151.545 54.5509C151.966 54.7962 152.294 55.1376 152.529 55.5749C152.763 56.0069 152.881 56.5082 152.881 57.0789C152.881 57.6496 152.763 58.1536 152.529 58.5909C152.294 59.0229 151.966 59.3616 151.545 59.6069C151.123 59.8522 150.635 59.9749 150.081 59.9749ZM150.081 59.0549C150.614 59.0549 151.038 58.8789 151.353 58.5269C151.673 58.1749 151.833 57.6922 151.833 57.0789C151.833 56.4656 151.673 55.9829 151.353 55.6309C151.038 55.2789 150.614 55.1029 150.081 55.1029C149.547 55.1029 149.121 55.2789 148.801 55.6309C148.481 55.9829 148.321 56.4656 148.321 57.0789C148.321 57.6922 148.481 58.1749 148.801 58.5269C149.121 58.8789 149.547 59.0549 150.081 59.0549ZM153.697 59.8789V54.2789H154.913L156.697 57.8309L158.457 54.2789H159.673V59.8789H158.649V56.0149L157.089 59.0789H156.281L154.721 56.0149V59.8789H153.697ZM160.311 60.7669L162.311 53.6629H163.311L161.303 60.7669H160.311ZM165.863 59.9749C165.452 59.9749 165.089 59.9056 164.775 59.7669C164.46 59.6229 164.212 59.4202 164.031 59.1589C163.849 58.8922 163.756 58.5696 163.751 58.1909H164.831C164.841 58.4522 164.935 58.6736 165.111 58.8549C165.292 59.0309 165.54 59.1189 165.855 59.1189C166.127 59.1189 166.343 59.0549 166.503 58.9269C166.663 58.7936 166.743 58.6176 166.743 58.3989C166.743 58.1696 166.671 57.9909 166.527 57.8629C166.388 57.7349 166.201 57.6309 165.967 57.5509C165.732 57.4709 165.481 57.3856 165.215 57.2949C164.783 57.1456 164.452 56.9536 164.223 56.7189C163.999 56.4842 163.887 56.1722 163.887 55.7829C163.881 55.4522 163.959 55.1696 164.119 54.9349C164.284 54.6949 164.508 54.5109 164.791 54.3829C165.073 54.2496 165.399 54.1829 165.767 54.1829C166.14 54.1829 166.468 54.2496 166.751 54.3829C167.039 54.5162 167.263 54.7029 167.423 54.9429C167.588 55.1829 167.676 55.4682 167.687 55.7989H166.591C166.585 55.6016 166.508 55.4282 166.359 55.2789C166.215 55.1242 166.012 55.0469 165.751 55.0469C165.527 55.0416 165.337 55.0976 165.183 55.2149C165.033 55.3269 164.959 55.4922 164.959 55.7109C164.959 55.8976 165.017 56.0469 165.135 56.1589C165.252 56.2656 165.412 56.3562 165.615 56.4309C165.817 56.5056 166.049 56.5856 166.311 56.6709C166.588 56.7669 166.841 56.8789 167.071 57.0069C167.3 57.1349 167.484 57.3056 167.623 57.5189C167.761 57.7269 167.831 57.9962 167.831 58.3269C167.831 58.6202 167.756 58.8922 167.607 59.1429C167.457 59.3936 167.236 59.5962 166.943 59.7509C166.649 59.9002 166.289 59.9749 165.863 59.9749ZM168.276 60.7669L170.276 53.6629H171.276L169.268 60.7669H168.276ZM173.827 59.9749C173.417 59.9749 173.054 59.9056 172.739 59.7669C172.425 59.6229 172.177 59.4202 171.995 59.1589C171.814 58.8922 171.721 58.5696 171.715 58.1909H172.795C172.806 58.4522 172.899 58.6736 173.075 58.8549C173.257 59.0309 173.505 59.1189 173.819 59.1189C174.091 59.1189 174.307 59.0549 174.467 58.9269C174.627 58.7936 174.707 58.6176 174.707 58.3989C174.707 58.1696 174.635 57.9909 174.491 57.8629C174.353 57.7349 174.166 57.6309 173.931 57.5509C173.697 57.4709 173.446 57.3856 173.179 57.2949C172.747 57.1456 172.417 56.9536 172.187 56.7189C171.963 56.4842 171.851 56.1722 171.851 55.7829C171.846 55.4522 171.923 55.1696 172.083 54.9349C172.249 54.6949 172.473 54.5109 172.755 54.3829C173.038 54.2496 173.363 54.1829 173.731 54.1829C174.105 54.1829 174.433 54.2496 174.715 54.3829C175.003 54.5162 175.227 54.7029 175.387 54.9429C175.553 55.1829 175.641 55.4682 175.651 55.7989H174.555C174.55 55.6016 174.473 55.4282 174.323 55.2789C174.179 55.1242 173.977 55.0469 173.715 55.0469C173.491 55.0416 173.302 55.0976 173.147 55.2149C172.998 55.3269 172.923 55.4922 172.923 55.7109C172.923 55.8976 172.982 56.0469 173.099 56.1589C173.217 56.2656 173.377 56.3562 173.579 56.4309C173.782 56.5056 174.014 56.5856 174.275 56.6709C174.553 56.7669 174.806 56.8789 175.035 57.0069C175.265 57.1349 175.449 57.3056 175.587 57.5189C175.726 57.7269 175.795 57.9962 175.795 58.3269C175.795 58.6202 175.721 58.8922 175.571 59.1429C175.422 59.3936 175.201 59.5962 174.907 59.7509C174.614 59.9002 174.254 59.9749 173.827 59.9749ZM177.807 59.8789V57.8869L175.927 54.2789H177.087L178.327 56.8629L179.559 54.2789H180.703L178.831 57.8869V59.8789H177.807ZM181.103 59.8789V59.0949L183.679 55.1349H181.127V54.2789H184.863V55.0629L182.271 59.0229H184.879V59.8789H181.103Z" fill="black"/>
<rect x="36.9477" y="176.865" width="138.705" height="4.2399" rx="2.11995" fill="#D9D9D9"/>
<rect x="36.9477" y="198.67" width="138.705" height="4.2399" rx="2.11995" fill="#D9D9D9"/>
<rect x="36.9477" y="220.475" width="138.705" height="4.2399" rx="2.11995" fill="#D9D9D9"/>
<rect x="190.19" y="172.019" width="32.7078" height="14.5368" rx="7.26841" fill="black"/>
<rect x="190.19" y="193.824" width="32.7078" height="14.5368" rx="7.26841" fill="black"/>
<rect x="190.19" y="215.629" width="32.7078" height="14.5368" rx="7.26841" fill="#008000"/>
<circle cx="215.024" cy="179.287" r="6.05701" fill="white"/>
<circle cx="215.024" cy="201.093" r="6.05701" fill="white"/>
<circle cx="198.064" cy="222.898" r="6.05701" fill="white"/>
<circle cx="69.0499" cy="105.998" r="4.34561" fill="#0096A9" stroke="black"/>
<circle cx="85.4038" cy="105.998" r="4.34561" fill="#0096A9" stroke="black"/>
<circle cx="101.758" cy="105.998" r="4.34561" fill="#0096A9" stroke="black"/>
<circle cx="118.112" cy="105.998" r="4.34561" fill="#0096A9" stroke="black"/>
<circle cx="134.466" cy="105.998" r="4.34561" fill="#0096A9" stroke="black"/>
<circle cx="150.819" cy="105.998" r="4.34561" fill="#0096A9" stroke="black"/>
<circle cx="167.173" cy="105.998" r="4.34561" fill="#0096A9" stroke="black"/>
<circle cx="183.527" cy="105.998" r="4.34561" fill="#0096A9" stroke="black"/>
<rect x="24.5166" y="145.657" width="206.572" height="135.1" stroke="black" stroke-width="3"/>
</svg>
