<svg width="73" height="125" viewBox="0 0 73 125" fill="none" xmlns="http://www.w3.org/2000/svg">
<path d="M26.755 29.4006C26.7857 29.5132 26.826 29.6229 26.8754 29.7284C26.9841 29.9539 27.2267 30.0753 27.4422 30.1845C27.9065 30.4134 28.3213 30.7348 28.6624 31.1298C28.9203 31.4662 29.0951 31.8149 29.4159 32.1184C29.7263 32.4416 30.1338 32.6493 30.5732 32.7081C30.7614 32.7215 30.9503 32.6955 31.1283 32.6317C31.3063 32.5679 31.4697 32.4676 31.6084 32.3369C31.8969 32.0611 32.1175 31.6154 31.9716 31.2338C31.7994 30.8304 31.5707 30.4547 31.2927 30.1186C30.7836 29.4578 30.1048 28.9046 29.2937 28.7068C28.8963 28.6019 28.491 28.5311 28.082 28.4952C27.7783 28.4744 27.0944 28.4311 26.8619 28.6583C26.7924 28.7323 26.7448 28.8249 26.7244 28.9254C26.6971 29.084 26.7076 29.247 26.755 29.4006Z" fill="#22221C"/>
<path d="M49.3828 38.7264C49.0603 40.0827 48.648 41.4268 48.3154 42.8646C47.6942 45.5338 47.718 48.3106 47.4584 51.0423C47.1987 53.7739 46.6099 56.5923 44.9723 58.7568C44.5769 59.2771 44.0695 59.7975 43.4246 59.8686C39.1363 60.375 43.1429 38.1748 43.2277 35.5178C43.3618 31.3101 42.5235 27.158 45.1267 23.4984C45.478 23.0076 45.8971 22.4804 46.4843 22.3954C47.0205 22.3191 47.5517 22.6503 47.8724 23.0995C48.1932 23.5487 48.3408 24.0968 48.4766 24.6327C49.2736 27.7601 49.7479 30.9643 49.8919 34.1927C49.958 35.8057 49.7222 37.273 49.3828 38.7264Z" fill="#EF80A5"/>
<path opacity="0.13" d="M3.76055 124.112C15.402 124.821 27.0678 125.105 38.7579 124.965C44.8315 124.892 50.9084 125.057 56.9786 124.823C58.6756 124.757 72.5605 124.45 70.0354 121.847C67.2913 119.022 57.2518 119.055 53.2469 119.056C42.8409 119.056 32.4518 119.434 22.0577 119.792C17.0769 119.965 12.081 120.007 7.10874 120.279C5.52204 120.366 0.622791 120.071 0.0610823 121.817C-0.446322 123.392 2.3164 124.024 3.76055 124.112Z" fill="#191E2C"/>
<path d="M56.9871 46.5988C56.5102 45.6605 55.3223 45.2824 54.3041 45.4992C53.2859 45.716 52.4374 46.4097 51.7145 47.1676C50.16 48.8014 49.0094 51.3128 50.0616 53.3195C50.8643 54.8492 52.6376 55.5118 54.2769 55.9575C56.8903 56.6686 59.6564 57.1976 61.8116 58.8661C62.8384 59.6607 63.6771 60.6811 64.2656 61.8518C64.8542 63.0226 65.1776 64.3136 65.2118 65.6294C65.246 66.9452 64.9902 68.2519 64.4633 69.453C63.9364 70.654 63.152 71.7186 62.168 72.5678C61.1057 73.4853 59.8431 74.1287 58.718 74.9629C57.2547 76.0567 56.0393 77.4599 55.1543 79.0769C53.8714 81.4183 53.3402 84.4015 54.5773 86.7672C55.1322 87.8252 55.9943 88.675 56.9005 89.4434C58.494 90.7823 60.4455 91.9409 62.5006 91.7241" stroke="#22221C" stroke-miterlimit="10"/>
<path d="M50.9746 53.9213C51.5633 53.6247 52.0987 53.2283 52.5579 52.7489C52.9244 52.3847 53.2604 51.9563 53.3758 51.4481C53.4912 50.9399 53.3351 50.3364 52.899 50.0606C52.6535 49.9277 52.3791 49.8602 52.1014 49.8646C51.241 49.8317 50.2211 49.9496 49.5372 50.5289C48.295 51.5799 48.6174 54.7556 50.6725 54.041C50.7743 54.0081 50.8744 53.9682 50.9746 53.9213Z" fill="#EF80A5"/>
<path d="M13.9935 110.83H50.6488C50.7261 110.83 50.8027 110.846 50.8741 110.876C50.9456 110.906 51.0105 110.95 51.0652 111.006C51.1198 111.062 51.1632 111.128 51.1928 111.202C51.2224 111.275 51.2376 111.353 51.2376 111.432V112.646C51.2376 112.725 51.2224 112.803 51.1928 112.876C51.1632 112.949 51.1198 113.016 51.0652 113.071C51.0105 113.127 50.9456 113.172 50.8741 113.202C50.8027 113.232 50.7261 113.248 50.6488 113.248H13.9935V110.82V110.83Z" fill="#E11F45"/>
<path d="M50.552 51.0735L63.0199 43.2775" stroke="#22221C" stroke-width="4" stroke-miterlimit="10"/>
<path d="M41.7361 27.2378C42.0028 27.5825 42.3132 27.8893 42.6593 28.1501C42.9681 28.3773 43.3041 28.5629 43.6147 28.7866C44.8179 29.6538 45.5493 31.0275 46.2959 32.3231C46.3566 32.4469 46.4415 32.5567 46.5454 32.6457C46.8033 32.8382 47.1631 32.7376 47.4601 32.6162C48.088 32.3578 51.0951 30.9945 50.9254 30.3875C50.2805 28.0877 50.0633 25.7046 49.7188 23.3424C49.4303 21.3773 49.2606 18.4549 47.8928 16.9252C47.3107 16.2748 46.5776 15.7909 45.8564 15.3122L45.0249 14.7659C44.7719 14.5826 44.4963 14.4345 44.2052 14.3253C43.1174 13.9784 40.2733 14.634 39.5945 15.6539C38.9157 16.6737 39.5249 17.9398 39.6895 19.0238C39.8422 20.0228 39.9542 21.0287 40.1273 22.0243C40.2563 22.7666 40.2597 23.5349 40.409 24.2564C40.6238 25.3404 41.0777 26.3601 41.7361 27.2378Z" fill="#F4B708"/>
<path d="M13.1314 105.584C13.1077 106.56 13.8102 107.184 13.9171 107.219C15.2086 107.66 15.3579 106.444 16.6493 106.884C17.3281 105.006 18.4939 102.812 19.1744 100.934C19.3557 100.512 19.4703 100.064 19.5138 99.6052C19.5902 97.7303 16.7223 95.8138 15.2713 97.3019C14.5925 97.9956 14.4076 99.8809 14.1462 100.797C13.7678 102.132 13.1654 104.208 13.1314 105.584Z" fill="#EF80A5"/>
<path d="M40.1664 109.895C38.7969 109.895 37.4257 109.973 36.0613 110.105C36.0613 107.928 36.0613 105.751 36.0613 103.575C36.0613 102.404 36.1071 101.104 36.9098 100.264C37.1898 99.9778 37.5382 99.7712 37.9204 99.6647C38.3025 99.5582 38.7053 99.5556 39.0888 99.6572C40.9996 100.19 40.6483 101.565 40.5397 103.126C40.37 105.382 40.2869 107.641 40.1664 109.895Z" fill="#EF80A5"/>
<path d="M20.7408 83.8205C20.2215 84.5142 19.5376 85.0883 18.9216 85.7075C16.4066 88.2397 15.7584 91.2211 14.747 94.4922C14.282 95.9993 11.9452 100.316 12.7784 101.787C13.6558 103.334 23.3338 103.261 25.0647 102.923C25.842 98.4847 26.1372 94.9119 28.3671 90.8916C30.4629 87.1089 33.2035 83.7511 35.8169 80.3396C37.334 78.3537 38.841 76.3071 39.6929 73.9449C41.3661 69.3089 41.0505 63.3166 41.4102 58.4238C41.6563 55.021 41.8803 48.8726 37.9738 47.4539C36.567 46.9422 34.9735 47.4053 33.7143 48.2274C30.7327 50.1751 29.2903 53.8329 28.5096 57.3676C27.729 60.9023 27.3845 64.5879 25.8148 67.8294C24.5268 70.49 22.4208 72.8193 21.9338 75.7452C21.5027 78.3155 22.3495 81.1946 21.0208 83.4216C20.9345 83.5596 20.841 83.6927 20.7408 83.8205Z" fill="#22221C"/>
<path d="M34.3422 104.404C33.694 104.03 33.2969 103.521 33.302 102.874C33.324 99.8393 34.1505 96.7035 33.1917 93.8313C32.8217 92.7283 32.2006 91.7258 31.8443 90.6192C30.4391 86.2503 33.4021 81.6733 33.3885 77.0754C33.3784 73.3604 31.4115 69.7303 32.07 66.0759C32.2397 65.096 32.6096 64.1577 32.7606 63.1743C33.1272 60.8034 32.316 58.2556 31.6287 56.013C31.1095 54.3151 29.8452 52.9102 29.555 51.1567C29.3123 49.6998 29.5635 48.2083 29.8146 46.7566L30.2168 44.4169C30.2949 43.9712 30.3781 43.5098 30.6326 43.1404C31.3521 42.0998 32.8964 42.3374 34.1132 42.6322C36.1937 43.1369 38.634 43.7353 40.7858 43.5983C42.0127 43.522 43.6537 42.6305 44.8094 43.3572C48.4698 45.6587 47.864 52.6084 47.5721 56.2784C46.4283 70.542 43.3686 84.8125 44.94 99.0328C45.0826 100.321 45.2523 101.679 44.75 102.871C43.7386 105.273 36.9692 105.93 34.3422 104.404Z" fill="#0096A9"/>
<path d="M46.5097 111.364C45.521 110.74 44.4821 110.203 43.4042 109.758C42.3996 109.342 41.6054 109.375 40.891 108.424C40.7325 108.173 40.5419 107.943 40.3242 107.743C40.1031 107.573 39.83 107.488 39.5537 107.505C39.4159 107.506 39.2813 107.548 39.1671 107.627C39.0529 107.705 38.9641 107.817 38.9123 107.947C38.7816 108.405 39.3263 108.872 39.1651 109.321C38.802 109.252 35.6659 109.089 35.671 109.288C35.6978 110.483 35.7867 111.676 35.9374 112.861C35.9376 112.923 35.9497 112.984 35.973 113.04C35.9963 113.097 36.0303 113.149 36.0732 113.192C36.1585 113.244 36.2581 113.265 36.3566 113.253L48.1881 113.165C47.9369 112.356 47.2157 111.81 46.5097 111.364Z" fill="#22221C"/>
<path d="M14.4092 105.708C13.8662 105.49 13.3283 105.258 12.7937 105.015C12.4019 106.061 12.0621 107.127 11.7755 108.208C11.7519 108.265 11.7398 108.326 11.7398 108.387C11.7398 108.449 11.7519 108.51 11.7755 108.567C11.8344 108.65 11.9185 108.711 12.0148 108.74L22.9808 113.281C23.0504 112.436 22.5871 111.649 22.1018 110.962C21.3819 109.939 20.5731 108.984 19.6852 108.109C19.2779 107.707 18.5771 107.297 18.2852 106.808C17.9933 106.319 17.9203 105.74 17.5708 105.247C17.3043 104.869 16.9208 104.444 16.4796 104.553C15.8245 104.727 16.1911 105.332 15.9603 105.759C15.6124 106.413 14.9133 105.91 14.4092 105.708Z" fill="#22221C"/>
<path d="M43.1039 109.082C43.1673 109.294 43.1784 109.519 43.1362 109.737C43.0941 109.954 43 110.158 42.8623 110.33C42.7247 110.501 42.5477 110.635 42.347 110.72C42.1464 110.805 41.9284 110.838 41.7123 110.816" fill="#00A798"/>
<path d="M42.1892 108.575C42.2523 108.795 42.2479 109.029 42.1766 109.246C42.1052 109.464 41.9704 109.653 41.7904 109.789C41.4199 110.055 40.9623 110.162 40.5159 110.086" fill="#00A798"/>
<path d="M20.0365 107.318L19.2219 107.618C18.7841 107.777 18.2835 108.008 18.1817 108.473" fill="#00A798"/>
<path d="M20.8731 108.558C20.4932 108.436 20.0817 108.471 19.7263 108.654C19.371 108.838 19.0999 109.156 18.9708 109.541" fill="#00A798"/>
<path d="M44.4614 50.4439C44.3664 52.9293 42.2553 55.1614 39.8201 55.3349L44.4614 50.4439Z" fill="#22221C"/>
<path d="M49.3709 51.7534L53.5897 49.1136" stroke="#D8494E" stroke-width="4" stroke-miterlimit="10" stroke-linecap="round"/>
<path d="M9.24696 113.253H48.5139C50.1466 113.253 51.7352 112.711 53.0398 111.708L63.2591 103.849" stroke="#22221C" stroke-width="5" stroke-miterlimit="10"/>
<path d="M56.8564 47.2405L64.0466 109.512" stroke="#22221C" stroke-width="5" stroke-miterlimit="10"/>
<path d="M69.372 117.568C70.0566 114.624 68.2765 111.67 65.3961 110.971C62.5156 110.271 59.6255 112.09 58.9409 115.034C58.2563 117.978 60.0363 120.932 62.9168 121.631C65.7973 122.331 68.6873 120.512 69.372 117.568Z" fill="#22221C"/>
<path d="M13.0382 120.184C15.1317 118.044 15.1317 114.575 13.0382 112.435C10.9447 110.296 7.55036 110.296 5.45682 112.435C3.36329 114.575 3.36329 118.044 5.45683 120.184C7.55036 122.323 10.9447 122.323 13.0382 120.184Z" fill="#22221C"/>
<path d="M16.3201 118.29C15.8515 118.29 15.4022 118.099 15.0709 117.761C14.7396 117.422 14.5535 116.963 14.5535 116.484C14.5661 115.764 14.4382 115.048 14.1772 114.379C13.9162 113.71 13.5274 113.101 13.0335 112.587C12.5396 112.073 11.9504 111.665 11.3004 111.386C10.6504 111.107 9.95266 110.964 9.24781 110.964C8.54296 110.964 7.84517 111.107 7.19519 111.386C6.54521 111.665 5.95605 112.073 5.46212 112.587C4.9682 113.101 4.57939 113.71 4.31842 114.379C4.05744 115.048 3.92952 115.764 3.94213 116.484C3.94213 116.963 3.75601 117.422 3.42471 117.761C3.09341 118.099 2.64407 118.29 2.17555 118.29C1.70702 118.29 1.25768 118.099 0.926385 117.761C0.595087 117.422 0.408966 116.963 0.408966 116.484C0.408966 111.503 6.2772 107.45 9.24696 107.45C11.5906 107.452 13.8374 108.405 15.4946 110.099C17.1518 111.793 18.084 114.089 18.0866 116.484C18.0866 116.963 17.9005 117.422 17.5692 117.761C17.2379 118.099 16.7886 118.29 16.3201 118.29Z" fill="#00A798"/>
<path d="M71.2317 118.29C70.7632 118.29 70.3139 118.099 69.9826 117.761C69.6513 117.422 69.4651 116.963 69.4651 116.484C69.4651 115.046 68.9062 113.667 67.9114 112.65C66.9165 111.634 65.5672 111.062 64.1603 111.062C62.7534 111.062 61.4041 111.634 60.4092 112.65C59.4144 113.667 58.8555 115.046 58.8555 116.484C58.8412 116.954 58.6488 117.399 58.3189 117.726C57.989 118.053 57.5475 118.235 57.088 118.235C56.6286 118.235 56.1871 118.053 55.8572 117.726C55.5273 117.399 55.3349 116.954 55.3206 116.484C55.3233 114.089 56.2555 111.793 57.9127 110.099C59.5699 108.405 61.8167 107.452 64.1603 107.45C70.9381 107.45 73 111.503 73 116.484C72.9996 116.963 72.8131 117.422 72.4815 117.761C72.1499 118.099 71.7004 118.29 71.2317 118.29Z" fill="#00A798"/>
<path d="M43.4585 47.074C43.7521 47.0567 44.0474 47.0445 44.3427 47.0428C45.3337 47.0324 46.3791 47.1035 47.2649 46.6508C49.0892 45.7229 47.9912 43.8758 48.0964 42.3322C48.4279 37.5152 48.588 32.6913 48.5767 27.8605C48.5767 25.7272 48.8228 23.2869 48.4155 21.1918C48.0506 19.3134 46.508 17.9953 45.6595 16.3563C45.2913 15.6452 45.0028 14.8179 44.3274 14.4034C43.1751 13.6975 41.4052 14.3392 40.1222 14.2299C38.4897 14.0946 37.6378 15.0971 36.7282 16.4083C34.3847 19.7886 33.2324 23.8228 32.4603 27.8449C31.7221 31.6917 32.523 35.3895 30.5935 39.0265C29.4837 41.1216 27.8257 42.9167 27.0078 45.1471C26.7889 45.7455 26.6344 46.4115 26.8381 47.0168C27.1656 48.0106 28.2907 48.4546 29.3038 48.635C34.0011 49.4744 38.6916 47.3671 43.4585 47.074Z" fill="#F4B708"/>
<path d="M62.4752 97.5255C61.9638 97.5244 61.4705 97.3318 61.0887 96.9841C60.7068 96.6363 60.4629 96.1576 60.4032 95.6385L57.2518 68.0947C57.2201 67.8164 57.2423 67.5344 57.3171 67.2648C57.392 66.9952 57.5181 66.7434 57.6882 66.5236C57.8583 66.3039 58.0691 66.1205 58.3086 65.984C58.548 65.8475 58.8114 65.7606 59.0837 65.7281C59.3561 65.6956 59.632 65.7183 59.8957 65.7949C60.1595 65.8714 60.4059 66.0003 60.6209 66.1741C60.8359 66.348 61.0154 66.5634 61.1489 66.8081C61.2825 67.0528 61.3676 67.3221 61.3993 67.6004L64.5523 95.1425C64.5843 95.4208 64.5623 95.7029 64.4875 95.9725C64.4128 96.2421 64.2868 96.4941 64.1167 96.7139C63.9467 96.9338 63.7359 97.1172 63.4965 97.2538C63.2571 97.3904 62.9936 97.4774 62.7213 97.5099C62.6396 97.5202 62.5575 97.5255 62.4752 97.5255Z" fill="#E11F45"/>
<path d="M39.7201 31.1333C39.827 30.1585 39.8236 29.1751 39.8813 28.1969C39.8456 27.9559 39.8049 27.72 39.7557 27.4858C39.2381 28.112 38.712 28.7329 38.1724 29.3416C38.057 29.4717 38.3336 30.0094 38.3421 30.1707C38.3642 30.4985 38.2623 30.8991 38.2318 31.2339C38.1772 31.7207 38.0519 32.1965 37.8601 32.6456C37.8058 32.7792 37.351 33.9343 37.2492 33.9239C37.5592 33.9567 37.8712 33.9665 38.1826 33.9534C38.4386 33.94 38.6843 33.8464 38.8865 33.6854C39.0887 33.5244 39.2375 33.3037 39.3128 33.0532C39.5085 32.4281 39.6449 31.7851 39.7201 31.1333Z" fill="#22221C"/>
<path d="M34.4814 42.0929C36.1665 43.2237 37.9976 44.0493 40.0001 44.8037C42.7048 45.826 45.2972 47.1351 47.735 48.7096C47.8948 48.798 48.0375 48.9155 48.1559 49.0564C48.3612 49.3357 48.3544 49.7155 48.4511 50.052C48.7804 51.2123 50.0395 51.4863 50.3178 52.7784C50.3358 52.9642 50.4241 53.1353 50.5639 53.2554C50.7052 53.3262 50.867 53.3417 51.0187 53.2988C51.969 53.1253 52.6818 52.5096 53.1943 51.7031C53.8069 50.7423 53.3911 49.9063 52.7972 48.9975C52.3403 48.3402 51.8293 47.724 51.2699 47.1556L48.5988 44.2713C47.8266 43.437 47.0545 42.6045 46.2331 41.8223C44.5277 40.1972 42.605 38.8097 40.8265 37.2487C39.8524 36.3954 38.8936 35.4519 38.4015 34.2413C38.1997 33.7339 38.0738 33.1983 38.0281 32.6526C37.9325 31.4889 38.0476 30.3171 38.3675 29.196C38.5661 28.5126 38.9615 27.9611 39.1142 27.2483C39.3731 26.0534 39.4504 24.8249 39.3433 23.606C39.0972 20.9715 37.5699 19.1573 34.8632 20.1685C33.246 20.7721 31.3759 22 30.765 23.7032C30.468 24.527 30.3577 25.4081 30.2559 26.2787L29.6042 31.5599C29.3361 33.7297 29.0951 36.085 30.2033 37.9598C30.6088 38.6536 31.1688 39.2259 31.7306 39.7948C32.5672 40.6561 33.4891 41.4262 34.4814 42.0929Z" fill="#EF80A5"/>
<path d="M40.2902 25.8295C40.3462 24.827 40.28 23.8332 40.3411 22.7891C40.4005 21.7884 40.5244 20.798 40.6364 19.8025C40.745 18.8434 40.9198 17.8686 40.8995 16.8991C40.8825 16.1464 40.7569 15.3538 41.0284 14.634C40.8706 14.5716 40.706 14.5143 40.5346 14.4606C37.6158 13.6419 34.2761 15.5931 32.8031 18.1375C32.0123 19.5042 31.5354 21.0322 30.8736 22.4734C30.3047 23.6875 29.662 24.864 28.9492 25.996C28.3586 26.9499 27.7613 27.9818 26.8534 28.6704C27.7358 28.4779 28.0939 29.2826 28.4485 29.8706C28.8813 30.5886 29.0306 31.5252 29.8571 31.8929C30.8379 32.33 31.9478 32.1843 32.9795 32.2762C33.7517 32.3438 34.5221 32.408 35.2926 32.4912C35.5335 32.5173 38.7833 32.8641 38.7222 33.1C39.2211 31.1575 39.6833 29.2063 40.1087 27.2465C40.2068 26.78 40.2675 26.3061 40.2902 25.8295Z" fill="#F4B708"/>
<path d="M41.6071 4.75843C42.8849 2.10134 45.1963 0.0148777 47.9047 2.72399C48.7532 3.56343 48.519 4.69252 48.7803 5.8771C49.0062 6.89122 48.8771 7.95416 48.4155 8.88106C47.6858 10.3067 46.1585 9.99974 45.6629 11.8104C45.3422 12.976 45.0181 14.2022 45.2828 15.3815C45.3356 15.5297 45.3415 15.6911 45.2998 15.8429C45.2577 15.9269 45.1966 15.9994 45.1216 16.0545C44.2629 16.7829 43.0326 16.8506 41.9448 16.6095C41.2473 16.4551 40.4175 16.195 39.8388 15.7423C38.9445 15.0485 39.3433 14.7728 39.698 13.7824C40.3394 11.9873 40.3666 10.0448 40.5804 8.1665C40.7385 6.98086 41.0853 5.82964 41.6071 4.75843Z" fill="#EF80A5"/>
<path d="M48.2577 2.3008C47.8555 1.81864 47.3633 1.29312 46.7405 1.13182C46.3532 1.04712 45.957 1.01158 45.5611 1.02603L42.2044 1.00001C41.7601 0.975041 41.3145 1.01416 40.8808 1.11622C39.2058 1.59491 38.4727 3.2339 37.8669 4.72374C37.5275 5.54411 37.1525 6.37141 36.5093 6.97845C37.332 7.66331 38.274 8.18294 39.2856 8.50991C39.4023 9.37143 39.6794 10.2021 40.1019 10.9571C40.1395 11.0193 40.1921 11.0707 40.2546 11.1063C40.4735 10.7195 40.6924 10.3293 40.9334 9.95986C41.4001 9.27651 41.9686 8.61397 42.291 7.8387C42.3129 7.78074 42.3471 7.72845 42.3911 7.68557C42.4351 7.64269 42.4879 7.61029 42.5455 7.59069C42.6728 7.37389 42.8018 7.15882 42.924 6.93856C42.9647 6.55005 43.0054 6.14767 43.4721 6.02974C43.725 5.96556 43.9931 6.07483 44.251 6.02974C44.677 5.96556 44.957 5.50942 45.0062 5.07582C45.052 4.66824 44.7754 3.54609 45.3829 3.47151C45.5166 3.46769 45.649 3.49863 45.7677 3.56142C45.8864 3.62422 45.9876 3.71682 46.0617 3.83053C46.2314 4.0456 46.3299 4.29882 46.4894 4.52429C46.5183 4.57192 46.5602 4.60989 46.6099 4.63355C46.6694 4.64799 46.7318 4.64499 46.7898 4.62488L49.3234 3.97796C49.3115 3.97969 48.3764 2.44129 48.2577 2.3008Z" fill="#292622"/>
<path d="M44.38 6.694C44.5106 7.36347 44.2255 8.10579 43.6469 8.61743C43.5175 8.74262 43.3594 8.83253 43.1871 8.8789C43.0148 8.92527 42.8338 8.92661 42.6609 8.88279C41.3915 8.46307 41.865 6.33325 42.6609 5.68459C42.7803 5.55224 42.9439 5.47032 43.1194 5.45492C43.2949 5.43951 43.4698 5.49174 43.6095 5.60134C43.8045 5.71957 43.9736 5.87762 44.1061 6.06562C44.2387 6.25362 44.3319 6.46753 44.38 6.694Z" fill="#EF80A5"/>
<path d="M43.6435 6.58993C43.6121 6.51173 43.5525 6.44887 43.477 6.41433C43.4015 6.37979 43.3159 6.37621 43.238 6.40435C43.0833 6.46417 42.9538 6.57695 42.8714 6.72347C42.7252 6.92276 42.6531 7.16862 42.6678 7.41723C42.6775 7.53864 42.727 7.65314 42.8083 7.74222C42.8896 7.83129 42.9979 7.88972 43.1158 7.90806" fill="#292622"/>
<path d="M66.5924 116.908C66.9102 115.537 66.0804 114.162 64.7389 113.837C63.3974 113.512 62.0522 114.36 61.7343 115.731C61.4164 117.102 62.2463 118.477 63.5878 118.802C64.9293 119.127 66.2745 118.279 66.5924 116.908Z" fill="#F4B708"/>
<path d="M11.7113 116.722C11.9327 115.331 11.009 114.021 9.64825 113.794C8.28748 113.568 7.00489 114.512 6.78352 115.903C6.56215 117.294 7.48582 118.604 8.84659 118.831C10.2074 119.057 11.4899 118.113 11.7113 116.722Z" fill="#F4B708"/>
<path d="M35.3876 81.6317C35.3076 83.4707 34.6004 85.2231 33.3885 86.5851L35.3876 81.6317Z" fill="#22221C"/>
<path d="M47.5721 9.93558C47.2218 10.152 46.8206 10.2671 46.4113 10.2686C46.0044 10.2707 45.5989 10.2194 45.2048 10.116C45.3089 10.4972 45.5558 10.8213 45.8921 11.0178C46.2282 11.2103 46.6128 11.2961 46.9968 11.2641" fill="#292622"/>
<path d="M47.7299 5.78345C47.7094 6.06063 47.7789 6.33701 47.9277 6.56969C48.0765 6.80238 48.2963 6.97837 48.553 7.07036" fill="#292622"/>
<path d="M49.4795 30.8193C49.275 30.4152 49.1046 29.994 48.9704 29.5602C48.8635 29.2133 48.7549 28.856 48.6479 28.5039C48.5529 28.1917 48.3611 27.8102 48.3357 27.4858C48.4545 29.0242 48.6327 30.5609 48.5886 32.0993C48.7583 31.99 48.95 31.9016 49.1316 31.801C49.3621 31.685 49.581 31.5462 49.7849 31.3865C49.6797 31.1992 49.5745 31.0049 49.4795 30.8193Z" fill="#22221C"/>
<path d="M30.546 35.1085C30.4488 35.2859 30.4 35.4868 30.4047 35.6901C30.4094 35.8934 30.4673 36.0917 30.5726 36.2642C30.6778 36.4368 30.8265 36.5774 31.003 36.6712C31.1795 36.7651 31.3774 36.8088 31.5761 36.7977" fill="#22221C"/>
<path d="M38.7782 33.1711C39.0871 31.1818 39.457 30.0804 40.1053 27.9471" stroke="#22221C" stroke-width="0.5" stroke-miterlimit="10"/>
<path d="M48.6175 29.0971L48.1185 26.0844C48.0567 25.5884 47.9353 25.102 47.7571 24.6362" stroke="#22221C" stroke-width="0.5" stroke-miterlimit="10"/>
<path d="M48.1219 43.8394C48.4778 44.0469 48.7899 44.3246 49.0399 44.6563C49.1589 44.839 49.2966 45.0082 49.4506 45.161C49.5677 45.2633 49.7221 45.3605 49.7306 45.5183" stroke="#22221C" stroke-width="0.5" stroke-miterlimit="10"/>
<path d="M47.6637 48.7546C47.9692 48.9887 48.0897 49.3928 48.2017 49.7675C48.3137 50.1421 48.463 50.5635 48.7803 50.8081" stroke="#22221C" stroke-width="0.5" stroke-miterlimit="10"/>
<path d="M46.7184 7.61322C46.7701 7.83272 46.8903 8.02908 47.0607 8.17269C47.2312 8.3163 47.4427 8.39936 47.6634 8.40934C47.884 8.41933 48.1019 8.35569 48.2841 8.22804C48.4663 8.10039 48.6029 7.91564 48.6734 7.70167" fill="white"/>
</svg>
