<svg width="212" height="222" viewBox="0 0 212 222" fill="none" xmlns="http://www.w3.org/2000/svg">
<path opacity="0.13" d="M11.336 219.766C46.4224 221.392 81.5819 222.044 116.814 221.722C135.116 221.555 153.435 221.933 171.726 221.396C176.847 221.247 218.691 220.545 211.078 214.582C202.807 208.109 172.55 208.184 160.484 208.188C129.118 208.188 97.8062 209.055 66.4785 209.874C51.4688 210.272 36.4113 210.365 21.4254 210.987C16.6465 211.186 1.8797 210.51 0.185179 214.512C-1.34208 218.12 6.98118 219.565 11.336 219.766Z" fill="#191E2C"/>
<path d="M51.5484 205.864L36.1862 187.438L31.6881 189.303L34.3862 213.365" stroke="#292622" stroke-miterlimit="10"/>
<path d="M24.1076 211.371L36.9767 188.387L31.9449 185.983L12.1344 201.475" stroke="#292622" stroke-miterlimit="10"/>
<path d="M8.91464 191.373L34.9537 190.575L34.1313 185.886L11.1209 178.853" stroke="#292622" stroke-miterlimit="10"/>
<path d="M15.0217 170.792L29.8104 187.695L36.1862 185.948L29.4898 162.872" stroke="#292622" stroke-miterlimit="10"/>
<path d="M39.9476 163.391L30.4695 187.963L35.792 189.631L53.2031 171.493" stroke="#292622" stroke-miterlimit="10"/>
<path d="M57.8267 181.037L32.162 185.51L33.9282 190.917L57.4603 196.042" stroke="#292622" stroke-miterlimit="10"/>
<path d="M33.8565 213.476C47.6315 213.476 58.7984 201.934 58.7984 187.695C58.7984 173.456 47.6315 161.914 33.8565 161.914C20.0815 161.914 8.91464 173.456 8.91464 187.695C8.91464 201.934 20.0815 213.476 33.8565 213.476Z" stroke="#22221C" stroke-width="8" stroke-miterlimit="10"/>
<path d="M200.471 205.864L185.107 187.438L180.609 189.303L183.309 213.365" stroke="#292622" stroke-miterlimit="10"/>
<path d="M173.03 211.371L185.897 188.387L180.865 185.983L161.057 201.475" stroke="#292622" stroke-miterlimit="10"/>
<path d="M157.835 191.373L183.874 190.575L183.052 185.886L160.041 178.853" stroke="#292622" stroke-miterlimit="10"/>
<path d="M163.942 170.792L178.731 187.695L185.107 185.948L178.41 162.872" stroke="#292622" stroke-miterlimit="10"/>
<path d="M188.868 163.391L179.39 187.963L184.712 189.631L202.124 171.493" stroke="#292622" stroke-miterlimit="10"/>
<path d="M206.747 181.037L181.083 185.51L182.849 190.917L206.383 196.042" stroke="#292622" stroke-miterlimit="10"/>
<path d="M182.777 213.476C196.552 213.476 207.719 201.934 207.719 187.695C207.719 173.456 196.552 161.914 182.777 161.914C169.002 161.914 157.835 173.456 157.835 187.695C157.835 201.934 169.002 213.476 182.777 213.476Z" stroke="#22221C" stroke-width="8" stroke-miterlimit="10"/>
<path d="M182.447 193.629C185.569 193.629 188.1 191.013 188.1 187.786C188.1 184.56 185.569 181.944 182.447 181.944C179.324 181.944 176.793 184.56 176.793 187.786C176.793 191.013 179.324 193.629 182.447 193.629Z" fill="#D8494E"/>
<path d="M182.446 187.786L163.942 149.193" stroke="#FF8080" stroke-width="9" stroke-miterlimit="10" stroke-linecap="round"/>
<path d="M148.317 110.649L165.559 152.565" stroke="black" stroke-width="6" stroke-miterlimit="10" stroke-linecap="round"/>
<path d="M185.033 187.786C185.015 188.293 184.849 188.784 184.554 189.197C184.259 189.61 183.849 189.927 183.375 190.109C182.9 190.291 182.383 190.33 181.887 190.22C181.391 190.111 180.938 189.858 180.585 189.493C180.232 189.128 179.994 188.668 179.901 188.169C179.808 187.67 179.864 187.155 180.063 186.688C180.261 186.221 180.593 185.823 181.016 185.543C181.44 185.262 181.936 185.113 182.445 185.113C183.143 185.125 183.808 185.413 184.293 185.914C184.779 186.416 185.045 187.089 185.033 187.786Z" fill="#1C1C1E"/>
<path d="M135.984 66.5615L124.036 68.5653C120.008 69.2412 121.05 75.4912 125.088 74.8153L137.035 72.8115C141.063 72.1356 140.018 65.8856 135.984 66.5615Z" fill="black"/>
<path d="M139.584 73.4635C142.16 73.4635 144.249 71.3782 144.249 68.8059C144.249 66.2335 142.16 64.1482 139.584 64.1482C137.007 64.1482 134.918 66.2335 134.918 68.8059C134.918 71.3782 137.007 73.4635 139.584 73.4635Z" fill="black"/>
<path d="M150.209 115.247L138.475 83.1267C138.307 82.6678 138.232 82.1802 138.256 81.6923C138.279 81.2043 138.399 80.7259 138.609 80.2849C138.82 79.8439 139.116 79.4492 139.481 79.1238C139.846 78.7983 140.272 78.5487 140.735 78.3895L155.071 73.4635C155.071 72.7101 154.913 71.9651 154.608 71.2762C154.302 70.5872 153.856 69.9697 153.298 69.463C152.739 68.9563 152.081 68.5718 151.365 68.334C150.649 68.0962 149.891 68.0104 149.14 68.0822L141.573 68.8058" stroke="black" stroke-width="6" stroke-miterlimit="10" stroke-linecap="round"/>
<path d="M142.352 176.511L155.826 128.902" stroke="black" stroke-width="6" stroke-miterlimit="10" stroke-linecap="round"/>
<path d="M146.117 176.376H79.0709C77.8557 176.376 76.8706 177.359 76.8706 178.572V191.49C76.8706 192.703 77.8557 193.686 79.0709 193.686H146.117C147.332 193.686 148.317 192.703 148.317 191.49V178.572C148.317 177.359 147.332 176.376 146.117 176.376Z" fill="black"/>
<path d="M73.2506 118.07C73.4617 118.915 78.6906 129.721 83.5292 139.633C84.5488 141.722 85.1109 144.004 85.1782 146.326C85.2455 148.649 84.8163 150.959 83.9194 153.103C83.0225 155.247 81.6783 157.176 79.9764 158.761C78.2744 160.346 76.2538 161.551 74.0491 162.295V162.295C71.2368 163.245 68.2189 163.414 65.318 162.784C62.4171 162.153 59.7423 160.748 57.5798 158.717C49.0674 150.734 35.9234 138.546 35.5212 139.083" stroke="black" stroke-width="6" stroke-miterlimit="10" stroke-linecap="round"/>
<path d="M52.4126 131.608H13.3172C12.5562 131.608 11.9393 132.224 11.9393 132.984V141.076C11.9393 141.836 12.5562 142.452 13.3172 142.452H52.4126C53.1736 142.452 53.7905 141.836 53.7905 141.076V132.984C53.7905 132.224 53.1736 131.608 52.4126 131.608Z" fill="black"/>
<path d="M90.14 109.824H48.02C47.259 109.824 46.6421 110.44 46.6421 111.2V119.293C46.6421 120.053 47.259 120.669 48.02 120.669H90.14C90.901 120.669 91.5179 120.053 91.5179 119.293V111.2C91.5179 110.44 90.901 109.824 90.14 109.824Z" fill="black"/>
<path d="M80.7953 181.037L37.1579 184.284C36.2636 184.35 35.4282 184.754 34.8218 185.414C34.2154 186.073 33.8838 186.939 33.8943 187.834V187.834C33.9036 188.687 34.2231 189.508 34.7935 190.144C35.3638 190.779 36.1461 191.186 36.9946 191.289L84.1704 197.018" stroke="black" stroke-width="6" stroke-miterlimit="10" stroke-linecap="round"/>
<path d="M33.8565 193.327C36.8654 193.327 39.3045 190.805 39.3045 187.695C39.3045 184.585 36.8654 182.063 33.8565 182.063C30.8477 182.063 28.4086 184.585 28.4086 187.695C28.4086 190.805 30.8477 193.327 33.8565 193.327Z" fill="#D8494E"/>
<path d="M88.1468 187.786L77.906 152.827C77.6825 152.065 77.171 151.419 76.4795 151.027C75.788 150.634 74.9707 150.526 74.2004 150.724L69.3478 151.974C68.5631 152.175 67.8905 152.679 67.4773 153.375C67.0641 154.071 66.9441 154.902 67.1435 155.686C69.6843 165.671 78.8777 197.018 78.8777 197.018L88.1468 187.786Z" fill="#FF8080"/>
<path d="M134.426 195.627C139.424 197.402 144.83 197.69 149.988 196.456C152.873 195.758 155.977 194.229 156.758 191.371C157.538 188.512 155.701 185.659 154.556 182.896C152.085 176.948 152.913 170.106 154.966 164.011C157.019 157.916 160.217 152.252 162.554 146.251C167.391 133.844 168.355 119.625 163.43 107.254C160.655 100.276 156.143 94.1139 153.126 87.2378C151.959 84.5739 151.015 81.5404 152.003 78.807C152.628 77.0755 153.948 75.7039 155.045 74.2249C155.223 73.9863 155.404 73.6802 155.28 73.4078C155.157 73.1355 154.603 73.2448 154.715 73.5212" stroke="black" stroke-miterlimit="10" stroke-linecap="round"/>
<path d="M146.32 183.091H79.274C78.0588 183.091 77.0737 184.075 77.0737 185.288V198.205C77.0737 199.418 78.0588 200.402 79.274 200.402H146.32C147.535 200.402 148.52 199.418 148.52 198.205V185.288C148.52 184.075 147.535 183.091 146.32 183.091Z" fill="#FF8080"/>
<path d="M138.59 197.74C141.906 197.74 144.594 195.056 144.594 191.746C144.594 188.436 141.906 185.753 138.59 185.753C135.274 185.753 132.587 188.436 132.587 191.746C132.587 195.056 135.274 197.74 138.59 197.74Z" fill="white"/>
<path d="M136.925 187.695H140.366L139.108 190.828H143.289L138.588 196.374L139.405 192.541C139.405 192.541 136.394 192.432 136.326 192.233C136.258 192.034 136.925 187.695 136.925 187.695Z" fill="black"/>
<path d="M119.739 169.865C119.478 168.065 119.341 166.248 119.329 164.428C119.289 162.212 119.379 159.989 119.411 157.771C115.862 157.242 112.629 158.584 108.893 158.367C109.023 159.089 109.128 166.033 109.447 168.784C110.014 173.666 115.946 173.372 119.658 172.887C119.943 172.866 120.221 172.783 120.47 172.642C120.114 171.75 119.868 170.817 119.739 169.865Z" fill="#F4B708"/>
<path d="M109.285 167.947C108.587 170.332 107.051 178.155 109.397 180.103C109.602 180.239 109.844 180.308 110.09 180.302C118.095 180.848 128.728 181.397 137.569 181.693C137.425 180.169 136.374 178.711 135.189 177.634C132.961 175.612 129.677 174.149 126.975 172.895C123.501 171.283 121.081 168.881 117.085 168.239C114.506 167.824 111.886 167.885 109.285 167.947Z" fill="black"/>
<path d="M106.46 161.693C102.677 160.699 98.065 160.151 94.3016 160.059C94.4569 160.775 94.7994 167.711 95.2116 170.45C95.9464 175.31 101.866 174.823 105.566 174.201C105.7 174.18 105.833 174.151 105.964 174.114C105.55 170.273 106.02 165.53 106.46 161.693Z" fill="#F4B708"/>
<path d="M95.0225 169.889C94.4072 172.303 93.1428 180.153 95.5442 182.029C95.7012 182.141 95.889 182.201 96.0818 182.202L124.218 183.155C124.354 183.159 124.489 183.127 124.608 183.062C124.728 182.997 124.828 182.901 124.898 182.785C124.969 182.669 125.007 182.536 125.009 182.4C125.01 182.264 124.976 182.13 124.909 182.012C123.547 179.648 120.619 178.012 118.451 176.66C115.773 174.989 112.94 173.578 109.992 172.446C107.521 171.495 105.014 170.891 102.454 170.219C101.645 170.005 95.2375 169.048 95.0225 169.889Z" fill="#0096A9"/>
<path d="M101.086 114.365C98.2522 110.516 92.9058 109.125 88.4495 108.23C80.6838 106.666 72.7986 104.014 67.1894 98.4317C63.0297 94.2909 67.9858 89.1263 72.1216 87.377C77.241 85.2121 86.3408 83.2361 91.737 85.3453C95.5939 86.8541 99.3494 90.3151 102.792 92.6151L114.295 100.292C116.229 101.581 118.174 102.877 119.807 104.531C126.215 111.009 127.443 120.092 127.119 128.646C126.721 139.14 125.526 149.718 122.057 159.683C121.858 160.28 121.619 160.89 121.137 161.286C120.592 161.735 119.843 161.812 119.146 161.882L110.42 162.629C109.473 162.711 108.471 162.782 107.621 162.359C106.974 162.037 106.492 161.462 106.064 160.88C102.167 155.594 101.844 146.965 102.081 140.603C102.253 135.85 102.938 131.125 102.979 126.366C103.005 122.643 103.378 117.486 101.086 114.365Z" fill="#1C1C1E"/>
<path d="M93.5251 153.374C93.5251 148.45 94.7776 143.235 95.4187 138.363C95.8966 134.733 97.8082 128.928 96.5876 125.372C95.5382 122.334 91.4702 121.515 88.8218 120.454L74.8456 114.876C72.6791 114.011 70.4868 113.138 68.175 112.808C66.0046 112.5 63.7306 112.669 61.6916 111.862C54.6766 109.091 55.2322 98.4495 57.1796 92.7541C57.9362 90.5416 58.9079 87.6551 60.7498 86.1364C63.1572 84.1485 66.7792 82.3594 69.5828 80.9559C73.5334 78.9819 77.7248 78.968 81.1059 81.9936C84.1803 84.7508 85.0425 89.2137 88.4017 91.5992C97.1949 97.8432 105.606 104.385 112.663 112.683C114.017 114.273 115.317 115.937 116.247 117.808C120.331 126.048 116.374 134.969 114.962 143.315C113.963 149.232 112.963 155.151 111.962 161.073C111.763 162.206 111.534 163.422 110.693 164.206C109.819 165.019 108.525 165.148 107.332 165.2C103.402 165.404 99.4622 165.355 95.5382 165.053C91.9819 164.778 92.7306 160.973 93.0233 158.137C93.1839 156.553 93.3512 154.965 93.5251 153.374Z" fill="#0096A9"/>
<path d="M124.307 63.339C123.349 63.2813 122.378 63.2953 121.422 63.2575C116.529 63.0587 111.848 61.4286 107.352 59.6077C105.656 58.9199 103.746 58.6932 102.541 57.2421C101.247 55.6816 100.817 53.5764 100.55 51.6222C99.7396 45.8573 99.9248 39.7067 97.0276 34.6554C95.7174 32.3713 92.4737 30.2701 89.7338 30.5583C87.8661 30.7571 86.3069 32.1745 85.4348 33.8364C82.9239 38.6074 83.8418 45.3265 84.5069 50.4474C85.2257 55.9738 86.5499 61.6354 89.2519 66.5495C89.9329 67.7879 91.2431 68.4539 92.5235 68.8972C97.3721 70.571 102.318 72.0779 107.414 72.7816C110.444 73.203 113.061 72.6007 115.994 72.2289C119.246 71.8174 122.459 72.0818 125.723 71.39C127.479 71.0183 129.452 70.3106 130.056 68.6229C130.727 66.7443 129.198 64.6848 127.348 63.9314C126.374 63.5682 125.346 63.368 124.307 63.339Z" fill="#1C1C1E"/>
<path d="M89.0807 90.1778C90.5183 89.2216 93.3598 88.4443 94.0766 86.8579C94.7596 85.3471 93.9332 81.6715 93.997 79.938C94.1762 74.8987 94.8711 69.8852 95.8508 64.9412C96.3287 62.5279 97.2108 60.039 97.1948 57.5959C97.1709 54.8546 98.0053 52.0019 98.5648 49.3401C99.1861 46.4179 99.7595 43.4578 99.7058 40.472C99.5226 31.6735 91.5 23.8968 82.432 25.9602C75.7515 27.485 72.2191 34.6077 69.3558 40.148C64.7939 48.9723 62.0122 58.5819 59.336 68.104C57.2572 75.5109 54.4675 83.4904 55.264 91.291C56.5025 103.431 71.2992 100.078 79.3775 96.2151C82.888 94.5452 85.9226 92.281 89.0807 90.1778Z" fill="#F4B708"/>
<path d="M79.4851 67.1042C79.4711 66.9552 77.3704 65.7922 77.0817 65.5139C76.4044 64.888 75.7809 64.2064 75.2179 63.4763C73.9737 61.7704 73.2005 59.7679 72.9758 57.6696C72.6174 54.6738 73.1929 51.6403 74.067 48.7518C74.2223 48.2429 74.4075 47.7042 74.8336 47.3861C78.133 44.9132 78.3561 55.3776 78.4536 56.5027C78.7583 60.0432 79.1406 63.5737 79.4851 67.1042Z" fill="#1C1C1E"/>
<path d="M130.597 65.4682C129.435 64.6549 128.079 64.1601 126.665 64.0329C122.967 63.7268 119.194 63.9932 115.514 64.4484C114.885 64.5259 114.236 64.6213 113.696 64.9553C112.917 65.4404 112.501 66.329 112.139 67.1679C111.776 68.0068 111.416 68.8934 111.699 69.7382C111.948 70.4837 112.657 70.9906 113.393 71.2709C117.061 72.6625 121.603 69.2949 124.982 71.7162C127.173 73.2906 126.973 77.3281 129.99 77.9384C133.417 78.6341 134.275 75.4157 134.399 72.7877C134.538 69.8694 132.955 67.0903 130.597 65.4682Z" fill="#EF80A5"/>
<path d="M121.591 68.615C122.037 67.0246 121.989 65.321 121.225 63.844C120.928 63.2092 120.462 62.6685 119.877 62.2815C118.913 61.6851 117.704 61.7447 116.577 61.8163L105.896 62.4862C103.955 62.6095 101.968 62.7268 100.102 62.1761C97.0913 61.2895 95.5979 58.7251 95.2256 55.8009C94.8672 53.0178 94.7955 50.1194 93.7162 47.4795C92.2985 44.0086 90.0644 40.8379 86.8426 38.8301C83.6925 36.874 79.286 36.3194 76.4286 38.681C73.6528 40.975 73.2884 45.0562 73.5035 48.6464C73.9993 56.8764 76.5421 67.6071 81.2413 74.535C82.0378 75.7059 83.3958 76.2466 84.718 76.5686C91.0898 78.1212 97.7146 77.7196 104.192 77.1789C106.8 76.9602 108.943 76.2684 111.432 75.7297C114.172 75.1333 116.707 74.7358 118.923 72.8274C120.205 71.7133 121.133 70.249 121.591 68.615Z" fill="#F4B708"/>
<path d="M87.9119 6.20639C88.4436 4.6598 89.1265 3.1629 90.2237 1.9622C93.3698 -1.47888 98.2542 -1.1787 101.424 1.91846C103.234 3.68373 102.744 6.0573 103.31 8.54418C103.794 10.6769 103.517 12.9117 102.525 14.8618C100.95 17.8556 97.6748 17.2095 96.6015 21.0243C95.6517 24.3898 95.3311 27.8428 96.2869 31.2541C96.3739 31.489 96.4078 31.7401 96.3865 31.9896C96.3303 32.2341 96.2076 32.4583 96.0321 32.6377C94.7179 34.1326 92.3901 34.3691 90.5025 33.737C88.6148 33.1048 87.0557 31.769 85.5503 30.4629C85.3034 30.2482 81.5938 27.2246 81.9223 26.8966C84.3218 24.0757 84.7718 20.1516 85.393 16.5018C85.9046 13.5063 86.5962 10.5443 87.4639 7.63173C87.6132 7.14469 87.7506 6.67753 87.9119 6.20639Z" fill="#EF80A5"/>
<path d="M104.023 -1.69956C103.439 -1.99364 102.801 -2.16355 102.149 -2.19853C100.703 -2.26612 99.2936 -1.77908 97.9356 -1.28011C96.5776 -0.781146 95.1797 -0.252362 93.7321 -0.242422C91.7031 -0.230494 89.6422 -1.22445 87.7107 -0.608198C85.5881 0.0676923 84.2301 2.33391 83.6486 4.36158C82.9517 6.78684 83.0951 9.46853 84.246 11.7407C85.0425 13.2913 88.5311 16.6429 89.692 13.8837C90.3351 12.359 90.0285 9.76871 92.0695 9.26378C92.6131 9.1286 93.1885 9.35721 93.7441 9.27769C95.9125 8.9636 94.3733 6.0195 96.5318 5.54042C97.6528 5.29193 98.9869 5.88631 100.206 5.69945C101.637 5.48078 103.131 5.04741 104.27 4.11906C105.474 3.1251 106.203 1.42146 105.628 -0.0237517C105.314 -0.758477 104.744 -1.35419 104.023 -1.69956Z" fill="black"/>
<path d="M93.8397 10.2619C94.1244 11.6693 93.5092 13.2298 92.2627 14.3053C91.6852 14.8043 91.1038 14.3788 90.377 14.1443C87.6431 13.2597 88.4316 9.5025 90.154 8.14078C90.5164 7.85253 90.9604 7.61597 91.4224 7.66169C91.6995 7.70158 91.9634 7.80575 92.193 7.96584C92.6104 8.21546 92.972 8.54809 93.2553 8.94307C93.5385 9.33804 93.7375 9.78694 93.8397 10.2619Z" fill="#EF80A5"/>
<path d="M89.4192 1.07764C89.8144 1.30472 90.2551 1.44157 90.7095 1.47835C91.164 1.51512 91.621 1.45092 92.0476 1.29034" fill="#0096A9"/>
<path d="M89.5168 5.05549C90.6989 5.17034 91.8866 4.89972 92.9018 4.28418L89.5168 5.05549Z" fill="#0096A9"/>
<path d="M102.213 0.473389C102.046 0.95786 101.728 1.37619 101.305 1.66704C100.883 1.95789 100.378 2.10597 99.8651 2.08956" fill="#0096A9"/>
<path d="M100.707 17.0842C99.9544 17.5383 99.0921 17.7802 98.2124 17.784C97.3362 17.7869 96.4631 17.6793 95.6139 17.4639C95.8392 18.2647 96.3714 18.9446 97.0953 19.3564C97.8185 19.7592 98.6457 19.9371 99.4708 19.8673" fill="#292622"/>
<path d="M101.05 8.35132C101.01 8.93073 101.161 9.50731 101.481 9.9925C101.801 10.4777 102.271 10.8446 102.82 11.037" fill="#292622"/>
<path d="M96.6871 60.3176C96.1634 59.5403 96.0897 58.5603 95.9762 57.6299C95.6477 54.8588 94.666 52.4892 93.7859 49.877C93.0949 47.8394 93.0292 45.4619 92.7246 43.3428" stroke="#292622" stroke-width="0.75" stroke-miterlimit="10"/>
<path d="M102.746 12.3929C102.43 13.2755 101.578 13.8759 100.733 13.8123C99.889 13.7487 99.1164 13.029 98.9053 12.1086" fill="white"/>
<path d="M76.5779 64.6392C77.3744 66.482 80.8869 73.6186 82.3265 75.0101C84.9032 77.497 90.2734 77.7693 93.6485 78.1709" stroke="#292622" stroke-width="0.75" stroke-miterlimit="10"/>
<path d="M92.3522 9.65139C92.2188 9.73886 92.0496 9.62952 91.9102 9.55199C91.6853 9.43701 91.4293 9.39735 91.1801 9.43888C90.9308 9.48041 90.7016 9.60092 90.5263 9.78259C90.3571 9.97003 90.2438 10.2011 90.1995 10.4495C90.1552 10.6979 90.1814 10.9538 90.2754 11.188C90.3751 11.4203 90.5288 11.6254 90.7238 11.7865C90.9187 11.9476 91.1493 12.06 91.3965 12.1144" fill="#292622"/>
<path d="M11.2185 131.608H50.2601" stroke="#FF8080" stroke-width="6" stroke-miterlimit="10" stroke-linecap="round"/>
</svg>
