<svg width="114" height="17" viewBox="0 0 114 17" fill="none" xmlns="http://www.w3.org/2000/svg">
<path d="M9 1H6.81818C5.85376 1 4.92884 1.38312 4.24688 2.06507C3.56493 2.74702 3.18182 3.67194 3.18182 4.63636V6.81818H1V9.72727H3.18182V15.5455H6.09091V9.72727H8.27273L9 6.81818H6.09091V4.63636C6.09091 4.44348 6.16753 4.25849 6.30392 4.1221C6.44031 3.98571 6.6253 3.90909 6.81818 3.90909H9V1Z" stroke="white" stroke-linecap="round" stroke-linejoin="round"/>
<path d="M39.85 4.42271H39.857M32.5 1.27271H39.5C41.433 1.27271 43 2.83971 43 4.77271V11.7727C43 13.7057 41.433 15.2727 39.5 15.2727H32.5C30.567 15.2727 29 13.7057 29 11.7727V4.77271C29 2.83971 30.567 1.27271 32.5 1.27271ZM38.8 7.8317C38.8864 8.41428 38.7869 9.00926 38.5156 9.53202C38.2444 10.0548 37.8152 10.4787 37.2891 10.7435C36.7631 11.0083 36.1669 11.1004 35.5855 11.0069C35.004 10.9133 34.4668 10.6388 34.0504 10.2223C33.6339 9.80587 33.3594 9.26872 33.2658 8.68725C33.1723 8.10579 33.2644 7.50963 33.5292 6.98357C33.794 6.4575 34.2179 6.02832 34.7407 5.75707C35.2634 5.48582 35.8584 5.38632 36.441 5.47271C37.0352 5.56082 37.5854 5.83773 38.0102 6.26252C38.435 6.68731 38.7119 7.23746 38.8 7.8317Z" stroke="white" stroke-linecap="round" stroke-linejoin="round"/>
<path d="M78 2.16237C77.3471 2.62293 76.6242 2.97518 75.8591 3.20556C75.4485 2.7334 74.9027 2.39875 74.2957 2.24687C73.6887 2.09498 73.0497 2.13319 72.4651 2.35632C71.8805 2.57945 71.3785 2.97674 71.027 3.49445C70.6756 4.01217 70.4916 4.62533 70.5 5.25101V5.93283C69.3018 5.9639 68.1145 5.69816 67.0439 5.15927C65.9732 4.62038 65.0525 3.82508 64.3636 2.84419C64.3636 2.84419 61.6364 8.98056 67.7727 11.7078C66.3685 12.661 64.6958 13.1389 63 13.0715C69.1364 16.4806 76.6364 13.0715 76.6364 5.23056C76.6357 5.04064 76.6175 4.85119 76.5818 4.66465C77.2777 3.97839 77.7687 3.11195 78 2.16237Z" stroke="white" stroke-linecap="round" stroke-linejoin="round"/>
<path d="M108.5 5.6477C109.693 5.6477 110.838 6.12181 111.682 6.96572C112.526 7.80964 113 8.95423 113 10.1477V15.3977H110V10.1477C110 9.74988 109.842 9.36835 109.561 9.08704C109.279 8.80574 108.898 8.6477 108.5 8.6477C108.102 8.6477 107.721 8.80574 107.439 9.08704C107.158 9.36835 107 9.74988 107 10.1477V15.3977H104V10.1477C104 8.95423 104.474 7.80964 105.318 6.96572C106.162 6.12181 107.307 5.6477 108.5 5.6477Z" stroke="white" stroke-linecap="round" stroke-linejoin="round"/>
<path d="M101 6.3977H98V15.3977H101V6.3977Z" stroke="white" stroke-linecap="round" stroke-linejoin="round"/>
<path d="M99.5 4.1477C100.328 4.1477 101 3.47613 101 2.6477C101 1.81928 100.328 1.14771 99.5 1.14771C98.6716 1.14771 98 1.81928 98 2.6477C98 3.47613 98.6716 4.1477 99.5 4.1477Z" stroke="white" stroke-linecap="round" stroke-linejoin="round"/>
</svg>
