<svg width="66" height="126" viewBox="0 0 66 126" fill="none" xmlns="http://www.w3.org/2000/svg">
<path d="M59.0083 0H6.99363C5.13928 0.0015478 3.36131 0.746727 2.05008 2.07193C0.73885 3.39714 0.00153147 5.19406 0 7.06819V118.934C0.00204181 120.808 0.739586 122.604 2.05076 123.929C3.36193 125.254 5.13961 125.998 6.99363 126H59.0083C60.862 125.998 62.6392 125.253 63.9499 123.928C65.2607 122.603 65.998 120.807 66 118.934V7.06819C65.9985 5.1944 65.2614 3.39777 63.9506 2.07262C62.6398 0.74747 60.8623 0.00206357 59.0083 0ZM64.1918 118.934C64.1873 120.32 63.6403 121.649 62.6702 122.629C61.7002 123.609 60.3859 124.162 59.0141 124.167H6.99363C5.62054 124.166 4.30395 123.614 3.33285 122.633C2.36175 121.652 1.81548 120.321 1.81395 118.934V7.06819C1.8151 6.0868 2.0894 5.12553 2.60548 4.29423C3.12157 3.46292 3.85864 2.79511 4.73246 2.3671C5.43579 2.01649 6.2094 1.83386 6.99363 1.83329H59.0083C60.3824 1.83329 61.7003 2.38469 62.6722 3.36632C63.6442 4.34794 64.1908 5.67945 64.1918 7.06819V118.934Z" fill="#231F20"/>
<path d="M58.2681 2.04175H6.16858C5.38313 2.04235 4.60826 2.22496 3.90356 2.57556C3.10176 3.62338 2.6653 4.90975 2.66213 6.23434V117.167C2.66213 118.769 3.29172 120.305 4.41241 121.437C5.53309 122.57 7.05306 123.206 8.63795 123.206H59.7023C60.6224 123.205 61.5297 122.989 62.3528 122.573C63.0678 121.654 63.4567 120.52 63.4574 119.351V7.28444C63.4528 5.89508 62.9045 4.56397 61.9323 3.58172C60.96 2.59947 59.6428 2.04586 58.2681 2.04175ZM37.0424 120.346H27.3866C26.6197 120.346 25.8842 120.038 25.342 119.49C24.7997 118.942 24.4951 118.199 24.4951 117.424C24.4951 116.649 24.7997 115.906 25.342 115.357C25.8842 114.809 26.6197 114.502 27.3866 114.502H37.0424C37.8092 114.502 38.5447 114.809 39.087 115.357C39.6292 115.906 39.9339 116.649 39.9339 117.424C39.9339 118.199 39.6292 118.942 39.087 119.49C38.5447 120.038 37.8092 120.346 37.0424 120.346ZM60.8319 108.698H60.3365V110.708C60.3365 110.829 60.3129 110.949 60.2672 111.06C60.2215 111.172 60.1545 111.273 60.07 111.359C59.9855 111.444 59.8852 111.512 59.7748 111.558C59.6644 111.604 59.5461 111.628 59.4266 111.628H5.01198C4.77066 111.628 4.53924 111.531 4.3686 111.359C4.19797 111.186 4.10211 110.952 4.10211 110.708V11.2432C4.10211 11.1226 4.12566 11.0031 4.17141 10.8916C4.21715 10.7802 4.2842 10.6789 4.36872 10.5937C4.45323 10.5085 4.55355 10.4409 4.66393 10.3949C4.77431 10.3489 4.89258 10.3254 5.01198 10.3256H7.51796V10.1191H60.8319V108.698Z" fill="#FFE501"/>
<path d="M37.8192 114.092H28.1808C27.4139 114.092 26.6784 114.4 26.1362 114.948C25.5939 115.496 25.2893 116.24 25.2893 117.015C25.2893 117.79 25.5939 118.533 26.1362 119.081C26.6784 119.629 27.4139 119.937 28.1808 119.937H37.8192C38.5861 119.937 39.3216 119.629 39.8638 119.081C40.4061 118.533 40.7107 117.79 40.7107 117.015C40.7107 116.24 40.4061 115.496 39.8638 114.948C39.3216 114.4 38.5861 114.092 37.8192 114.092ZM37.8192 118.092H28.1808C27.8965 118.092 27.6239 117.978 27.4229 117.775C27.2219 117.572 27.109 117.296 27.109 117.009C27.109 116.722 27.2219 116.446 27.4229 116.243C27.6239 116.04 27.8965 115.926 28.1808 115.926H37.8192C38.1035 115.926 38.3761 116.04 38.5771 116.243C38.7781 116.446 38.891 116.722 38.891 117.009C38.891 117.296 38.7781 117.572 38.5771 117.775C38.3761 117.978 38.1035 118.092 37.8192 118.092Z" fill="#231F20"/>
<path d="M60.1591 10.1016H5.84281C5.60201 10.1016 5.37107 10.1983 5.2008 10.3704C5.03053 10.5424 4.93487 10.7758 4.93487 11.0192V110.307C4.93487 110.427 4.95837 110.547 5.00402 110.658C5.04967 110.769 5.11658 110.87 5.20091 110.955C5.28525 111.04 5.38535 111.108 5.4955 111.154C5.60564 111.199 5.72366 111.223 5.84281 111.223H60.1591C60.2782 111.223 60.3961 111.199 60.5061 111.153C60.6162 111.108 60.7162 111.04 60.8003 110.955C60.8845 110.87 60.9512 110.769 60.9967 110.658C61.0421 110.546 61.0654 110.427 61.0651 110.307V11.0192C61.0654 10.8988 61.0421 10.7795 60.9967 10.6682C60.9513 10.5569 60.8846 10.4557 60.8004 10.3705C60.7163 10.2852 60.6163 10.2176 60.5063 10.1715C60.3962 10.1253 60.2783 10.1016 60.1591 10.1016ZM59.2512 109.384H6.74689V11.9349H59.2512V109.384Z" fill="#231F20"/>
</svg>
