<svg width="261" height="186" viewBox="0 0 261 186" fill="none" xmlns="http://www.w3.org/2000/svg">
<rect x="1.50977" y="13.7734" width="257.98" height="170.266" rx="4" fill="white" stroke="black" stroke-width="2"/>
<path d="M0 8.46875C0 4.05047 3.58172 0.46875 8 0.46875H253C257.418 0.46875 261 4.05047 261 8.46875V19.6641H0V8.46875Z" fill="black"/>
<path d="M12.2441 10.0664C12.2441 11.2689 11.2294 12.2734 9.94043 12.2734C8.65144 12.2734 7.63672 11.2689 7.63672 10.0664C7.63672 8.86389 8.65144 7.85938 9.94043 7.85938C11.2294 7.85938 12.2441 8.86389 12.2441 10.0664Z" stroke="white"/>
<path d="M21.4199 10.0664C21.4199 11.2689 20.4052 12.2734 19.1162 12.2734C17.8272 12.2734 16.8125 11.2689 16.8125 10.0664C16.8125 8.86389 17.8272 7.85938 19.1162 7.85938C20.4052 7.85938 21.4199 8.86389 21.4199 10.0664Z" stroke="white"/>
<path d="M30.5957 10.0664C30.5957 11.2689 29.581 12.2734 28.292 12.2734C27.003 12.2734 25.9883 11.2689 25.9883 10.0664C25.9883 8.86389 27.003 7.85938 28.292 7.85938C29.581 7.85938 30.5957 8.86389 30.5957 10.0664Z" stroke="white"/>
<rect x="8.13672" y="50.1953" width="157.047" height="85.1172" stroke="black" stroke-width="2"/>
<path d="M57.0938 119.824V93.7383H84.3662V119.824H57.0938Z" stroke="black" stroke-width="2"/>
<path d="M78.0137 106.781C78.0137 110.545 74.8431 113.656 70.8574 113.656C66.8718 113.656 63.7012 110.545 63.7012 106.781C63.7012 103.017 66.8718 99.9062 70.8574 99.9062C74.8431 99.9062 78.0137 103.017 78.0137 106.781Z" fill="#FE6713" stroke="black" stroke-width="2"/>
<rect x="101.934" y="94.4922" width="25.0176" height="24.0859" fill="#E11F45" stroke="black" stroke-width="2"/>
<rect x="128.451" y="93.9922" width="26.0176" height="25.0859" fill="#FFE501" stroke="black"/>
<rect x="128.951" y="68.4062" width="25.0176" height="24.0859" stroke="black" stroke-width="2"/>
<path d="M14.7832 142.957L9.04834 145.515L9.04834 140.4L14.7832 142.957Z" fill="black"/>
<line x1="8.66602" y1="149.094" x2="166.184" y2="149.094" stroke="black" stroke-width="2"/>
<rect x="8.13672" y="158.477" width="34.1934" height="17.6875" stroke="black" stroke-width="2"/>
<rect x="49.4277" y="158.477" width="34.1934" height="17.6875" stroke="black" stroke-width="2"/>
<rect x="90.7188" y="158.477" width="34.1934" height="17.6875" stroke="black" stroke-width="2"/>
<rect x="132.01" y="158.477" width="34.1934" height="17.6875" stroke="black" stroke-width="2"/>
<path d="M173.065 42.3047V185.285" stroke="black" stroke-width="2"/>
<rect x="223.787" y="24.0938" width="28.5469" height="12.7969" fill="black"/>
<rect x="193.691" y="50.1953" width="57.6426" height="118.094" stroke="black" stroke-width="2"/>
</svg>
